<svg xmlns="http://www.w3.org/2000/svg" xmlns:xlink="http://www.w3.org/1999/xlink" contentStyleType="text/css" height="989px" preserveAspectRatio="none" style="width:1671px;height:989px;background:#FFFFFF;" version="1.1" viewBox="0 0 1671 989" width="1671px" zoomAndPan="magnify"><defs/><g><!--cluster e4f00638b8a10e6994e67af2f832d51c--><g id="cluster_e4f00638b8a10e6994e67af2f832d51c"><polygon fill="none" points="758,296.64,768,286.64,1117,286.64,1117,862.86,1107,872.86,758,872.86,758,296.64" style="stroke:#181818;stroke-width:1.0;"/><line style="stroke:#181818;stroke-width:1.0;" x1="1107" x2="1117" y1="296.64" y2="286.64"/><line style="stroke:#181818;stroke-width:1.0;" x1="758" x2="1107" y1="296.64" y2="296.64"/><line style="stroke:#181818;stroke-width:1.0;" x1="1107" x2="1107" y1="296.64" y2="872.86"/><text fill="#000000" font-family="sans-serif" font-size="14" font-weight="bold" lengthAdjust="spacing" textLength="96" x="885.5" y="312.6351">Prometheus</text></g><!--cluster d9c0e52dd15274d51041b489c7cea0ad--><g id="cluster_d9c0e52dd15274d51041b489c7cea0ad"><polygon fill="none" points="155,272.19,165,262.19,656,262.19,656,862.86,646,872.86,155,872.86,155,272.19" style="stroke:#181818;stroke-width:1.0;"/><line style="stroke:#181818;stroke-width:1.0;" x1="646" x2="656" y1="272.19" y2="262.19"/><line style="stroke:#181818;stroke-width:1.0;" x1="155" x2="646" y1="272.19" y2="272.19"/><line style="stroke:#181818;stroke-width:1.0;" x1="646" x2="646" y1="272.19" y2="872.86"/><text fill="#000000" font-family="sans-serif" font-size="14" font-weight="bold" lengthAdjust="spacing" textLength="62" x="370.5" y="288.1851">Grafana</text></g><!--cluster 587516af1efac0b9293f31639c6c31f3--><g id="cluster_587516af1efac0b9293f31639c6c31f3"><polygon fill="none" points="1286,16,1296,6,1563,6,1563,187.19,1553,197.19,1286,197.19,1286,16" style="stroke:#181818;stroke-width:1.0;"/><line style="stroke:#181818;stroke-width:1.0;" x1="1553" x2="1563" y1="16" y2="6"/><line style="stroke:#181818;stroke-width:1.0;" x1="1286" x2="1553" y1="16" y2="16"/><line style="stroke:#181818;stroke-width:1.0;" x1="1553" x2="1553" y1="16" y2="197.19"/><text fill="#000000" font-family="sans-serif" font-size="14" font-weight="bold" lengthAdjust="spacing" textLength="65" x="1388" y="31.9951">Datadog</text></g><!--entity b0b6236e8ab49920c48d10f339f1a86a--><g id="elem_b0b6236e8ab49920c48d10f339f1a86a"><rect fill="#F1F1F1" height="111.4844" rx="2.5" ry="2.5" style="stroke:#181818;stroke-width:0.5;" width="217" x="782.5" y="358.64"/><rect fill="#F1F1F1" height="10" style="stroke:#181818;stroke-width:0.5;" width="15" x="979.5" y="363.64"/><rect fill="#F1F1F1" height="2" style="stroke:#181818;stroke-width:0.5;" width="4" x="977.5" y="365.64"/><rect fill="#F1F1F1" height="2" style="stroke:#181818;stroke-width:0.5;" width="4" x="977.5" y="369.64"/><text fill="#000000" font-family="sans-serif" font-size="14" font-weight="bold" lengthAdjust="spacing" textLength="96" x="797.5" y="391.6351">prometheus</text><text fill="#000000" font-family="sans-serif" font-size="14" lengthAdjust="spacing" textLength="4" x="797.5" y="407.932">&#160;</text><text fill="#000000" font-family="sans-serif" font-size="14" lengthAdjust="spacing" textLength="177" x="797.5" y="424.2289">image: prom/prometheus</text><text fill="#000000" font-family="sans-serif" font-size="14" lengthAdjust="spacing" textLength="163" x="797.5" y="440.5257">restart: unless-stopped</text><text fill="#000000" font-family="sans-serif" font-size="14" lengthAdjust="spacing" textLength="4" x="797.5" y="456.8226">&#160;</text></g><!--entity cfd4d43463526be4db6bd372951d8018--><g id="elem_cfd4d43463526be4db6bd372951d8018"><ellipse cx="818" cy="584.57" fill="#F1F1F1" rx="8" ry="8" style="stroke:#181818;stroke-width:0.5;"/><text fill="#000000" font-family="sans-serif" font-size="14" lengthAdjust="spacing" textLength="36" x="800" y="614.5651">9090</text></g><!--entity b8365f95fd8d51fff10d734d11af5400--><g id="elem_b8365f95fd8d51fff10d734d11af5400"><rect fill="#F1F1F1" height="39.2969" rx="2.5" ry="2.5" style="stroke:#181818;stroke-width:0.5;" width="147" x="937.5" y="809.57"/><polygon fill="#F1F1F1" points="1067.5,814.57,1067.5,828.57,1079.5,828.57,1079.5,820.57,1073.5,814.57,1067.5,814.57" style="stroke:#181818;stroke-width:0.5;"/><line style="stroke:#181818;stroke-width:0.5;" x1="1073.5" x2="1073.5" y1="814.57" y2="820.57"/><line style="stroke:#181818;stroke-width:0.5;" x1="1079.5" x2="1073.5" y1="820.57" y2="820.57"/><text fill="#000000" font-family="sans-serif" font-size="14" lengthAdjust="spacing" textLength="117" x="947.5" y="835.5651">/etc/prometheus</text></g><!--entity 66ea46159f158592d153eec2b58bfad1--><g id="elem_66ea46159f158592d153eec2b58bfad1"><rect fill="#F1F1F1" height="39.2969" rx="2.5" ry="2.5" style="stroke:#181818;stroke-width:0.5;" width="120" x="782" y="809.57"/><polygon fill="#F1F1F1" points="885,814.57,885,828.57,897,828.57,897,820.57,891,814.57,885,814.57" style="stroke:#181818;stroke-width:0.5;"/><line style="stroke:#181818;stroke-width:0.5;" x1="891" x2="891" y1="814.57" y2="820.57"/><line style="stroke:#181818;stroke-width:0.5;" x1="897" x2="891" y1="820.57" y2="820.57"/><text fill="#000000" font-family="sans-serif" font-size="14" lengthAdjust="spacing" textLength="90" x="792" y="835.5651">/prometheus</text></g><!--entity ca625ae68e4d4a58f9ba859ff3420557--><g id="elem_ca625ae68e4d4a58f9ba859ff3420557"><rect fill="#F1F1F1" height="160.375" rx="2.5" ry="2.5" style="stroke:#181818;stroke-width:0.5;" width="434" x="179" y="334.19"/><rect fill="#F1F1F1" height="10" style="stroke:#181818;stroke-width:0.5;" width="15" x="593" y="339.19"/><rect fill="#F1F1F1" height="2" style="stroke:#181818;stroke-width:0.5;" width="4" x="591" y="341.19"/><rect fill="#F1F1F1" height="2" style="stroke:#181818;stroke-width:0.5;" width="4" x="591" y="345.19"/><text fill="#000000" font-family="sans-serif" font-size="14" font-weight="bold" lengthAdjust="spacing" textLength="60" x="194" y="367.1851">grafana</text><text fill="#000000" font-family="sans-serif" font-size="14" lengthAdjust="spacing" textLength="4" x="194" y="383.482">&#160;</text><text fill="#000000" font-family="sans-serif" font-size="14" lengthAdjust="spacing" textLength="158" x="194" y="399.7789">image: grafana/grafana</text><text fill="#000000" font-family="sans-serif" font-size="14" lengthAdjust="spacing" textLength="149" x="194" y="416.0757">restart: NEW-stopped</text><text fill="#000000" font-family="sans-serif" font-size="14" lengthAdjust="spacing" textLength="342" x="194" y="432.3726">environment: GF_SECURITY_ADMIN_USER=admin</text><text fill="#000000" font-family="sans-serif" font-size="14" lengthAdjust="spacing" textLength="394" x="194" y="448.6695">environment: GF_SECURITY_ADMIN_PASSWORD=grafana</text><text fill="#000000" font-family="sans-serif" font-size="14" lengthAdjust="spacing" textLength="44" x="194" y="464.9664">text: 2</text><text fill="#000000" font-family="sans-serif" font-size="14" lengthAdjust="spacing" textLength="4" x="194" y="481.2632">&#160;</text></g><!--entity 9f18a5ea59196197837bdbfebede13e8--><g id="elem_9f18a5ea59196197837bdbfebede13e8"><ellipse cx="240" cy="584.57" fill="#F1F1F1" rx="8" ry="8" style="stroke:#181818;stroke-width:0.5;"/><text fill="#000000" font-family="sans-serif" font-size="14" lengthAdjust="spacing" textLength="107" x="186.5" y="614.5651">127.0.0.1:8080</text></g><!--entity e5b1c7fcc1453c77b2f0388027659c6e--><g id="elem_e5b1c7fcc1453c77b2f0388027659c6e"><ellipse cx="418" cy="584.57" fill="#F1F1F1" rx="8" ry="8" style="stroke:#181818;stroke-width:0.5;"/><text fill="#000000" font-family="sans-serif" font-size="14" lengthAdjust="spacing" textLength="148" x="344" y="614.5651">127.0.0.1:8000-9000</text></g><!--entity de82fbad4c9eebe0bd6d2fe66a3fe0aa--><g id="elem_de82fbad4c9eebe0bd6d2fe66a3fe0aa"><rect fill="#F1F1F1" height="39.2969" rx="2.5" ry="2.5" style="stroke:#181818;stroke-width:0.5;" width="292" x="321" y="809.57"/><polygon fill="#F1F1F1" points="596,814.57,596,828.57,608,828.57,608,820.57,602,814.57,596,814.57" style="stroke:#181818;stroke-width:0.5;"/><line style="stroke:#181818;stroke-width:0.5;" x1="602" x2="602" y1="814.57" y2="820.57"/><line style="stroke:#181818;stroke-width:0.5;" x1="608" x2="602" y1="820.57" y2="820.57"/><text fill="#000000" font-family="sans-serif" font-size="14" lengthAdjust="spacing" textLength="262" x="331" y="835.5651">/etc/grafana/provisioning/datasources</text></g><!--entity cfb8a5b7ebe0f6a517a5ae436a93d5d8--><g id="elem_cfb8a5b7ebe0f6a517a5ae436a93d5d8"><rect fill="#F1F1F1" height="95.1875" rx="2.5" ry="2.5" style="stroke:#181818;stroke-width:0.5;" width="210" x="1310" y="78"/><rect fill="#F1F1F1" height="10" style="stroke:#181818;stroke-width:0.5;" width="15" x="1500" y="83"/><rect fill="#F1F1F1" height="2" style="stroke:#181818;stroke-width:0.5;" width="4" x="1498" y="85"/><rect fill="#F1F1F1" height="2" style="stroke:#181818;stroke-width:0.5;" width="4" x="1498" y="89"/><text fill="#000000" font-family="sans-serif" font-size="14" font-weight="bold" lengthAdjust="spacing" textLength="64" x="1325" y="110.9951">datadog</text><text fill="#000000" font-family="sans-serif" font-size="14" lengthAdjust="spacing" textLength="4" x="1325" y="127.292">&#160;</text><text fill="#000000" font-family="sans-serif" font-size="14" lengthAdjust="spacing" textLength="170" x="1325" y="143.5889">image: datadog/datadog</text><text fill="#000000" font-family="sans-serif" font-size="14" lengthAdjust="spacing" textLength="4" x="1325" y="159.8857">&#160;</text></g><!--entity d9fe74bd71c5f1efd83d8f6cfdd7bef5--><g id="elem_d9fe74bd71c5f1efd83d8f6cfdd7bef5"><polygon fill="#F1F1F1" points="511,104.3,521,94.3,625,94.3,625,146.8937,615,156.8937,511,156.8937,511,104.3" style="stroke:#181818;stroke-width:0.5;"/><line style="stroke:#181818;stroke-width:0.5;" x1="615" x2="625" y1="104.3" y2="94.3"/><line style="stroke:#181818;stroke-width:0.5;" x1="511" x2="615" y1="104.3" y2="104.3"/><line style="stroke:#181818;stroke-width:0.5;" x1="615" x2="615" y1="104.3" y2="156.8937"/><text fill="#000000" font-family="sans-serif" font-size="14" font-weight="bold" lengthAdjust="spacing" textLength="72" x="526" y="127.2951">front-tier</text><text fill="#000000" font-family="sans-serif" font-size="14" lengthAdjust="spacing" textLength="74" x="526" y="143.592">&#171;network&#187;</text></g><!--entity 21232f297a57a5a743894a0e4a801fc3--><g id="elem_21232f297a57a5a743894a0e4a801fc3"><polygon fill="#F1F1F1" points="993,104.3,1003,94.3,1107,94.3,1107,146.8937,1097,156.8937,993,156.8937,993,104.3" style="stroke:#181818;stroke-width:0.5;"/><line style="stroke:#181818;stroke-width:0.5;" x1="1097" x2="1107" y1="104.3" y2="94.3"/><line style="stroke:#181818;stroke-width:0.5;" x1="993" x2="1097" y1="104.3" y2="104.3"/><line style="stroke:#181818;stroke-width:0.5;" x1="1097" x2="1097" y1="104.3" y2="156.8937"/><text fill="#000000" font-family="sans-serif" font-size="14" font-weight="bold" lengthAdjust="spacing" textLength="47" x="1008" y="127.2951">admin</text><text fill="#000000" font-family="sans-serif" font-size="14" lengthAdjust="spacing" textLength="74" x="1008" y="143.592">&#171;network&#187;</text></g><!--entity 5e543256c480ac577d30f76f9120eb74--><g id="elem_5e543256c480ac577d30f76f9120eb74"><polygon fill="#F1F1F1" points="1142,104.3,1152,94.3,1262,94.3,1262,146.8937,1252,156.8937,1142,156.8937,1142,104.3" style="stroke:#181818;stroke-width:0.5;"/><line style="stroke:#181818;stroke-width:0.5;" x1="1252" x2="1262" y1="104.3" y2="94.3"/><line style="stroke:#181818;stroke-width:0.5;" x1="1142" x2="1252" y1="104.3" y2="104.3"/><line style="stroke:#181818;stroke-width:0.5;" x1="1252" x2="1252" y1="104.3" y2="156.8937"/><text fill="#000000" font-family="sans-serif" font-size="14" font-weight="bold" lengthAdjust="spacing" textLength="80" x="1157" y="127.2951">undefined</text><text fill="#000000" font-family="sans-serif" font-size="14" lengthAdjust="spacing" textLength="74" x="1157" y="143.592">&#171;network&#187;</text></g><!--entity 267de027b65a807d2138ee534426efa5--><g id="elem_267de027b65a807d2138ee534426efa5"><ellipse cx="707" cy="719.57" fill="#F1F1F1" rx="8" ry="8" style="stroke:#181818;stroke-width:0.5;"/><text fill="#000000" font-family="sans-serif" font-size="14" lengthAdjust="spacing" textLength="36" x="689" y="749.5651">9090</text></g><!--entity dba3f4d0bb5aa6fcfa18da2c1f7a9775--><g id="elem_dba3f4d0bb5aa6fcfa18da2c1f7a9775"><ellipse cx="15" cy="719.57" fill="#F1F1F1" rx="8" ry="8" style="stroke:#181818;stroke-width:0.5;"/><text fill="#000000" font-family="sans-serif" font-size="14" lengthAdjust="spacing" textLength="18" x="6" y="749.5651">80</text></g><!--entity 1624c420083928ef3e240dd88f2e52f0--><g id="elem_1624c420083928ef3e240dd88f2e52f0"><ellipse cx="104" cy="719.57" fill="#F1F1F1" rx="8" ry="8" style="stroke:#181818;stroke-width:0.5;"/><text fill="#000000" font-family="sans-serif" font-size="14" lengthAdjust="spacing" textLength="36" x="86" y="749.5651">8000</text></g><!--entity 2a4ddbecb762532586835d0f37d85eaf--><g id="elem_2a4ddbecb762532586835d0f37d85eaf"><rect fill="#F1F1F1" height="39.2969" rx="2.5" ry="2.5" style="stroke:#181818;stroke-width:0.5;" width="124" x="949" y="943.86"/><polygon fill="#F1F1F1" points="1056,948.86,1056,962.86,1068,962.86,1068,954.86,1062,948.86,1056,948.86" style="stroke:#181818;stroke-width:0.5;"/><line style="stroke:#181818;stroke-width:0.5;" x1="1062" x2="1062" y1="948.86" y2="954.86"/><line style="stroke:#181818;stroke-width:0.5;" x1="1068" x2="1062" y1="954.86" y2="954.86"/><text fill="#000000" font-family="sans-serif" font-size="14" lengthAdjust="spacing" textLength="94" x="959" y="969.8551">./prometheus</text></g><!--entity a1448c8b5db83ada398e734ef1d3277c--><g id="elem_a1448c8b5db83ada398e734ef1d3277c"><rect fill="#F1F1F1" height="39.2969" rx="2.5" ry="2.5" style="stroke:#181818;stroke-width:0.5;" width="103" x="790.5" y="943.86"/><polygon fill="#F1F1F1" points="876.5,948.86,876.5,962.86,888.5,962.86,888.5,954.86,882.5,948.86,876.5,948.86" style="stroke:#181818;stroke-width:0.5;"/><line style="stroke:#181818;stroke-width:0.5;" x1="882.5" x2="882.5" y1="948.86" y2="954.86"/><line style="stroke:#181818;stroke-width:0.5;" x1="888.5" x2="882.5" y1="954.86" y2="954.86"/><text fill="#000000" font-family="sans-serif" font-size="14" lengthAdjust="spacing" textLength="73" x="800.5" y="969.8551">prom_data</text></g><!--entity eec695b1c6be435e7982afe506db7e49--><g id="elem_eec695b1c6be435e7982afe506db7e49"><rect fill="#F1F1F1" height="39.2969" rx="2.5" ry="2.5" style="stroke:#181818;stroke-width:0.5;" width="90" x="422" y="943.86"/><polygon fill="#F1F1F1" points="495,948.86,495,962.86,507,962.86,507,954.86,501,948.86,495,948.86" style="stroke:#181818;stroke-width:0.5;"/><line style="stroke:#181818;stroke-width:0.5;" x1="501" x2="501" y1="948.86" y2="954.86"/><line style="stroke:#181818;stroke-width:0.5;" x1="507" x2="501" y1="954.86" y2="954.86"/><text fill="#000000" font-family="sans-serif" font-size="14" lengthAdjust="spacing" textLength="60" x="432" y="969.8551">./grafana</text></g><!--class cab64c5af73a02ce213c72c614ccdc8f--><g id="elem_cab64c5af73a02ce213c72c614ccdc8f"><rect fill="#F1F1F1" height="48" id="cab64c5af73a02ce213c72c614ccdc8f" rx="2.5" ry="2.5" style="stroke:#181818;stroke-width:0.5;" width="299" x="659.5" y="101.6"/><ellipse cx="674.5" cy="117.6" fill="#ADD1B2" rx="11" ry="11" style="stroke:#181818;stroke-width:1.0;"/><path d="M677.4688,123.2406 Q676.8906,123.5375 676.25,123.6781 Q675.6094,123.8344 674.9063,123.8344 Q672.4063,123.8344 671.0781,122.1938 Q669.7656,120.5375 669.7656,117.4125 Q669.7656,114.2875 671.0781,112.6313 Q672.4063,110.975 674.9063,110.975 Q675.6094,110.975 676.25,111.1313 Q676.9063,111.2875 677.4688,111.5844 L677.4688,114.3031 Q676.8438,113.725 676.25,113.4594 Q675.6563,113.1781 675.0313,113.1781 Q673.6875,113.1781 673,114.2563 Q672.3125,115.3188 672.3125,117.4125 Q672.3125,119.5063 673,120.5844 Q673.6875,121.6469 675.0313,121.6469 Q675.6563,121.6469 676.25,121.3813 Q676.8438,121.1 677.4688,120.5219 L677.4688,123.2406 Z " fill="#000000"/><text fill="#000000" font-family="sans-serif" font-size="14" lengthAdjust="spacing" textLength="267" x="688.5" y="122.4467">cab64c5af73a02ce213c72c614ccdc8f</text><line style="stroke:#181818;stroke-width:0.5;" x1="660.5" x2="957.5" y1="133.6" y2="133.6"/><line style="stroke:#181818;stroke-width:0.5;" x1="660.5" x2="957.5" y1="141.6" y2="141.6"/></g><!--entity 273162d7a19ed598d0437b147194b54f--><g id="elem_273162d7a19ed598d0437b147194b54f"><rect fill="#F1F1F1" height="39.2969" rx="2.5" ry="2.5" style="stroke:#181818;stroke-width:0.5;" width="56" x="1144" y="394.73"/><polygon fill="#F1F1F1" points="1183,399.73,1183,413.73,1195,413.73,1195,405.73,1189,399.73,1183,399.73" style="stroke:#181818;stroke-width:0.5;"/><line style="stroke:#181818;stroke-width:0.5;" x1="1189" x2="1189" y1="399.73" y2="405.73"/><line style="stroke:#181818;stroke-width:0.5;" x1="1195" x2="1189" y1="405.73" y2="405.73"/><text fill="#000000" font-family="sans-serif" font-size="14" lengthAdjust="spacing" textLength="26" x="1154" y="420.7251">text</text></g><!--entity 52e5ecd9bfa62ccbacb5793dff132c40--><g id="elem_52e5ecd9bfa62ccbacb5793dff132c40"><rect fill="#F1F1F1" height="78.8906" rx="2.5" ry="2.5" style="stroke:#181818;stroke-width:0.5;" width="75" x="1590.5" y="86.15"/><rect fill="#F1F1F1" height="10" style="stroke:#181818;stroke-width:0.5;" width="15" x="1645.5" y="91.15"/><rect fill="#F1F1F1" height="2" style="stroke:#181818;stroke-width:0.5;" width="4" x="1643.5" y="93.15"/><rect fill="#F1F1F1" height="2" style="stroke:#181818;stroke-width:0.5;" width="4" x="1643.5" y="97.15"/><text fill="#000000" font-family="sans-serif" font-size="14" font-weight="bold" lengthAdjust="spacing" textLength="35" x="1605.5" y="119.1451">Text</text><text fill="#000000" font-family="sans-serif" font-size="14" lengthAdjust="spacing" textLength="4" x="1605.5" y="135.442">&#160;</text><text fill="#000000" font-family="sans-serif" font-size="14" lengthAdjust="spacing" textLength="4" x="1605.5" y="151.7389">&#160;</text></g><!--link b0b6236e8ab49920c48d10f339f1a86a to cfd4d43463526be4db6bd372951d8018--><g id="link_b0b6236e8ab49920c48d10f339f1a86a_cfd4d43463526be4db6bd372951d8018"><path codeLine="46" d="M867.1,470.45 C850.3,509.15 829.44,557.21 821.39,575.76 " fill="none" id="b0b6236e8ab49920c48d10f339f1a86a-cfd4d43463526be4db6bd372951d8018" style="stroke:#181818;stroke-width:1.0;"/></g><!--link cfd4d43463526be4db6bd372951d8018 to 267de027b65a807d2138ee534426efa5--><g id="link_cfd4d43463526be4db6bd372951d8018_267de027b65a807d2138ee534426efa5"><path codeLine="47" d="M811.39,593.49 C791.6,617.2 733,687.42 713.44,710.85 " fill="none" id="cfd4d43463526be4db6bd372951d8018-267de027b65a807d2138ee534426efa5" style="stroke:#181818;stroke-width:1.0;"/></g><!--link b8365f95fd8d51fff10d734d11af5400 to 2a4ddbecb762532586835d0f37d85eaf--><g id="link_b8365f95fd8d51fff10d734d11af5400_2a4ddbecb762532586835d0f37d85eaf"><path codeLine="48" d="M1011,849.17 C1011,874.32 1011,918.46 1011,943.59 " fill="none" id="b8365f95fd8d51fff10d734d11af5400-2a4ddbecb762532586835d0f37d85eaf" style="stroke:#181818;stroke-width:1.0;"/><text fill="#000000" font-family="sans-serif" font-size="13" lengthAdjust="spacing" textLength="13" x="1012" y="909.9269">ro</text></g><!--link b0b6236e8ab49920c48d10f339f1a86a to b8365f95fd8d51fff10d734d11af5400--><g id="link_b0b6236e8ab49920c48d10f339f1a86a_b8365f95fd8d51fff10d734d11af5400"><path codeLine="49" d="M906.94,470.2 C934.09,563.64 986.425,743.6686 1003.805,803.4486 " fill="none" id="b0b6236e8ab49920c48d10f339f1a86a-to-b8365f95fd8d51fff10d734d11af5400" style="stroke:#181818;stroke-width:1.0;stroke-dasharray:7.0,7.0;"/><polygon fill="#181818" points="1005.48,809.21,1006.8084,799.4511,1004.0841,804.4088,999.1265,801.6845,1005.48,809.21" style="stroke:#181818;stroke-width:1.0;"/><text fill="#000000" font-family="sans-serif" font-size="13" lengthAdjust="spacing" textLength="23" x="963" y="656.6369">use</text></g><!--link 66ea46159f158592d153eec2b58bfad1 to a1448c8b5db83ada398e734ef1d3277c--><g id="link_66ea46159f158592d153eec2b58bfad1_a1448c8b5db83ada398e734ef1d3277c"><path codeLine="50" d="M842,849.17 C842,874.32 842,918.46 842,943.59 " fill="none" id="66ea46159f158592d153eec2b58bfad1-a1448c8b5db83ada398e734ef1d3277c" style="stroke:#181818;stroke-width:1.0;"/><text fill="#000000" font-family="sans-serif" font-size="13" lengthAdjust="spacing" textLength="14" x="843" y="909.9269">rw</text></g><!--link b0b6236e8ab49920c48d10f339f1a86a to 66ea46159f158592d153eec2b58bfad1--><g id="link_b0b6236e8ab49920c48d10f339f1a86a_66ea46159f158592d153eec2b58bfad1"><path codeLine="51" d="M884.49,470.2 C873.4,563.64 852.0567,743.4718 844.9667,803.2518 " fill="none" id="b0b6236e8ab49920c48d10f339f1a86a-to-66ea46159f158592d153eec2b58bfad1" style="stroke:#181818;stroke-width:1.0;stroke-dasharray:7.0,7.0;"/><polygon fill="#181818" points="844.26,809.21,849.2921,800.7437,844.8489,804.2448,841.3478,799.8015,844.26,809.21" style="stroke:#181818;stroke-width:1.0;"/><text fill="#000000" font-family="sans-serif" font-size="13" lengthAdjust="spacing" textLength="23" x="864" y="656.6369">use</text></g><!--reverse link cab64c5af73a02ce213c72c614ccdc8f to e4f00638b8a10e6994e67af2f832d51c--><g id="link_cab64c5af73a02ce213c72c614ccdc8f_e4f00638b8a10e6994e67af2f832d51c"><path codeLine="52" d="M828.6227,154.8604 C848.5227,181.7104 881.61,219.55 925,238.19 C942.99,245.92 1087.14,232.37 1101,246.19 C1107.48,252.655 1111.255,266.0631 1113.2639,282.6056 C1113.3895,283.6395 1113.5081,284.6857 1113.6201,285.7431 C1113.6481,286.0075 1113.6757,286.2726 1113.7029,286.5383 " fill="none" id="cab64c5af73a02ce213c72c614ccdc8f-backto-e4f00638b8a10e6994e67af2f832d51c" style="stroke:#181818;stroke-width:1.0;"/><polygon fill="#181818" points="825.05,150.04,827.1954,159.6524,828.0272,154.057,833.6226,154.8888,825.05,150.04" style="stroke:#181818;stroke-width:1.0;"/><text fill="#000000" font-family="sans-serif" font-size="13" lengthAdjust="spacing" textLength="109" x="926" y="234.2569">alias:['database']</text></g><!--reverse link 21232f297a57a5a743894a0e4a801fc3 to e4f00638b8a10e6994e67af2f832d51c--><g id="link_21232f297a57a5a743894a0e4a801fc3_e4f00638b8a10e6994e67af2f832d51c"><path codeLine="53" d="M1048.563,163.2561 C1047.893,181.7661 1047.34,199.83 1047,221.19 C1046.88,228.75 1042.06,232.47 1047,238.19 C1062.85,256.56 1084.72,228.21 1101,246.19 C1125.575,273.335 1127.8975,314.26 1123.9188,348.825 C1122.9241,357.4662 1121.5355,365.71 1120.0024,373.2416 C1119.2359,377.0073 1118.4332,380.5951 1117.6255,383.9654 C1117.4236,384.808 1117.2213,385.637 1117.0193,386.4518 " fill="none" id="21232f297a57a5a743894a0e4a801fc3-backto-e4f00638b8a10e6994e67af2f832d51c" style="stroke:#181818;stroke-width:1.0;"/><polygon fill="#181818" points="1048.78,157.26,1044.4571,166.1094,1048.5991,162.2567,1052.4518,166.3988,1048.78,157.26" style="stroke:#181818;stroke-width:1.0;"/><text fill="#000000" font-family="sans-serif" font-size="13" lengthAdjust="spacing" textLength="87" x="1048" y="234.2569">alias:['mysql']</text></g><!--reverse link 5e543256c480ac577d30f76f9120eb74 to e4f00638b8a10e6994e67af2f832d51c--><g id="link_5e543256c480ac577d30f76f9120eb74_e4f00638b8a10e6994e67af2f832d51c"><path codeLine="54" d="M1194.0967,163.0955 C1187.3667,188.2055 1175.86,217.1 1152,238.19 C1142.94,246.2 1133.67,236.84 1126,246.19 C1120.1725,253.2975 1116.1838,267.0319 1113.4817,283.7011 C1113.3973,284.222 1113.3141,284.7458 1113.2322,285.2723 C1113.1912,285.5356 1113.1505,285.7995 1113.1102,286.0642 " fill="none" id="5e543256c480ac577d30f76f9120eb74-backto-e4f00638b8a10e6994e67af2f832d51c" style="stroke:#181818;stroke-width:1.0;"/><polygon fill="#181818" points="1195.65,157.3,1189.4564,164.9576,1194.3556,162.1295,1197.1837,167.0287,1195.65,157.3" style="stroke:#181818;stroke-width:1.0;"/><text fill="#000000" font-family="sans-serif" font-size="13" lengthAdjust="spacing" textLength="105" x="1166" y="234.2569">alias:['unknown']</text></g><!--link ca625ae68e4d4a58f9ba859ff3420557 to 9f18a5ea59196197837bdbfebede13e8--><g id="link_ca625ae68e4d4a58f9ba859ff3420557_9f18a5ea59196197837bdbfebede13e8"><path codeLine="55" d="M322.11,495.04 C291.87,527.64 260.8,561.14 247.16,575.85 " fill="none" id="ca625ae68e4d4a58f9ba859ff3420557-9f18a5ea59196197837bdbfebede13e8" style="stroke:#181818;stroke-width:1.0;"/></g><!--link 9f18a5ea59196197837bdbfebede13e8 to dba3f4d0bb5aa6fcfa18da2c1f7a9775--><g id="link_9f18a5ea59196197837bdbfebede13e8_dba3f4d0bb5aa6fcfa18da2c1f7a9775"><path codeLine="56" d="M231.36,585.37 C200.65,585.16 95.53,588.64 39,643.57 C19.98,662.05 16,695.59 15.19,710.75 " fill="none" id="9f18a5ea59196197837bdbfebede13e8-dba3f4d0bb5aa6fcfa18da2c1f7a9775" style="stroke:#181818;stroke-width:1.0;"/><text fill="#000000" font-family="sans-serif" font-size="13" lengthAdjust="spacing" textLength="20" x="40" y="656.6369">tcp</text></g><!--link ca625ae68e4d4a58f9ba859ff3420557 to e5b1c7fcc1453c77b2f0388027659c6e--><g id="link_ca625ae68e4d4a58f9ba859ff3420557_e5b1c7fcc1453c77b2f0388027659c6e"><path codeLine="57" d="M406.42,495.04 C410.68,527.64 415.07,561.14 416.99,575.85 " fill="none" id="ca625ae68e4d4a58f9ba859ff3420557-e5b1c7fcc1453c77b2f0388027659c6e" style="stroke:#181818;stroke-width:1.0;"/></g><!--link e5b1c7fcc1453c77b2f0388027659c6e to 1624c420083928ef3e240dd88f2e52f0--><g id="link_e5b1c7fcc1453c77b2f0388027659c6e_1624c420083928ef3e240dd88f2e52f0"><path codeLine="58" d="M409.12,589.03 C376.25,601.88 258.43,648.31 163,690.57 C144.96,698.55 124.19,708.62 112.73,714.25 " fill="none" id="e5b1c7fcc1453c77b2f0388027659c6e-1624c420083928ef3e240dd88f2e52f0" style="stroke:#181818;stroke-width:1.0;"/><text fill="#000000" font-family="sans-serif" font-size="13" lengthAdjust="spacing" textLength="20" x="269" y="656.6369">tcp</text></g><!--link de82fbad4c9eebe0bd6d2fe66a3fe0aa to eec695b1c6be435e7982afe506db7e49--><g id="link_de82fbad4c9eebe0bd6d2fe66a3fe0aa_eec695b1c6be435e7982afe506db7e49"><path codeLine="59" d="M467,849.17 C467,874.32 467,918.46 467,943.59 " fill="none" id="de82fbad4c9eebe0bd6d2fe66a3fe0aa-eec695b1c6be435e7982afe506db7e49" style="stroke:#181818;stroke-width:1.0;"/><text fill="#000000" font-family="sans-serif" font-size="13" lengthAdjust="spacing" textLength="13" x="468" y="909.9269">ro</text></g><!--link ca625ae68e4d4a58f9ba859ff3420557 to de82fbad4c9eebe0bd6d2fe66a3fe0aa--><g id="link_ca625ae68e4d4a58f9ba859ff3420557_de82fbad4c9eebe0bd6d2fe66a3fe0aa"><path codeLine="60" d="M481.86,494.82 C496.65,513.2 509.86,533.81 518,555.57 C552.09,646.67 503.3659,758.4201 480.1359,803.7601 " fill="none" id="ca625ae68e4d4a58f9ba859ff3420557-to-de82fbad4c9eebe0bd6d2fe66a3fe0aa" style="stroke:#181818;stroke-width:1.0;stroke-dasharray:7.0,7.0;"/><polygon fill="#181818" points="477.4,809.1,485.0638,802.9141,479.6799,804.6501,477.9439,799.2662,477.4,809.1" style="stroke:#181818;stroke-width:1.0;"/><text fill="#000000" font-family="sans-serif" font-size="13" lengthAdjust="spacing" textLength="23" x="529" y="656.6369">use</text></g><!--reverse link d9fe74bd71c5f1efd83d8f6cfdd7bef5 to d9c0e52dd15274d51041b489c7cea0ad--><g id="link_d9fe74bd71c5f1efd83d8f6cfdd7bef5_d9c0e52dd15274d51041b489c7cea0ad"><path codeLine="61" d="M590.6172,162.4368 C604.5472,185.8568 619.39,214.28 629,246.19 C630.3263,250.5956 631.5612,255.092 632.7111,259.6513 C632.8548,260.2212 632.9972,260.7921 633.1383,261.3639 " fill="none" id="d9fe74bd71c5f1efd83d8f6cfdd7bef5-backto-d9c0e52dd15274d51041b489c7cea0ad" style="stroke:#181818;stroke-width:1.0;"/><polygon fill="#181818" points="587.55,157.28,588.713,167.06,590.106,161.5773,595.5886,162.9704,587.55,157.28" style="stroke:#181818;stroke-width:1.0;"/><text fill="#000000" font-family="sans-serif" font-size="13" lengthAdjust="spacing" textLength="60" x="626" y="234.2569">alias:['ui']</text></g><!--reverse link cab64c5af73a02ce213c72c614ccdc8f to d9c0e52dd15274d51041b489c7cea0ad--><g id="link_cab64c5af73a02ce213c72c614ccdc8f_d9c0e52dd15274d51041b489c7cea0ad"><path codeLine="62" d="M792.8828,155.3019 C773.9578,189.0119 740.79,248.0925 709.0013,304.7175 C693.1069,333.03 678.2916,359.4206 667.2423,379.1031 C664.48,384.0237 661.9531,388.5251 659.7036,392.5324 C658.5788,394.5361 657.5233,396.4163 656.5425,398.1635 C656.4199,398.382 656.2984,398.5983 656.1782,398.8125 " fill="none" id="cab64c5af73a02ce213c72c614ccdc8f-backto-d9c0e52dd15274d51041b489c7cea0ad" style="stroke:#181818;stroke-width:1.0;"/><polygon fill="#181818" points="795.82,150.07,787.9262,155.9597,793.3723,154.4299,794.9021,159.876,795.82,150.07" style="stroke:#181818;stroke-width:1.0;"/></g><!--link d9c0e52dd15274d51041b489c7cea0ad to 273162d7a19ed598d0437b147194b54f--><g id="link_d9c0e52dd15274d51041b489c7cea0ad_273162d7a19ed598d0437b147194b54f"><path codeLine="64" d="M656.1937,397.2108 C656.2733,397.0553 656.3535,396.899 656.4342,396.7419 C657.0802,395.4847 657.7621,394.1742 658.4795,392.815 C664.2191,381.9412 672.2331,367.95 682.3163,353.225 C702.4825,323.775 730.925,291.39 766,275.14 C838.39,241.6 1060.19,228.61 1125,275.14 C1163.24,302.59 1170.77,362.8 1172,394.29 " fill="none" id="d9c0e52dd15274d51041b489c7cea0ad-273162d7a19ed598d0437b147194b54f" style="stroke:#181818;stroke-width:1.0;"/></g><!--link 587516af1efac0b9293f31639c6c31f3 to 52e5ecd9bfa62ccbacb5793dff132c40--><g id="link_587516af1efac0b9293f31639c6c31f3_52e5ecd9bfa62ccbacb5793dff132c40"><path codeLine="70" d="M1563.0766,125.6 C1563.1164,125.6 1563.1562,125.6 1563.1962,125.6 C1563.516,125.6 1563.8434,125.6 1564.1779,125.6 C1565.5159,125.6 1566.9684,125.6 1568.5138,125.6 C1574.695,125.6 1582.36,125.6 1590.11,125.6 " fill="none" id="587516af1efac0b9293f31639c6c31f3-52e5ecd9bfa62ccbacb5793dff132c40" style="stroke:#181818;stroke-width:1.0;"/></g><!--SRC=[ZLPRQnjN47xVNx7e9Qr0yhbVH688THhoq3JO2Q6amSmvCySLiNPTxIfEAVdlFRkwM7O3HqX8i9hvvlBDV2EulMtlLyjlo-QcQbgaUZATfdNRzBD-IUlfzC_c-VE6-ljs_UNyV593LwDFP5L0owDEd18wYIwPc11jeAGFC82hPVCZ1C6554bu2pg_mIhfl0962XpZASe3mgP1Iik6y4SechIIGfke78EehKN9aZN9Sy4eMBL3URTkLzJ_HPjkz2AL63FI1GUSaV5UaR6GH79IeEQn_hUgOxkwQnjg-ZgmO8Gqv20exmNBiP2p9ALF79o1-bCrdTuT8aodLRLSmGqjwk7XsSClrPgw7jRzejuqjzHriwvlx-u8g-fpzTFFzSGppyRySXiLAgcCrC84KXXCG6c5rnnpTroLGPO9ObzFpgYFHo56z-2aqSdhp4gk9gN46Lgfa7D8MZ5sxFx4rHW2PRZEfMcdlK2k9L4KGRkG07drVTVHrsj8qC1k628ZBJ0R2wjoIAPuKCv76maOuEDsHZ120ncNwrAWNV81SgYKf19CQpksysOBVzJBtPEptVT3Bz- - -dXe93LVbtbkLpdEedxzw_NLgry-NBvv_yVroulVthoz_d3rwlB5E94botSlhwu-_dvvyM8VhgTlsL3igUB2pbb-yOLZRajQRfa3JQ0zzuPxwwGD6185GkAItF_y69lv_B6TI1ruj2b6hhICrWQHc7IE2MkqZuQUChxlHgRlwx9RjarUtJE47hfsiuwq9HF9YHG0LVIKqs013Of4ne1Cn00EP5vaHsnljXlbhEO6XgM6o88NNYR9ZSnPHCcJV49coZkaWntWam7DXrqc9GruYHhTI2PkuO_8t3qvstqFNVt-U0M4iKYv_61q5WIBWaj7fALImkJCz6Yzwpo6N9125e86C2acu0v1H9uiU6ltjhjMSoDKpAF6dFJ2KP8a54DqBeaynEbuE-PFrqE0GWmKWyqpd7N76ISrPYsmw3BrwSXtyBmUwXiTWIlbeWiQyt82WlIEyafIuYY5jV5Hq9kZtShBP_mm78CEI4tMEm69D3EOkwvyLLId6SxAWb8o656Ad9I4PujIw66zg2VhTb8kR3x7-Voyg7O3tgQZILNIjZ6x4b5ZTlUdPrSCki-kU9Dcczbv5izWLDIGh0Gc8cKAeXNHS1KZHZSs3swNq2q-FHk6Bq17ppwVYbwwoSVegt-wlszFXouTwcFeJVEbQU-R0RnuB0REYifRCXXHIYeoPDZ7knDpAWfwoM14AMdL8QUIr6zpAcZ9VlEA1UvcknXqFzl5FmZZY9J-KpuQaUKm7QVXbdRcI7k7AxyLUfjlda0Bt1Dgxv2fF3DSMUvLq2gT4BgCyN16TQQJ8lei2KR46206RVC5pM8cHLHiFAFlStB33St7idYaPqN8_m00]--></g></svg>