<svg xmlns="http://www.w3.org/2000/svg" xmlns:xlink="http://www.w3.org/1999/xlink" contentStyleType="text/css" height="989px" preserveAspectRatio="none" style="width:1583px;height:989px;background:#FFFFFF;" version="1.1" viewBox="0 0 1583 989" width="1583px" zoomAndPan="magnify"><defs/><g><!--cluster e4f00638b8a10e6994e67af2f832d51c--><g id="cluster_e4f00638b8a10e6994e67af2f832d51c"><polygon fill="none" points="16,296.64,26,286.64,375,286.64,375,862.86,365,872.86,16,872.86,16,296.64" style="stroke:#181818;stroke-width:1.0;"/><line style="stroke:#181818;stroke-width:1.0;" x1="365" x2="375" y1="296.64" y2="286.64"/><line style="stroke:#181818;stroke-width:1.0;" x1="16" x2="365" y1="296.64" y2="296.64"/><line style="stroke:#181818;stroke-width:1.0;" x1="365" x2="365" y1="296.64" y2="872.86"/><text fill="#000000" font-family="sans-serif" font-size="14" font-weight="bold" lengthAdjust="spacing" textLength="96" x="143.5" y="312.6351">Prometheus</text></g><!--cluster d9c0e52dd15274d51041b489c7cea0ad--><g id="cluster_d9c0e52dd15274d51041b489c7cea0ad"><polygon fill="none" points="566,272.19,576,262.19,1067,262.19,1067,862.86,1057,872.86,566,872.86,566,272.19" style="stroke:#181818;stroke-width:1.0;"/><line style="stroke:#181818;stroke-width:1.0;" x1="1057" x2="1067" y1="272.19" y2="262.19"/><line style="stroke:#181818;stroke-width:1.0;" x1="566" x2="1057" y1="272.19" y2="272.19"/><line style="stroke:#181818;stroke-width:1.0;" x1="1057" x2="1057" y1="272.19" y2="872.86"/><text fill="#000000" font-family="sans-serif" font-size="14" font-weight="bold" lengthAdjust="spacing" textLength="62" x="781.5" y="288.1851">Grafana</text></g><!--cluster 587516af1efac0b9293f31639c6c31f3--><g id="cluster_587516af1efac0b9293f31639c6c31f3"><polygon fill="none" points="1289,16,1299,6,1566,6,1566,187.19,1556,197.19,1289,197.19,1289,16" style="stroke:#181818;stroke-width:1.0;"/><line style="stroke:#181818;stroke-width:1.0;" x1="1556" x2="1566" y1="16" y2="6"/><line style="stroke:#181818;stroke-width:1.0;" x1="1289" x2="1556" y1="16" y2="16"/><line style="stroke:#181818;stroke-width:1.0;" x1="1556" x2="1556" y1="16" y2="197.19"/><text fill="#000000" font-family="sans-serif" font-size="14" font-weight="bold" lengthAdjust="spacing" textLength="65" x="1391" y="31.9951">Datadog</text></g><!--entity b0b6236e8ab49920c48d10f339f1a86a--><g id="elem_b0b6236e8ab49920c48d10f339f1a86a"><rect fill="#F1F1F1" height="111.4844" rx="2.5" ry="2.5" style="stroke:#181818;stroke-width:0.5;" width="248" x="84" y="358.64"/><rect fill="#F1F1F1" height="10" style="stroke:#181818;stroke-width:0.5;" width="15" x="312" y="363.64"/><rect fill="#F1F1F1" height="2" style="stroke:#181818;stroke-width:0.5;" width="4" x="310" y="365.64"/><rect fill="#F1F1F1" height="2" style="stroke:#181818;stroke-width:0.5;" width="4" x="310" y="369.64"/><text fill="#000000" font-family="sans-serif" font-size="14" font-weight="bold" lengthAdjust="spacing" textLength="96" x="99" y="391.6351">prometheus</text><text fill="#000000" font-family="sans-serif" font-size="14" lengthAdjust="spacing" textLength="4" x="99" y="407.932">&#160;</text><text fill="#000000" font-family="sans-serif" font-size="14" lengthAdjust="spacing" textLength="208" x="99" y="424.2289">image: prom/prometheus.png</text><text fill="#000000" font-family="sans-serif" font-size="14" lengthAdjust="spacing" textLength="163" x="99" y="440.5257">restart: unless-stopped</text><text fill="#000000" font-family="sans-serif" font-size="14" lengthAdjust="spacing" textLength="4" x="99" y="456.8226">&#160;</text></g><!--entity cfd4d43463526be4db6bd372951d8018--><g id="elem_cfd4d43463526be4db6bd372951d8018"><ellipse cx="304" cy="584.57" fill="#F1F1F1" rx="8" ry="8" style="stroke:#181818;stroke-width:0.5;"/><text fill="#000000" font-family="sans-serif" font-size="14" lengthAdjust="spacing" textLength="36" x="286" y="614.5651">9090</text></g><!--entity b8365f95fd8d51fff10d734d11af5400--><g id="elem_b8365f95fd8d51fff10d734d11af5400"><rect fill="#F1F1F1" height="39.2969" rx="2.5" ry="2.5" style="stroke:#181818;stroke-width:0.5;" width="147" x="195.5" y="809.57"/><polygon fill="#F1F1F1" points="325.5,814.57,325.5,828.57,337.5,828.57,337.5,820.57,331.5,814.57,325.5,814.57" style="stroke:#181818;stroke-width:0.5;"/><line style="stroke:#181818;stroke-width:0.5;" x1="331.5" x2="331.5" y1="814.57" y2="820.57"/><line style="stroke:#181818;stroke-width:0.5;" x1="337.5" x2="331.5" y1="820.57" y2="820.57"/><text fill="#000000" font-family="sans-serif" font-size="14" lengthAdjust="spacing" textLength="117" x="205.5" y="835.5651">/etc/prometheus</text></g><!--entity 66ea46159f158592d153eec2b58bfad1--><g id="elem_66ea46159f158592d153eec2b58bfad1"><rect fill="#F1F1F1" height="39.2969" rx="2.5" ry="2.5" style="stroke:#181818;stroke-width:0.5;" width="120" x="40" y="809.57"/><polygon fill="#F1F1F1" points="143,814.57,143,828.57,155,828.57,155,820.57,149,814.57,143,814.57" style="stroke:#181818;stroke-width:0.5;"/><line style="stroke:#181818;stroke-width:0.5;" x1="149" x2="149" y1="814.57" y2="820.57"/><line style="stroke:#181818;stroke-width:0.5;" x1="155" x2="149" y1="820.57" y2="820.57"/><text fill="#000000" font-family="sans-serif" font-size="14" lengthAdjust="spacing" textLength="90" x="50" y="835.5651">/prometheus</text></g><!--entity ca625ae68e4d4a58f9ba859ff3420557--><g id="elem_ca625ae68e4d4a58f9ba859ff3420557"><rect fill="#F1F1F1" height="160.375" rx="2.5" ry="2.5" style="stroke:#181818;stroke-width:0.5;" width="434" x="590" y="334.19"/><rect fill="#F1F1F1" height="10" style="stroke:#181818;stroke-width:0.5;" width="15" x="1004" y="339.19"/><rect fill="#F1F1F1" height="2" style="stroke:#181818;stroke-width:0.5;" width="4" x="1002" y="341.19"/><rect fill="#F1F1F1" height="2" style="stroke:#181818;stroke-width:0.5;" width="4" x="1002" y="345.19"/><text fill="#000000" font-family="sans-serif" font-size="14" font-weight="bold" lengthAdjust="spacing" textLength="60" x="605" y="367.1851">grafana</text><text fill="#000000" font-family="sans-serif" font-size="14" lengthAdjust="spacing" textLength="4" x="605" y="383.482">&#160;</text><text fill="#000000" font-family="sans-serif" font-size="14" lengthAdjust="spacing" textLength="158" x="605" y="399.7789">image: grafana/grafana</text><text fill="#000000" font-family="sans-serif" font-size="14" lengthAdjust="spacing" textLength="163" x="605" y="416.0757">restart: unless-stopped</text><text fill="#000000" font-family="sans-serif" font-size="14" lengthAdjust="spacing" textLength="342" x="605" y="432.3726">environment: GF_SECURITY_ADMIN_USER=admin</text><text fill="#000000" font-family="sans-serif" font-size="14" lengthAdjust="spacing" textLength="394" x="605" y="448.6695">environment: GF_SECURITY_ADMIN_PASSWORD=grafana</text><text fill="#000000" font-family="sans-serif" font-size="14" lengthAdjust="spacing" textLength="61" x="605" y="464.9664">text: text</text><text fill="#000000" font-family="sans-serif" font-size="14" lengthAdjust="spacing" textLength="4" x="605" y="481.2632">&#160;</text></g><!--entity 9f18a5ea59196197837bdbfebede13e8--><g id="elem_9f18a5ea59196197837bdbfebede13e8"><ellipse cx="934" cy="584.57" fill="#F1F1F1" rx="8" ry="8" style="stroke:#181818;stroke-width:0.5;"/><text fill="#000000" font-family="sans-serif" font-size="14" lengthAdjust="spacing" textLength="107" x="880.5" y="614.5651">127.0.0.1:8080</text></g><!--entity e5b1c7fcc1453c77b2f0388027659c6e--><g id="elem_e5b1c7fcc1453c77b2f0388027659c6e"><ellipse cx="681" cy="584.57" fill="#F1F1F1" rx="8" ry="8" style="stroke:#181818;stroke-width:0.5;"/><text fill="#000000" font-family="sans-serif" font-size="14" lengthAdjust="spacing" textLength="148" x="607" y="614.5651">127.0.0.1:8000-9000</text></g><!--entity de82fbad4c9eebe0bd6d2fe66a3fe0aa--><g id="elem_de82fbad4c9eebe0bd6d2fe66a3fe0aa"><rect fill="#F1F1F1" height="39.2969" rx="2.5" ry="2.5" style="stroke:#181818;stroke-width:0.5;" width="292" x="661" y="809.57"/><polygon fill="#F1F1F1" points="936,814.57,936,828.57,948,828.57,948,820.57,942,814.57,936,814.57" style="stroke:#181818;stroke-width:0.5;"/><line style="stroke:#181818;stroke-width:0.5;" x1="942" x2="942" y1="814.57" y2="820.57"/><line style="stroke:#181818;stroke-width:0.5;" x1="948" x2="942" y1="820.57" y2="820.57"/><text fill="#000000" font-family="sans-serif" font-size="14" lengthAdjust="spacing" textLength="262" x="671" y="835.5651">/etc/grafana/provisioning/datasources</text></g><!--entity cfb8a5b7ebe0f6a517a5ae436a93d5d8--><g id="elem_cfb8a5b7ebe0f6a517a5ae436a93d5d8"><rect fill="#F1F1F1" height="95.1875" rx="2.5" ry="2.5" style="stroke:#181818;stroke-width:0.5;" width="210" x="1313" y="78"/><rect fill="#F1F1F1" height="10" style="stroke:#181818;stroke-width:0.5;" width="15" x="1503" y="83"/><rect fill="#F1F1F1" height="2" style="stroke:#181818;stroke-width:0.5;" width="4" x="1501" y="85"/><rect fill="#F1F1F1" height="2" style="stroke:#181818;stroke-width:0.5;" width="4" x="1501" y="89"/><text fill="#000000" font-family="sans-serif" font-size="14" font-weight="bold" lengthAdjust="spacing" textLength="64" x="1328" y="110.9951">datadog</text><text fill="#000000" font-family="sans-serif" font-size="14" lengthAdjust="spacing" textLength="4" x="1328" y="127.292">&#160;</text><text fill="#000000" font-family="sans-serif" font-size="14" lengthAdjust="spacing" textLength="170" x="1328" y="143.5889">image: datadog/datadog</text><text fill="#000000" font-family="sans-serif" font-size="14" lengthAdjust="spacing" textLength="4" x="1328" y="159.8857">&#160;</text></g><!--entity d9fe74bd71c5f1efd83d8f6cfdd7bef5--><g id="elem_d9fe74bd71c5f1efd83d8f6cfdd7bef5"><polygon fill="#F1F1F1" points="1002,104.3,1012,94.3,1116,94.3,1116,146.8937,1106,156.8937,1002,156.8937,1002,104.3" style="stroke:#181818;stroke-width:0.5;"/><line style="stroke:#181818;stroke-width:0.5;" x1="1106" x2="1116" y1="104.3" y2="94.3"/><line style="stroke:#181818;stroke-width:0.5;" x1="1002" x2="1106" y1="104.3" y2="104.3"/><line style="stroke:#181818;stroke-width:0.5;" x1="1106" x2="1106" y1="104.3" y2="156.8937"/><text fill="#000000" font-family="sans-serif" font-size="14" font-weight="bold" lengthAdjust="spacing" textLength="72" x="1017" y="127.2951">front-tier</text><text fill="#000000" font-family="sans-serif" font-size="14" lengthAdjust="spacing" textLength="74" x="1017" y="143.592">&#171;network&#187;</text></g><!--entity 21232f297a57a5a743894a0e4a801fc3--><g id="elem_21232f297a57a5a743894a0e4a801fc3"><polygon fill="#F1F1F1" points="362,104.3,372,94.3,476,94.3,476,146.8937,466,156.8937,362,156.8937,362,104.3" style="stroke:#181818;stroke-width:0.5;"/><line style="stroke:#181818;stroke-width:0.5;" x1="466" x2="476" y1="104.3" y2="94.3"/><line style="stroke:#181818;stroke-width:0.5;" x1="362" x2="466" y1="104.3" y2="104.3"/><line style="stroke:#181818;stroke-width:0.5;" x1="466" x2="466" y1="104.3" y2="156.8937"/><text fill="#000000" font-family="sans-serif" font-size="14" font-weight="bold" lengthAdjust="spacing" textLength="47" x="377" y="127.2951">admin</text><text fill="#000000" font-family="sans-serif" font-size="14" lengthAdjust="spacing" textLength="74" x="377" y="143.592">&#171;network&#187;</text></g><!--entity 5e543256c480ac577d30f76f9120eb74--><g id="elem_5e543256c480ac577d30f76f9120eb74"><polygon fill="#F1F1F1" points="207,104.3,217,94.3,327,94.3,327,146.8937,317,156.8937,207,156.8937,207,104.3" style="stroke:#181818;stroke-width:0.5;"/><line style="stroke:#181818;stroke-width:0.5;" x1="317" x2="327" y1="104.3" y2="94.3"/><line style="stroke:#181818;stroke-width:0.5;" x1="207" x2="317" y1="104.3" y2="104.3"/><line style="stroke:#181818;stroke-width:0.5;" x1="317" x2="317" y1="104.3" y2="156.8937"/><text fill="#000000" font-family="sans-serif" font-size="14" font-weight="bold" lengthAdjust="spacing" textLength="80" x="222" y="127.2951">undefined</text><text fill="#000000" font-family="sans-serif" font-size="14" lengthAdjust="spacing" textLength="74" x="222" y="143.592">&#171;network&#187;</text></g><!--entity 267de027b65a807d2138ee534426efa5--><g id="elem_267de027b65a807d2138ee534426efa5"><ellipse cx="426" cy="719.57" fill="#F1F1F1" rx="8" ry="8" style="stroke:#181818;stroke-width:0.5;"/><text fill="#000000" font-family="sans-serif" font-size="14" lengthAdjust="spacing" textLength="36" x="408" y="749.5651">9090</text></g><!--entity dba3f4d0bb5aa6fcfa18da2c1f7a9775--><g id="elem_dba3f4d0bb5aa6fcfa18da2c1f7a9775"><ellipse cx="1118" cy="719.57" fill="#F1F1F1" rx="8" ry="8" style="stroke:#181818;stroke-width:0.5;"/><text fill="#000000" font-family="sans-serif" font-size="14" lengthAdjust="spacing" textLength="18" x="1109" y="749.5651">80</text></g><!--entity 1624c420083928ef3e240dd88f2e52f0--><g id="elem_1624c420083928ef3e240dd88f2e52f0"><ellipse cx="515" cy="719.57" fill="#F1F1F1" rx="8" ry="8" style="stroke:#181818;stroke-width:0.5;"/><text fill="#000000" font-family="sans-serif" font-size="14" lengthAdjust="spacing" textLength="36" x="497" y="749.5651">8000</text></g><!--entity 2a4ddbecb762532586835d0f37d85eaf--><g id="elem_2a4ddbecb762532586835d0f37d85eaf"><rect fill="#F1F1F1" height="39.2969" rx="2.5" ry="2.5" style="stroke:#181818;stroke-width:0.5;" width="124" x="207" y="943.86"/><polygon fill="#F1F1F1" points="314,948.86,314,962.86,326,962.86,326,954.86,320,948.86,314,948.86" style="stroke:#181818;stroke-width:0.5;"/><line style="stroke:#181818;stroke-width:0.5;" x1="320" x2="320" y1="948.86" y2="954.86"/><line style="stroke:#181818;stroke-width:0.5;" x1="326" x2="320" y1="954.86" y2="954.86"/><text fill="#000000" font-family="sans-serif" font-size="14" lengthAdjust="spacing" textLength="94" x="217" y="969.8551">./prometheus</text></g><!--entity a1448c8b5db83ada398e734ef1d3277c--><g id="elem_a1448c8b5db83ada398e734ef1d3277c"><rect fill="#F1F1F1" height="39.2969" rx="2.5" ry="2.5" style="stroke:#181818;stroke-width:0.5;" width="103" x="48.5" y="943.86"/><polygon fill="#F1F1F1" points="134.5,948.86,134.5,962.86,146.5,962.86,146.5,954.86,140.5,948.86,134.5,948.86" style="stroke:#181818;stroke-width:0.5;"/><line style="stroke:#181818;stroke-width:0.5;" x1="140.5" x2="140.5" y1="948.86" y2="954.86"/><line style="stroke:#181818;stroke-width:0.5;" x1="146.5" x2="140.5" y1="954.86" y2="954.86"/><text fill="#000000" font-family="sans-serif" font-size="14" lengthAdjust="spacing" textLength="73" x="58.5" y="969.8551">prom_data</text></g><!--entity eec695b1c6be435e7982afe506db7e49--><g id="elem_eec695b1c6be435e7982afe506db7e49"><rect fill="#F1F1F1" height="39.2969" rx="2.5" ry="2.5" style="stroke:#181818;stroke-width:0.5;" width="90" x="762" y="943.86"/><polygon fill="#F1F1F1" points="835,948.86,835,962.86,847,962.86,847,954.86,841,948.86,835,948.86" style="stroke:#181818;stroke-width:0.5;"/><line style="stroke:#181818;stroke-width:0.5;" x1="841" x2="841" y1="948.86" y2="954.86"/><line style="stroke:#181818;stroke-width:0.5;" x1="847" x2="841" y1="954.86" y2="954.86"/><text fill="#000000" font-family="sans-serif" font-size="14" lengthAdjust="spacing" textLength="60" x="772" y="969.8551">./grafana</text></g><!--class cab64c5af73a02ce213c72c614ccdc8f--><g id="elem_cab64c5af73a02ce213c72c614ccdc8f"><rect fill="#F1F1F1" height="48" id="cab64c5af73a02ce213c72c614ccdc8f" rx="2.5" ry="2.5" style="stroke:#181818;stroke-width:0.5;" width="299" x="615.5" y="101.6"/><ellipse cx="630.5" cy="117.6" fill="#ADD1B2" rx="11" ry="11" style="stroke:#181818;stroke-width:1.0;"/><path d="M633.4688,123.2406 Q632.8906,123.5375 632.25,123.6781 Q631.6094,123.8344 630.9063,123.8344 Q628.4063,123.8344 627.0781,122.1938 Q625.7656,120.5375 625.7656,117.4125 Q625.7656,114.2875 627.0781,112.6313 Q628.4063,110.975 630.9063,110.975 Q631.6094,110.975 632.25,111.1313 Q632.9063,111.2875 633.4688,111.5844 L633.4688,114.3031 Q632.8438,113.725 632.25,113.4594 Q631.6563,113.1781 631.0313,113.1781 Q629.6875,113.1781 629,114.2563 Q628.3125,115.3188 628.3125,117.4125 Q628.3125,119.5063 629,120.5844 Q629.6875,121.6469 631.0313,121.6469 Q631.6563,121.6469 632.25,121.3813 Q632.8438,121.1 633.4688,120.5219 L633.4688,123.2406 Z " fill="#000000"/><text fill="#000000" font-family="sans-serif" font-size="14" lengthAdjust="spacing" textLength="267" x="644.5" y="122.4467">cab64c5af73a02ce213c72c614ccdc8f</text><line style="stroke:#181818;stroke-width:0.5;" x1="616.5" x2="913.5" y1="133.6" y2="133.6"/><line style="stroke:#181818;stroke-width:0.5;" x1="616.5" x2="913.5" y1="141.6" y2="141.6"/></g><!--entity 66f105d93f918457901c46fd3761d60c--><g id="elem_66f105d93f918457901c46fd3761d60c"><polygon fill="#F1F1F1" points="1151,104.3,1161,94.3,1265,94.3,1265,146.8937,1255,156.8937,1151,156.8937,1151,104.3" style="stroke:#181818;stroke-width:0.5;"/><line style="stroke:#181818;stroke-width:0.5;" x1="1255" x2="1265" y1="104.3" y2="94.3"/><line style="stroke:#181818;stroke-width:0.5;" x1="1151" x2="1255" y1="104.3" y2="104.3"/><line style="stroke:#181818;stroke-width:0.5;" x1="1255" x2="1255" y1="104.3" y2="156.8937"/><text fill="#000000" font-family="sans-serif" font-size="14" font-weight="bold" lengthAdjust="spacing" textLength="34" x="1166" y="127.2951">uwu</text><text fill="#000000" font-family="sans-serif" font-size="14" lengthAdjust="spacing" textLength="74" x="1166" y="143.592">&#171;network&#187;</text></g><!--link b0b6236e8ab49920c48d10f339f1a86a to cfd4d43463526be4db6bd372951d8018--><g id="link_b0b6236e8ab49920c48d10f339f1a86a_cfd4d43463526be4db6bd372951d8018"><path codeLine="46" d="M239.43,470.45 C261.53,509.15 288.95,557.21 299.54,575.76 " fill="none" id="b0b6236e8ab49920c48d10f339f1a86a-cfd4d43463526be4db6bd372951d8018" style="stroke:#181818;stroke-width:1.0;"/></g><!--link cfd4d43463526be4db6bd372951d8018 to 267de027b65a807d2138ee534426efa5--><g id="link_cfd4d43463526be4db6bd372951d8018_267de027b65a807d2138ee534426efa5"><path codeLine="47" d="M311.27,593.49 C333.02,617.2 397.43,687.42 418.92,710.85 " fill="none" id="cfd4d43463526be4db6bd372951d8018-267de027b65a807d2138ee534426efa5" style="stroke:#181818;stroke-width:1.0;"/></g><!--link b8365f95fd8d51fff10d734d11af5400 to 2a4ddbecb762532586835d0f37d85eaf--><g id="link_b8365f95fd8d51fff10d734d11af5400_2a4ddbecb762532586835d0f37d85eaf"><path codeLine="48" d="M269,849.17 C269,874.32 269,918.46 269,943.59 " fill="none" id="b8365f95fd8d51fff10d734d11af5400-2a4ddbecb762532586835d0f37d85eaf" style="stroke:#181818;stroke-width:1.0;"/><text fill="#000000" font-family="sans-serif" font-size="13" lengthAdjust="spacing" textLength="13" x="270" y="909.9269">ro</text></g><!--link b0b6236e8ab49920c48d10f339f1a86a to b8365f95fd8d51fff10d734d11af5400--><g id="link_b0b6236e8ab49920c48d10f339f1a86a_b8365f95fd8d51fff10d734d11af5400"><path codeLine="49" d="M216.1,470.2 C229.91,563.64 256.4833,743.4944 265.3133,803.2744 " fill="none" id="b0b6236e8ab49920c48d10f339f1a86a-to-b8365f95fd8d51fff10d734d11af5400" style="stroke:#181818;stroke-width:1.0;stroke-dasharray:7.0,7.0;"/><polygon fill="#181818" points="266.19,809.21,268.832,799.7221,265.4594,804.2637,260.9178,800.8911,266.19,809.21" style="stroke:#181818;stroke-width:1.0;"/><text fill="#000000" font-family="sans-serif" font-size="13" lengthAdjust="spacing" textLength="23" x="246" y="656.6369">use</text></g><!--link 66ea46159f158592d153eec2b58bfad1 to a1448c8b5db83ada398e734ef1d3277c--><g id="link_66ea46159f158592d153eec2b58bfad1_a1448c8b5db83ada398e734ef1d3277c"><path codeLine="50" d="M100,849.17 C100,874.32 100,918.46 100,943.59 " fill="none" id="66ea46159f158592d153eec2b58bfad1-a1448c8b5db83ada398e734ef1d3277c" style="stroke:#181818;stroke-width:1.0;"/><text fill="#000000" font-family="sans-serif" font-size="13" lengthAdjust="spacing" textLength="14" x="101" y="909.9269">rw</text></g><!--link b0b6236e8ab49920c48d10f339f1a86a to 66ea46159f158592d153eec2b58bfad1--><g id="link_b0b6236e8ab49920c48d10f339f1a86a_66ea46159f158592d153eec2b58bfad1"><path codeLine="51" d="M193.66,470.2 C169.21,563.64 122.1286,743.6254 106.4886,803.4054 " fill="none" id="b0b6236e8ab49920c48d10f339f1a86a-to-66ea46159f158592d153eec2b58bfad1" style="stroke:#181818;stroke-width:1.0;stroke-dasharray:7.0,7.0;"/><polygon fill="#181818" points="104.97,809.21,111.1177,801.5155,106.2355,804.3728,103.3782,799.4906,104.97,809.21" style="stroke:#181818;stroke-width:1.0;"/><text fill="#000000" font-family="sans-serif" font-size="13" lengthAdjust="spacing" textLength="23" x="149" y="656.6369">use</text></g><!--reverse link cab64c5af73a02ce213c72c614ccdc8f to e4f00638b8a10e6994e67af2f832d51c--><g id="link_cab64c5af73a02ce213c72c614ccdc8f_e4f00638b8a10e6994e67af2f832d51c"><path codeLine="52" d="M719.422,153.0282 C680.122,176.2082 624.33,210.3 574,246.19 C526.61,279.98 475.725,321.01 436.265,353.9675 C416.535,370.4462 399.6613,384.9069 387.5087,395.4353 C384.4706,398.0674 381.7276,400.4538 379.3088,402.5644 C378.0993,403.6198 376.971,404.6062 375.9273,405.52 C375.6664,405.7484 375.4108,405.9723 375.1605,406.1916 " fill="none" id="cab64c5af73a02ce213c72c614ccdc8f-backto-e4f00638b8a10e6994e67af2f832d51c" style="stroke:#181818;stroke-width:1.0;"/><polygon fill="#181818" points="724.59,149.98,714.8058,151.107,720.2833,152.5202,718.8701,157.9977,724.59,149.98" style="stroke:#181818;stroke-width:1.0;"/><text fill="#000000" font-family="sans-serif" font-size="13" lengthAdjust="spacing" textLength="109" x="610" y="234.2569">alias:['database']</text></g><!--reverse link 21232f297a57a5a743894a0e4a801fc3 to e4f00638b8a10e6994e67af2f832d51c--><g id="link_21232f297a57a5a743894a0e4a801fc3_e4f00638b8a10e6994e67af2f832d51c"><path codeLine="53" d="M412.369,163.1936 C405.764,199.6036 395.4825,256.305 385.655,310.5 C383.1981,324.0487 380.8366,337.0719 378.6683,349.0287 C377.5842,355.0071 376.5484,360.7189 375.5732,366.0965 C375.4513,366.7687 375.3303,367.4357 375.2104,368.0974 C375.1504,368.4282 375.0906,368.7576 375.0311,369.0858 " fill="none" id="21232f297a57a5a743894a0e4a801fc3-backto-e4f00638b8a10e6994e67af2f832d51c" style="stroke:#181818;stroke-width:1.0;"/><polygon fill="#181818" points="413.44,157.29,407.8978,165.4315,412.5475,162.2097,415.7693,166.8594,413.44,157.29" style="stroke:#181818;stroke-width:1.0;"/><text fill="#000000" font-family="sans-serif" font-size="13" lengthAdjust="spacing" textLength="87" x="402" y="234.2569">alias:['mysql']</text></g><!--reverse link 5e543256c480ac577d30f76f9120eb74 to e4f00638b8a10e6994e67af2f832d51c--><g id="link_5e543256c480ac577d30f76f9120eb74_e4f00638b8a10e6994e67af2f832d51c"><path codeLine="54" d="M262.3636,163.2075 C260.7236,188.6175 263.51,217.79 285,238.19 C297,249.58 347.66,234.15 359,246.19 C384.105,272.845 386.435,313.7625 382.3275,348.4462 C381.3006,357.1172 379.8714,365.3985 378.2951,372.97 C377.507,376.7557 376.6821,380.364 375.8523,383.7547 C375.6448,384.6024 375.4371,385.4365 375.2295,386.2564 C375.1777,386.4614 375.1258,386.6655 375.0739,386.8687 " fill="none" id="5e543256c480ac577d30f76f9120eb74-backto-e4f00638b8a10e6994e67af2f832d51c" style="stroke:#181818;stroke-width:1.0;"/><polygon fill="#181818" points="262.75,157.22,258.1786,165.9437,262.428,162.2096,266.162,166.4589,262.75,157.22" style="stroke:#181818;stroke-width:1.0;"/><text fill="#000000" font-family="sans-serif" font-size="13" lengthAdjust="spacing" textLength="105" x="286" y="234.2569">alias:['unknown']</text></g><!--link ca625ae68e4d4a58f9ba859ff3420557 to 9f18a5ea59196197837bdbfebede13e8--><g id="link_ca625ae68e4d4a58f9ba859ff3420557_9f18a5ea59196197837bdbfebede13e8"><path codeLine="55" d="M867.15,495.04 C891.77,527.64 917.06,561.14 928.17,575.85 " fill="none" id="ca625ae68e4d4a58f9ba859ff3420557-9f18a5ea59196197837bdbfebede13e8" style="stroke:#181818;stroke-width:1.0;"/></g><!--link 9f18a5ea59196197837bdbfebede13e8 to dba3f4d0bb5aa6fcfa18da2c1f7a9775--><g id="link_9f18a5ea59196197837bdbfebede13e8_dba3f4d0bb5aa6fcfa18da2c1f7a9775"><path codeLine="56" d="M942.87,591.98 C974.03,614.5 1078.2,689.8 1109.21,712.22 " fill="none" id="9f18a5ea59196197837bdbfebede13e8-dba3f4d0bb5aa6fcfa18da2c1f7a9775" style="stroke:#181818;stroke-width:1.0;"/><text fill="#000000" font-family="sans-serif" font-size="13" lengthAdjust="spacing" textLength="20" x="1038" y="656.6369">tcp</text></g><!--link ca625ae68e4d4a58f9ba859ff3420557 to e5b1c7fcc1453c77b2f0388027659c6e--><g id="link_ca625ae68e4d4a58f9ba859ff3420557_e5b1c7fcc1453c77b2f0388027659c6e"><path codeLine="57" d="M747.32,495.04 C722.9,527.64 697.8,561.14 686.78,575.85 " fill="none" id="ca625ae68e4d4a58f9ba859ff3420557-e5b1c7fcc1453c77b2f0388027659c6e" style="stroke:#181818;stroke-width:1.0;"/></g><!--link e5b1c7fcc1453c77b2f0388027659c6e to 1624c420083928ef3e240dd88f2e52f0--><g id="link_e5b1c7fcc1453c77b2f0388027659c6e_1624c420083928ef3e240dd88f2e52f0"><path codeLine="58" d="M672.08,592.72 C643.25,615.81 552.85,688.24 523.97,711.38 " fill="none" id="e5b1c7fcc1453c77b2f0388027659c6e-1624c420083928ef3e240dd88f2e52f0" style="stroke:#181818;stroke-width:1.0;"/><text fill="#000000" font-family="sans-serif" font-size="13" lengthAdjust="spacing" textLength="20" x="608" y="656.6369">tcp</text></g><!--link de82fbad4c9eebe0bd6d2fe66a3fe0aa to eec695b1c6be435e7982afe506db7e49--><g id="link_de82fbad4c9eebe0bd6d2fe66a3fe0aa_eec695b1c6be435e7982afe506db7e49"><path codeLine="59" d="M807,849.17 C807,874.32 807,918.46 807,943.59 " fill="none" id="de82fbad4c9eebe0bd6d2fe66a3fe0aa-eec695b1c6be435e7982afe506db7e49" style="stroke:#181818;stroke-width:1.0;"/><text fill="#000000" font-family="sans-serif" font-size="13" lengthAdjust="spacing" textLength="13" x="808" y="909.9269">ro</text></g><!--link ca625ae68e4d4a58f9ba859ff3420557 to de82fbad4c9eebe0bd6d2fe66a3fe0aa--><g id="link_ca625ae68e4d4a58f9ba859ff3420557_de82fbad4c9eebe0bd6d2fe66a3fe0aa"><path codeLine="60" d="M807,494.98 C807,593.39 807,748.58 807,803.34 " fill="none" id="ca625ae68e4d4a58f9ba859ff3420557-to-de82fbad4c9eebe0bd6d2fe66a3fe0aa" style="stroke:#181818;stroke-width:1.0;stroke-dasharray:7.0,7.0;"/><polygon fill="#181818" points="807,809.34,811,800.34,807,804.34,803,800.34,807,809.34" style="stroke:#181818;stroke-width:1.0;"/><text fill="#000000" font-family="sans-serif" font-size="13" lengthAdjust="spacing" textLength="23" x="808" y="656.6369">use</text></g><!--reverse link d9fe74bd71c5f1efd83d8f6cfdd7bef5 to d9c0e52dd15274d51041b489c7cea0ad--><g id="link_d9fe74bd71c5f1efd83d8f6cfdd7bef5_d9c0e52dd15274d51041b489c7cea0ad"><path codeLine="61" d="M1059,163.29 C1059,181.495 1059,200.2487 1059,227.2256 C1059,233.9698 1059,240.853 1059,247.8075 C1059,251.2848 1059,254.7799 1059,258.2844 C1059,259.1605 1059,260.0372 1059,260.9144 " fill="none" id="d9fe74bd71c5f1efd83d8f6cfdd7bef5-backto-d9c0e52dd15274d51041b489c7cea0ad" style="stroke:#181818;stroke-width:1.0;"/><polygon fill="#181818" points="1059,157.29,1055,166.29,1059,162.29,1063,166.29,1059,157.29" style="stroke:#181818;stroke-width:1.0;"/><text fill="#000000" font-family="sans-serif" font-size="13" lengthAdjust="spacing" textLength="60" x="1060" y="234.2569">alias:['ui']</text></g><!--reverse link cab64c5af73a02ce213c72c614ccdc8f to d9c0e52dd15274d51041b489c7cea0ad--><g id="link_cab64c5af73a02ce213c72c614ccdc8f_d9c0e52dd15274d51041b489c7cea0ad"><path codeLine="62" d="M833.3658,152.209 C910.2858,181.559 1026.55,228.01 1040,246.19 C1042.7363,249.8894 1045.2077,253.7664 1047.4367,257.7851 C1047.9939,258.7898 1048.536,259.8034 1049.0633,260.8252 C1049.1951,261.0807 1049.326,261.3366 1049.4559,261.5931 " fill="none" id="cab64c5af73a02ce213c72c614ccdc8f-backto-d9c0e52dd15274d51041b489c7cea0ad" style="stroke:#181818;stroke-width:1.0;"/><polygon fill="#181818" points="827.76,150.07,834.7427,157.0156,832.4315,151.8525,837.5947,149.5413,827.76,150.07" style="stroke:#181818;stroke-width:1.0;"/></g><!--link 66f105d93f918457901c46fd3761d60c to 587516af1efac0b9293f31639c6c31f3--><g id="link_66f105d93f918457901c46fd3761d60c_587516af1efac0b9293f31639c6c31f3"><path codeLine="64" d="M1222.83,93.94 C1230.14,80.41 1240.08,64.365 1252.4938,49.62 C1258.7006,42.2475 1265.5259,35.2 1272.9502,28.9544 C1276.6623,25.8316 1280.5241,22.9092 1284.5332,20.247 C1285.5355,19.5814 1286.547,18.9321 1287.5676,18.2999 C1287.8228,18.1419 1288.0785,17.985 1288.3348,17.8291 C1288.463,17.7512 1288.5913,17.6735 1288.7197,17.5961 " fill="none" id="66f105d93f918457901c46fd3761d60c-587516af1efac0b9293f31639c6c31f3" style="stroke:#181818;stroke-width:1.0;"/></g><!--SRC=[ZLPjRzj63FwkNo7uIpS3TkxznMW356jNzCEs8ban35qHy8wyJ6WiUPRST1ZwttUIxTJ9CbnWmm9ayY7va7pkuEQckrqtNvhskcexf7esdwTjrmwBeQ7jVFv7-_nvIyDjj_rqVZwheQ_H9x8geELH9qu9dKINJ4o8Db3ITp20wwPz345m8KKIteBENx1AEg-0aGB7U8ho3c7N8gMc9NmCHPDMKcWJbMCGjRKeMR8cUIuO1QiEAE-stPg6FsdNJrwa4cD6kk20CpBUAp8MaaXE2jGyrlzKTUpMcwwbTgW32qP8Gmw2ybwm70ivIrBwnC4Pg3zKy_dcBi9yNbND6gvfLOylpxxziznaVhVK3x0TLlMklQ6-N_H3jzaGLjN7whllwvbddaqvPYeLAgcCrC84KXXCG6c5rnmpGwxA84s2EDIpCnhYIPZ9FJXfTF8wToPNb5BY3ArKo3aahHWxTN_WQWo1CbpdyhJJNY3NaYYAe5r8WBpwUc3rpHOIj70OYCX82yp6mgeSaYaUbFFHHW86U9_I24Pe8EDoNGgqIpv03fMIL89fRITAh_Vm9tmUtfmTdl_B9RMVcpo-wnngLR_vyUhozG_lBzx- -llLorS_lVtvwltbwuiNqs2MBD-zlBpyxPUBLo-E4GVwaWt7tsF3kB1BbZzyvPZRjouJvq0JQC-zuTuwQGE6H86Gk2Jt7p_65Zx_x6TJ1nvjYf4hBQErGIGcdMF26ksZeOTzFtAIc_YvwPkkpKjyXZ10t-ssaVOjHN8Y1K0LFUKqM4238f4n81CnWBkMligEs5tlTyjPpGsCwmsH1I-yJ98RcRE8aYVveAKfRvCETeHF1ZGVjvgKDE0bQdHJIt4FVzBImvkpmtDazUlzHH368kNoWz5P6YmABXsHbae9apFJa_M1UGov88Ki10rWKap07OA8F5dmrXvj3rHp8rJC0yUSzC9HaYGKGtGkYJpAwNH7bW-NH81231I3pPES5SWP9pLcLR3eSklJYU_eUJNMDpa2Lyf55pJc5GK4wHtbnQJ4KGfhuxsWroSRbbVG-74uHZMGcgnt0X9fPZ2phdnLrAa5BigoKZAOK8ezASdF7gN0ORsgPzjkLYvikSJbyhoeUIFUhgTPLLAuARjIewRiRf-UNJ7eCRlYwRJOBSwpX0QZeePa9J0HARSWMX4DLp5YT1DvSDD0l_hmR1o-03qz-_XKzDBfV8g-_hl_w-RfqAKZ-nHwrtvgkzjs12yU6MFFYifRCfXGIYeoPZZ4pHDpAWfwoM12AMdLNKubgT_dLD2Iu-OL2ppCTZ7eSRQBruHfH4gtotiZqepJyJJSqivyktFUxXwxRHgJ9KLZFWSzTqfRptXK9cLvD1mDYrN9e5uKJzL_0G00]--></g></svg>