<svg xmlns="http://www.w3.org/2000/svg" xmlns:xlink="http://www.w3.org/1999/xlink" contentStyleType="text/css" height="972px" preserveAspectRatio="none" style="width:1672px;height:972px;background:#FFFFFF;" version="1.1" viewBox="0 0 1672 972" width="1672px" zoomAndPan="magnify"><defs/><g><!--cluster e4f00638b8a10e6994e67af2f832d51c--><g id="cluster_e4f00638b8a10e6994e67af2f832d51c"><polygon fill="none" points="16,288.48,26,278.48,375,278.48,375,846.56,365,856.56,16,856.56,16,288.48" style="stroke:#181818;stroke-width:1.0;"/><line style="stroke:#181818;stroke-width:1.0;" x1="365" x2="375" y1="288.48" y2="278.48"/><line style="stroke:#181818;stroke-width:1.0;" x1="16" x2="365" y1="288.48" y2="288.48"/><line style="stroke:#181818;stroke-width:1.0;" x1="365" x2="365" y1="288.48" y2="856.56"/><text fill="#000000" font-family="sans-serif" font-size="14" font-weight="bold" lengthAdjust="spacing" textLength="96" x="143.5" y="304.4751">Prometheus</text></g><!--cluster d9c0e52dd15274d51041b489c7cea0ad--><g id="cluster_d9c0e52dd15274d51041b489c7cea0ad"><polygon fill="none" points="566,272.19,576,262.19,1156,262.19,1156,846.56,1146,856.56,566,856.56,566,272.19" style="stroke:#181818;stroke-width:1.0;"/><line style="stroke:#181818;stroke-width:1.0;" x1="1146" x2="1156" y1="272.19" y2="262.19"/><line style="stroke:#181818;stroke-width:1.0;" x1="566" x2="1146" y1="272.19" y2="272.19"/><line style="stroke:#181818;stroke-width:1.0;" x1="1146" x2="1146" y1="272.19" y2="856.56"/><text fill="#000000" font-family="sans-serif" font-size="14" font-weight="bold" lengthAdjust="spacing" textLength="62" x="826" y="288.1851">Grafana</text></g><!--cluster 587516af1efac0b9293f31639c6c31f3--><g id="cluster_587516af1efac0b9293f31639c6c31f3"><polygon fill="none" points="1378,16,1388,6,1655,6,1655,187.19,1645,197.19,1378,197.19,1378,16" style="stroke:#181818;stroke-width:1.0;"/><line style="stroke:#181818;stroke-width:1.0;" x1="1645" x2="1655" y1="16" y2="6"/><line style="stroke:#181818;stroke-width:1.0;" x1="1378" x2="1645" y1="16" y2="16"/><line style="stroke:#181818;stroke-width:1.0;" x1="1645" x2="1645" y1="16" y2="197.19"/><text fill="#000000" font-family="sans-serif" font-size="14" font-weight="bold" lengthAdjust="spacing" textLength="59" x="1483" y="31.9951">Datacat</text></g><!--entity b0b6236e8ab49920c48d10f339f1a86a--><g id="elem_b0b6236e8ab49920c48d10f339f1a86a"><rect fill="#F1F1F1" height="111.4844" rx="2.5" ry="2.5" style="stroke:#181818;stroke-width:0.5;" width="217" x="114.5" y="350.48"/><rect fill="#F1F1F1" height="10" style="stroke:#181818;stroke-width:0.5;" width="15" x="311.5" y="355.48"/><rect fill="#F1F1F1" height="2" style="stroke:#181818;stroke-width:0.5;" width="4" x="309.5" y="357.48"/><rect fill="#F1F1F1" height="2" style="stroke:#181818;stroke-width:0.5;" width="4" x="309.5" y="361.48"/><text fill="#000000" font-family="sans-serif" font-size="14" font-weight="bold" lengthAdjust="spacing" textLength="96" x="129.5" y="383.4751">prometheus</text><text fill="#000000" font-family="sans-serif" font-size="14" lengthAdjust="spacing" textLength="4" x="129.5" y="399.772">&#160;</text><text fill="#000000" font-family="sans-serif" font-size="14" lengthAdjust="spacing" textLength="177" x="129.5" y="416.0689">image: prom/prometheus</text><text fill="#000000" font-family="sans-serif" font-size="14" lengthAdjust="spacing" textLength="163" x="129.5" y="432.3657">restart: unless-stopped</text><text fill="#000000" font-family="sans-serif" font-size="14" lengthAdjust="spacing" textLength="4" x="129.5" y="448.6626">&#160;</text></g><!--entity cfd4d43463526be4db6bd372951d8018--><g id="elem_cfd4d43463526be4db6bd372951d8018"><ellipse cx="308" cy="568.27" fill="#F1F1F1" rx="8" ry="8" style="stroke:#181818;stroke-width:0.5;"/><text fill="#000000" font-family="sans-serif" font-size="14" lengthAdjust="spacing" textLength="36" x="290" y="598.2651">9090</text></g><!--entity b8365f95fd8d51fff10d734d11af5400--><g id="elem_b8365f95fd8d51fff10d734d11af5400"><rect fill="#F1F1F1" height="39.2969" rx="2.5" ry="2.5" style="stroke:#181818;stroke-width:0.5;" width="147" x="195.5" y="793.27"/><polygon fill="#F1F1F1" points="325.5,798.27,325.5,812.27,337.5,812.27,337.5,804.27,331.5,798.27,325.5,798.27" style="stroke:#181818;stroke-width:0.5;"/><line style="stroke:#181818;stroke-width:0.5;" x1="331.5" x2="331.5" y1="798.27" y2="804.27"/><line style="stroke:#181818;stroke-width:0.5;" x1="337.5" x2="331.5" y1="804.27" y2="804.27"/><text fill="#000000" font-family="sans-serif" font-size="14" lengthAdjust="spacing" textLength="117" x="205.5" y="819.2651">/etc/prometheus</text></g><!--entity 66ea46159f158592d153eec2b58bfad1--><g id="elem_66ea46159f158592d153eec2b58bfad1"><rect fill="#F1F1F1" height="39.2969" rx="2.5" ry="2.5" style="stroke:#181818;stroke-width:0.5;" width="120" x="40" y="793.27"/><polygon fill="#F1F1F1" points="143,798.27,143,812.27,155,812.27,155,804.27,149,798.27,143,798.27" style="stroke:#181818;stroke-width:0.5;"/><line style="stroke:#181818;stroke-width:0.5;" x1="149" x2="149" y1="798.27" y2="804.27"/><line style="stroke:#181818;stroke-width:0.5;" x1="155" x2="149" y1="804.27" y2="804.27"/><text fill="#000000" font-family="sans-serif" font-size="14" lengthAdjust="spacing" textLength="90" x="50" y="819.2651">/prometheus</text></g><!--entity ca625ae68e4d4a58f9ba859ff3420557--><g id="elem_ca625ae68e4d4a58f9ba859ff3420557"><rect fill="#F1F1F1" height="144.0781" rx="2.5" ry="2.5" style="stroke:#181818;stroke-width:0.5;" width="434" x="590" y="334.19"/><rect fill="#F1F1F1" height="10" style="stroke:#181818;stroke-width:0.5;" width="15" x="1004" y="339.19"/><rect fill="#F1F1F1" height="2" style="stroke:#181818;stroke-width:0.5;" width="4" x="1002" y="341.19"/><rect fill="#F1F1F1" height="2" style="stroke:#181818;stroke-width:0.5;" width="4" x="1002" y="345.19"/><text fill="#000000" font-family="sans-serif" font-size="14" font-weight="bold" lengthAdjust="spacing" textLength="60" x="605" y="367.1851">grafana</text><text fill="#000000" font-family="sans-serif" font-size="14" lengthAdjust="spacing" textLength="4" x="605" y="383.482">&#160;</text><text fill="#000000" font-family="sans-serif" font-size="14" lengthAdjust="spacing" textLength="158" x="605" y="399.7789">image: grafana/grafana</text><text fill="#000000" font-family="sans-serif" font-size="14" lengthAdjust="spacing" textLength="163" x="605" y="416.0757">restart: unless-stopped</text><text fill="#000000" font-family="sans-serif" font-size="14" lengthAdjust="spacing" textLength="342" x="605" y="432.3726">environment: GF_SECURITY_ADMIN_USER=admin</text><text fill="#000000" font-family="sans-serif" font-size="14" lengthAdjust="spacing" textLength="394" x="605" y="448.6695">environment: GF_SECURITY_ADMIN_PASSWORD=grafana</text><text fill="#000000" font-family="sans-serif" font-size="14" lengthAdjust="spacing" textLength="4" x="605" y="464.9664">&#160;</text></g><!--entity 66dd866fee4eff1bde74c4170a1a9aba--><g id="elem_66dd866fee4eff1bde74c4170a1a9aba"><ellipse cx="1086" cy="406.23" fill="#F1F1F1" rx="8" ry="8" style="stroke:#181818;stroke-width:0.5;"/><text fill="#000000" font-family="sans-serif" font-size="14" lengthAdjust="spacing" textLength="36" x="1068" y="436.2251">9999</text></g><!--entity 9f18a5ea59196197837bdbfebede13e8--><g id="elem_9f18a5ea59196197837bdbfebede13e8"><ellipse cx="1001" cy="568.27" fill="#F1F1F1" rx="8" ry="8" style="stroke:#181818;stroke-width:0.5;"/><text fill="#000000" font-family="sans-serif" font-size="14" lengthAdjust="spacing" textLength="107" x="947.5" y="598.2651">127.0.0.1:8080</text></g><!--entity e5b1c7fcc1453c77b2f0388027659c6e--><g id="elem_e5b1c7fcc1453c77b2f0388027659c6e"><ellipse cx="681" cy="568.27" fill="#F1F1F1" rx="8" ry="8" style="stroke:#181818;stroke-width:0.5;"/><text fill="#000000" font-family="sans-serif" font-size="14" lengthAdjust="spacing" textLength="148" x="607" y="598.2651">127.0.0.1:8000-9000</text></g><!--entity de82fbad4c9eebe0bd6d2fe66a3fe0aa--><g id="elem_de82fbad4c9eebe0bd6d2fe66a3fe0aa"><rect fill="#F1F1F1" height="39.2969" rx="2.5" ry="2.5" style="stroke:#181818;stroke-width:0.5;" width="292" x="661" y="793.27"/><polygon fill="#F1F1F1" points="936,798.27,936,812.27,948,812.27,948,804.27,942,798.27,936,798.27" style="stroke:#181818;stroke-width:0.5;"/><line style="stroke:#181818;stroke-width:0.5;" x1="942" x2="942" y1="798.27" y2="804.27"/><line style="stroke:#181818;stroke-width:0.5;" x1="948" x2="942" y1="804.27" y2="804.27"/><text fill="#000000" font-family="sans-serif" font-size="14" lengthAdjust="spacing" textLength="262" x="671" y="819.2651">/etc/grafana/provisioning/datasources</text></g><!--entity cfb8a5b7ebe0f6a517a5ae436a93d5d8--><g id="elem_cfb8a5b7ebe0f6a517a5ae436a93d5d8"><rect fill="#F1F1F1" height="95.1875" rx="2.5" ry="2.5" style="stroke:#181818;stroke-width:0.5;" width="210" x="1402" y="78"/><rect fill="#F1F1F1" height="10" style="stroke:#181818;stroke-width:0.5;" width="15" x="1592" y="83"/><rect fill="#F1F1F1" height="2" style="stroke:#181818;stroke-width:0.5;" width="4" x="1590" y="85"/><rect fill="#F1F1F1" height="2" style="stroke:#181818;stroke-width:0.5;" width="4" x="1590" y="89"/><text fill="#000000" font-family="sans-serif" font-size="14" font-weight="bold" lengthAdjust="spacing" textLength="64" x="1417" y="110.9951">datadog</text><text fill="#000000" font-family="sans-serif" font-size="14" lengthAdjust="spacing" textLength="4" x="1417" y="127.292">&#160;</text><text fill="#000000" font-family="sans-serif" font-size="14" lengthAdjust="spacing" textLength="170" x="1417" y="143.5889">image: datadog/datadog</text><text fill="#000000" font-family="sans-serif" font-size="14" lengthAdjust="spacing" textLength="4" x="1417" y="159.8857">&#160;</text></g><!--entity d9fe74bd71c5f1efd83d8f6cfdd7bef5--><g id="elem_d9fe74bd71c5f1efd83d8f6cfdd7bef5"><polygon fill="#F1F1F1" points="1091,104.3,1101,94.3,1205,94.3,1205,146.8938,1195,156.8938,1091,156.8938,1091,104.3" style="stroke:#181818;stroke-width:0.5;"/><line style="stroke:#181818;stroke-width:0.5;" x1="1195" x2="1205" y1="104.3" y2="94.3"/><line style="stroke:#181818;stroke-width:0.5;" x1="1091" x2="1195" y1="104.3" y2="104.3"/><line style="stroke:#181818;stroke-width:0.5;" x1="1195" x2="1195" y1="104.3" y2="156.8938"/><text fill="#000000" font-family="sans-serif" font-size="14" font-weight="bold" lengthAdjust="spacing" textLength="72" x="1106" y="127.2951">front-tier</text><text fill="#000000" font-family="sans-serif" font-size="14" lengthAdjust="spacing" textLength="74" x="1106" y="143.592">&#171;network&#187;</text></g><!--entity 21232f297a57a5a743894a0e4a801fc3--><g id="elem_21232f297a57a5a743894a0e4a801fc3"><polygon fill="#F1F1F1" points="385,104.3,395,94.3,499,94.3,499,146.8938,489,156.8938,385,156.8938,385,104.3" style="stroke:#181818;stroke-width:0.5;"/><line style="stroke:#181818;stroke-width:0.5;" x1="489" x2="499" y1="104.3" y2="94.3"/><line style="stroke:#181818;stroke-width:0.5;" x1="385" x2="489" y1="104.3" y2="104.3"/><line style="stroke:#181818;stroke-width:0.5;" x1="489" x2="489" y1="104.3" y2="156.8938"/><text fill="#000000" font-family="sans-serif" font-size="14" font-weight="bold" lengthAdjust="spacing" textLength="47" x="400" y="127.2951">admin</text><text fill="#000000" font-family="sans-serif" font-size="14" lengthAdjust="spacing" textLength="74" x="400" y="143.592">&#171;network&#187;</text></g><!--entity 5e543256c480ac577d30f76f9120eb74--><g id="elem_5e543256c480ac577d30f76f9120eb74"><polygon fill="#F1F1F1" points="230,104.3,240,94.3,350,94.3,350,146.8938,340,156.8938,230,156.8938,230,104.3" style="stroke:#181818;stroke-width:0.5;"/><line style="stroke:#181818;stroke-width:0.5;" x1="340" x2="350" y1="104.3" y2="94.3"/><line style="stroke:#181818;stroke-width:0.5;" x1="230" x2="340" y1="104.3" y2="104.3"/><line style="stroke:#181818;stroke-width:0.5;" x1="340" x2="340" y1="104.3" y2="156.8938"/><text fill="#000000" font-family="sans-serif" font-size="14" font-weight="bold" lengthAdjust="spacing" textLength="80" x="245" y="127.2951">undefined</text><text fill="#000000" font-family="sans-serif" font-size="14" lengthAdjust="spacing" textLength="74" x="245" y="143.592">&#171;network&#187;</text></g><!--entity 267de027b65a807d2138ee534426efa5--><g id="elem_267de027b65a807d2138ee534426efa5"><ellipse cx="426" cy="703.27" fill="#F1F1F1" rx="8" ry="8" style="stroke:#181818;stroke-width:0.5;"/><text fill="#000000" font-family="sans-serif" font-size="14" lengthAdjust="spacing" textLength="36" x="408" y="733.2651">9090</text></g><!--entity dba3f4d0bb5aa6fcfa18da2c1f7a9775--><g id="elem_dba3f4d0bb5aa6fcfa18da2c1f7a9775"><ellipse cx="1207" cy="703.27" fill="#F1F1F1" rx="8" ry="8" style="stroke:#181818;stroke-width:0.5;"/><text fill="#000000" font-family="sans-serif" font-size="14" lengthAdjust="spacing" textLength="18" x="1198" y="733.2651">80</text></g><!--entity 1624c420083928ef3e240dd88f2e52f0--><g id="elem_1624c420083928ef3e240dd88f2e52f0"><ellipse cx="515" cy="703.27" fill="#F1F1F1" rx="8" ry="8" style="stroke:#181818;stroke-width:0.5;"/><text fill="#000000" font-family="sans-serif" font-size="14" lengthAdjust="spacing" textLength="36" x="497" y="733.2651">8000</text></g><!--entity 2a4ddbecb762532586835d0f37d85eaf--><g id="elem_2a4ddbecb762532586835d0f37d85eaf"><rect fill="#F1F1F1" height="39.2969" rx="2.5" ry="2.5" style="stroke:#181818;stroke-width:0.5;" width="124" x="207" y="927.56"/><polygon fill="#F1F1F1" points="314,932.56,314,946.56,326,946.56,326,938.56,320,932.56,314,932.56" style="stroke:#181818;stroke-width:0.5;"/><line style="stroke:#181818;stroke-width:0.5;" x1="320" x2="320" y1="932.56" y2="938.56"/><line style="stroke:#181818;stroke-width:0.5;" x1="326" x2="320" y1="938.56" y2="938.56"/><text fill="#000000" font-family="sans-serif" font-size="14" lengthAdjust="spacing" textLength="94" x="217" y="953.5551">./prometheus</text></g><!--entity a1448c8b5db83ada398e734ef1d3277c--><g id="elem_a1448c8b5db83ada398e734ef1d3277c"><rect fill="#F1F1F1" height="39.2969" rx="2.5" ry="2.5" style="stroke:#181818;stroke-width:0.5;" width="103" x="48.5" y="927.56"/><polygon fill="#F1F1F1" points="134.5,932.56,134.5,946.56,146.5,946.56,146.5,938.56,140.5,932.56,134.5,932.56" style="stroke:#181818;stroke-width:0.5;"/><line style="stroke:#181818;stroke-width:0.5;" x1="140.5" x2="140.5" y1="932.56" y2="938.56"/><line style="stroke:#181818;stroke-width:0.5;" x1="146.5" x2="140.5" y1="938.56" y2="938.56"/><text fill="#000000" font-family="sans-serif" font-size="14" lengthAdjust="spacing" textLength="73" x="58.5" y="953.5551">prom_data</text></g><!--entity eec695b1c6be435e7982afe506db7e49--><g id="elem_eec695b1c6be435e7982afe506db7e49"><rect fill="#F1F1F1" height="39.2969" rx="2.5" ry="2.5" style="stroke:#181818;stroke-width:0.5;" width="90" x="762" y="927.56"/><polygon fill="#F1F1F1" points="835,932.56,835,946.56,847,946.56,847,938.56,841,932.56,835,932.56" style="stroke:#181818;stroke-width:0.5;"/><line style="stroke:#181818;stroke-width:0.5;" x1="841" x2="841" y1="932.56" y2="938.56"/><line style="stroke:#181818;stroke-width:0.5;" x1="847" x2="841" y1="938.56" y2="938.56"/><text fill="#000000" font-family="sans-serif" font-size="14" lengthAdjust="spacing" textLength="60" x="772" y="953.5551">./grafana</text></g><!--class cab64c5af73a02ce213c72c614ccdc8f--><g id="elem_cab64c5af73a02ce213c72c614ccdc8f"><rect fill="#F1F1F1" height="48" id="cab64c5af73a02ce213c72c614ccdc8f" rx="2.5" ry="2.5" style="stroke:#181818;stroke-width:0.5;" width="299" x="682.5" y="101.59"/><ellipse cx="697.5" cy="117.59" fill="#ADD1B2" rx="11" ry="11" style="stroke:#181818;stroke-width:1.0;"/><path d="M700.4688,123.2306 Q699.8906,123.5275 699.25,123.6681 Q698.6094,123.8244 697.9063,123.8244 Q695.4063,123.8244 694.0781,122.1838 Q692.7656,120.5275 692.7656,117.4025 Q692.7656,114.2775 694.0781,112.6213 Q695.4063,110.965 697.9063,110.965 Q698.6094,110.965 699.25,111.1213 Q699.9063,111.2775 700.4688,111.5744 L700.4688,114.2931 Q699.8438,113.715 699.25,113.4494 Q698.6563,113.1681 698.0313,113.1681 Q696.6875,113.1681 696,114.2463 Q695.3125,115.3088 695.3125,117.4025 Q695.3125,119.4963 696,120.5744 Q696.6875,121.6369 698.0313,121.6369 Q698.6563,121.6369 699.25,121.3713 Q699.8438,121.09 700.4688,120.5119 L700.4688,123.2306 Z " fill="#000000"/><text fill="#000000" font-family="sans-serif" font-size="14" lengthAdjust="spacing" textLength="267" x="711.5" y="122.4367">cab64c5af73a02ce213c72c614ccdc8f</text><line style="stroke:#181818;stroke-width:0.5;" x1="683.5" x2="980.5" y1="133.59" y2="133.59"/><line style="stroke:#181818;stroke-width:0.5;" x1="683.5" x2="980.5" y1="141.59" y2="141.59"/></g><!--entity b35f48e3c6ce7ce0a270b6dbdf087327--><g id="elem_b35f48e3c6ce7ce0a270b6dbdf087327"><polygon fill="#F1F1F1" points="1240,104.3,1250,94.3,1354,94.3,1354,146.8938,1344,156.8938,1240,156.8938,1240,104.3" style="stroke:#181818;stroke-width:0.5;"/><line style="stroke:#181818;stroke-width:0.5;" x1="1344" x2="1354" y1="104.3" y2="94.3"/><line style="stroke:#181818;stroke-width:0.5;" x1="1240" x2="1344" y1="104.3" y2="104.3"/><line style="stroke:#181818;stroke-width:0.5;" x1="1344" x2="1344" y1="104.3" y2="156.8938"/><text fill="#000000" font-family="sans-serif" font-size="14" font-weight="bold" lengthAdjust="spacing" textLength="23" x="1255" y="127.2951">idk</text><text fill="#000000" font-family="sans-serif" font-size="14" lengthAdjust="spacing" textLength="74" x="1255" y="143.592">&#171;network&#187;</text></g><!--link b0b6236e8ab49920c48d10f339f1a86a to cfd4d43463526be4db6bd372951d8018--><g id="link_b0b6236e8ab49920c48d10f339f1a86a_cfd4d43463526be4db6bd372951d8018"><path codeLine="46" d="M252.25,462.3 C271.37,498.29 294.45,541.75 303.78,559.32 " fill="none" id="b0b6236e8ab49920c48d10f339f1a86a-cfd4d43463526be4db6bd372951d8018" style="stroke:#181818;stroke-width:1.0;"/></g><!--link cfd4d43463526be4db6bd372951d8018 to 267de027b65a807d2138ee534426efa5--><g id="link_cfd4d43463526be4db6bd372951d8018_267de027b65a807d2138ee534426efa5"><path codeLine="47" d="M315.03,577.19 C336.07,600.9 398.36,671.12 419.16,694.55 " fill="none" id="cfd4d43463526be4db6bd372951d8018-267de027b65a807d2138ee534426efa5" style="stroke:#181818;stroke-width:1.0;"/></g><!--link b8365f95fd8d51fff10d734d11af5400 to 2a4ddbecb762532586835d0f37d85eaf--><g id="link_b8365f95fd8d51fff10d734d11af5400_2a4ddbecb762532586835d0f37d85eaf"><path codeLine="48" d="M269,832.87 C269,858.02 269,902.16 269,927.29 " fill="none" id="b8365f95fd8d51fff10d734d11af5400-2a4ddbecb762532586835d0f37d85eaf" style="stroke:#181818;stroke-width:1.0;"/><text fill="#000000" font-family="sans-serif" font-size="13" lengthAdjust="spacing" textLength="13" x="270" y="893.6269">ro</text></g><!--link b0b6236e8ab49920c48d10f339f1a86a to b8365f95fd8d51fff10d734d11af5400--><g id="link_b0b6236e8ab49920c48d10f339f1a86a_b8365f95fd8d51fff10d734d11af5400"><path codeLine="49" d="M229.25,462.23 C239.69,554.07 259.5127,728.4284 266.1727,787.0484 " fill="none" id="b0b6236e8ab49920c48d10f339f1a86a-to-b8365f95fd8d51fff10d734d11af5400" style="stroke:#181818;stroke-width:1.0;stroke-dasharray:7.0,7.0;"/><polygon fill="#181818" points="266.85,793.01,269.8084,783.616,266.2856,788.042,261.8596,784.5191,266.85,793.01" style="stroke:#181818;stroke-width:1.0;"/><text fill="#000000" font-family="sans-serif" font-size="13" lengthAdjust="spacing" textLength="23" x="251" y="640.3369">use</text></g><!--link 66ea46159f158592d153eec2b58bfad1 to a1448c8b5db83ada398e734ef1d3277c--><g id="link_66ea46159f158592d153eec2b58bfad1_a1448c8b5db83ada398e734ef1d3277c"><path codeLine="50" d="M100,832.87 C100,858.02 100,902.16 100,927.29 " fill="none" id="66ea46159f158592d153eec2b58bfad1-a1448c8b5db83ada398e734ef1d3277c" style="stroke:#181818;stroke-width:1.0;"/><text fill="#000000" font-family="sans-serif" font-size="13" lengthAdjust="spacing" textLength="14" x="101" y="893.6269">rw</text></g><!--link b0b6236e8ab49920c48d10f339f1a86a to 66ea46159f158592d153eec2b58bfad1--><g id="link_b0b6236e8ab49920c48d10f339f1a86a_66ea46159f158592d153eec2b58bfad1"><path codeLine="51" d="M206.28,462.23 C178.37,554.07 125.3042,728.6491 107.4942,787.2691 " fill="none" id="b0b6236e8ab49920c48d10f339f1a86a-to-66ea46159f158592d153eec2b58bfad1" style="stroke:#181818;stroke-width:1.0;stroke-dasharray:7.0,7.0;"/><polygon fill="#181818" points="105.75,793.01,112.1936,785.5615,107.2035,788.2259,104.539,783.2359,105.75,793.01" style="stroke:#181818;stroke-width:1.0;"/><text fill="#000000" font-family="sans-serif" font-size="13" lengthAdjust="spacing" textLength="23" x="157" y="640.3369">use</text></g><!--reverse link cab64c5af73a02ce213c72c614ccdc8f to e4f00638b8a10e6994e67af2f832d51c--><g id="link_cab64c5af73a02ce213c72c614ccdc8f_e4f00638b8a10e6994e67af2f832d51c"><path codeLine="52" d="M766.1363,152.3607 C712.5963,174.2507 638.61,207.06 574,246.19 C525.16,275.77 474.2525,314.7575 435.1438,346.7275 C415.5894,362.7125 398.9847,376.9431 387.063,387.3662 C384.0825,389.972 381.3948,392.3398 379.0268,394.4376 C377.8428,395.4865 376.7388,396.4679 375.7181,397.3777 C375.5905,397.4914 375.4642,397.6041 375.3392,397.7155 " fill="none" id="cab64c5af73a02ce213c72c614ccdc8f-backto-e4f00638b8a10e6994e67af2f832d51c" style="stroke:#181818;stroke-width:1.0;"/><polygon fill="#181818" points="771.69,150.09,761.8456,149.7935,767.0619,151.9822,764.8732,157.1985,771.69,150.09" style="stroke:#181818;stroke-width:1.0;"/><text fill="#000000" font-family="sans-serif" font-size="13" lengthAdjust="spacing" textLength="109" x="615" y="234.2569">alias:['database']</text></g><!--reverse link 21232f297a57a5a743894a0e4a801fc3 to e4f00638b8a10e6994e67af2f832d51c--><g id="link_21232f297a57a5a743894a0e4a801fc3_e4f00638b8a10e6994e67af2f832d51c"><path codeLine="53" d="M432.2004,163.0037 C422.6104,198.6287 407.8475,253.4725 393.7425,305.8713 C386.69,332.0706 380.1919,356.2103 375.3669,374.1339 C375.2915,374.414 375.2165,374.6925 375.1419,374.9695 " fill="none" id="21232f297a57a5a743894a0e4a801fc3-backto-e4f00638b8a10e6994e67af2f832d51c" style="stroke:#181818;stroke-width:1.0;"/><polygon fill="#181818" points="433.76,157.21,427.558,164.8609,432.4603,162.0381,435.283,166.9404,433.76,157.21" style="stroke:#181818;stroke-width:1.0;"/><text fill="#000000" font-family="sans-serif" font-size="13" lengthAdjust="spacing" textLength="87" x="417" y="234.2569">alias:['mysql']</text></g><!--reverse link 5e543256c480ac577d30f76f9120eb74 to e4f00638b8a10e6994e67af2f832d51c--><g id="link_5e543256c480ac577d30f76f9120eb74_e4f00638b8a10e6994e67af2f832d51c"><path codeLine="54" d="M282.1454,163.2044 C278.4054,188.2944 278.93,217.04 299,238.19 C317.52,257.7 340.78,226.4 359,246.19 C382.595,271.815 384.9025,310.7425 381.1613,343.67 C380.2259,351.9019 378.9126,359.7588 377.4593,366.939 C376.7326,370.5292 375.971,373.9501 375.2041,377.1643 C375.1562,377.3652 375.1083,377.5652 375.0603,377.7645 " fill="none" id="5e543256c480ac577d30f76f9120eb74-backto-e4f00638b8a10e6994e67af2f832d51c" style="stroke:#181818;stroke-width:1.0;"/><polygon fill="#181818" points="283.03,157.27,277.7468,165.5819,282.2928,162.2154,285.6594,166.7614,283.03,157.27" style="stroke:#181818;stroke-width:1.0;"/><text fill="#000000" font-family="sans-serif" font-size="13" lengthAdjust="spacing" textLength="105" x="300" y="234.2569">alias:['unknown']</text></g><!--link ca625ae68e4d4a58f9ba859ff3420557 to 9f18a5ea59196197837bdbfebede13e8--><g id="link_ca625ae68e4d4a58f9ba859ff3420557_9f18a5ea59196197837bdbfebede13e8"><path codeLine="55" d="M893.5,478.59 C932.71,510.93 974.23,545.18 992.04,559.87 " fill="none" id="ca625ae68e4d4a58f9ba859ff3420557-9f18a5ea59196197837bdbfebede13e8" style="stroke:#181818;stroke-width:1.0;"/></g><!--link 9f18a5ea59196197837bdbfebede13e8 to dba3f4d0bb5aa6fcfa18da2c1f7a9775--><g id="link_9f18a5ea59196197837bdbfebede13e8_dba3f4d0bb5aa6fcfa18da2c1f7a9775"><path codeLine="56" d="M1009.85,574.98 C1043.74,596.86 1164.98,675.14 1198.41,696.72 " fill="none" id="9f18a5ea59196197837bdbfebede13e8-dba3f4d0bb5aa6fcfa18da2c1f7a9775" style="stroke:#181818;stroke-width:1.0;"/><text fill="#000000" font-family="sans-serif" font-size="13" lengthAdjust="spacing" textLength="20" x="1117" y="640.3369">tcp</text></g><!--link ca625ae68e4d4a58f9ba859ff3420557 to e5b1c7fcc1453c77b2f0388027659c6e--><g id="link_ca625ae68e4d4a58f9ba859ff3420557_e5b1c7fcc1453c77b2f0388027659c6e"><path codeLine="57" d="M751,478.35 C725.76,510.41 699.01,544.4 687.21,559.38 " fill="none" id="ca625ae68e4d4a58f9ba859ff3420557-e5b1c7fcc1453c77b2f0388027659c6e" style="stroke:#181818;stroke-width:1.0;"/></g><!--link e5b1c7fcc1453c77b2f0388027659c6e to 1624c420083928ef3e240dd88f2e52f0--><g id="link_e5b1c7fcc1453c77b2f0388027659c6e_1624c420083928ef3e240dd88f2e52f0"><path codeLine="58" d="M672.08,576.42 C643.25,599.51 552.85,671.94 523.97,695.08 " fill="none" id="e5b1c7fcc1453c77b2f0388027659c6e-1624c420083928ef3e240dd88f2e52f0" style="stroke:#181818;stroke-width:1.0;"/><text fill="#000000" font-family="sans-serif" font-size="13" lengthAdjust="spacing" textLength="20" x="608" y="640.3369">tcp</text></g><!--link de82fbad4c9eebe0bd6d2fe66a3fe0aa to eec695b1c6be435e7982afe506db7e49--><g id="link_de82fbad4c9eebe0bd6d2fe66a3fe0aa_eec695b1c6be435e7982afe506db7e49"><path codeLine="59" d="M807,832.87 C807,858.02 807,902.16 807,927.29 " fill="none" id="de82fbad4c9eebe0bd6d2fe66a3fe0aa-eec695b1c6be435e7982afe506db7e49" style="stroke:#181818;stroke-width:1.0;"/><text fill="#000000" font-family="sans-serif" font-size="13" lengthAdjust="spacing" textLength="13" x="808" y="893.6269">ro</text></g><!--link ca625ae68e4d4a58f9ba859ff3420557 to de82fbad4c9eebe0bd6d2fe66a3fe0aa--><g id="link_ca625ae68e4d4a58f9ba859ff3420557_de82fbad4c9eebe0bd6d2fe66a3fe0aa"><path codeLine="60" d="M807,478.65 C807,574.17 807,731.93 807,787.13 " fill="none" id="ca625ae68e4d4a58f9ba859ff3420557-to-de82fbad4c9eebe0bd6d2fe66a3fe0aa" style="stroke:#181818;stroke-width:1.0;stroke-dasharray:7.0,7.0;"/><polygon fill="#181818" points="807,793.13,811,784.13,807,788.13,803,784.13,807,793.13" style="stroke:#181818;stroke-width:1.0;"/><text fill="#000000" font-family="sans-serif" font-size="13" lengthAdjust="spacing" textLength="23" x="808" y="640.3369">use</text></g><!--reverse link d9fe74bd71c5f1efd83d8f6cfdd7bef5 to d9c0e52dd15274d51041b489c7cea0ad--><g id="link_d9fe74bd71c5f1efd83d8f6cfdd7bef5_d9c0e52dd15274d51041b489c7cea0ad"><path codeLine="61" d="M1148,163.21 C1148,181.0225 1148,199.0881 1148,225.2505 C1148,231.7911 1148,238.4627 1148,245.2004 C1148,248.5693 1148,251.9547 1148,255.3485 C1148,257.0454 1148,258.7444 1148,260.4445 C1148,260.8695 1148,261.2946 1148,261.7197 " fill="none" id="d9fe74bd71c5f1efd83d8f6cfdd7bef5-backto-d9c0e52dd15274d51041b489c7cea0ad" style="stroke:#181818;stroke-width:1.0;"/><polygon fill="#181818" points="1148,157.21,1144,166.21,1148,162.21,1152,166.21,1148,157.21" style="stroke:#181818;stroke-width:1.0;"/><text fill="#000000" font-family="sans-serif" font-size="13" lengthAdjust="spacing" textLength="60" x="1149" y="234.2569">alias:['ui']</text></g><!--reverse link cab64c5af73a02ce213c72c614ccdc8f to d9c0e52dd15274d51041b489c7cea0ad--><g id="link_cab64c5af73a02ce213c72c614ccdc8f_d9c0e52dd15274d51041b489c7cea0ad"><path codeLine="62" d="M906.1136,151.9908 C989.1736,181.0408 1114.36,227.07 1129,246.19 C1131.6625,249.6675 1134.0693,253.3191 1136.2418,257.1101 C1136.7849,258.0579 1137.3134,259.0143 1137.8275,259.979 C1138.0846,260.4613 1138.3381,260.9457 1138.5881,261.4321 C1138.7131,261.6752 1138.8372,261.9189 1138.9604,262.1631 " fill="none" id="cab64c5af73a02ce213c72c614ccdc8f-backto-d9c0e52dd15274d51041b489c7cea0ad" style="stroke:#181818;stroke-width:1.0;"/><polygon fill="#181818" points="900.45,150.01,907.6248,156.757,905.1697,151.6607,910.2659,149.2055,900.45,150.01" style="stroke:#181818;stroke-width:1.0;"/></g><!--link b35f48e3c6ce7ce0a270b6dbdf087327 to 587516af1efac0b9293f31639c6c31f3--><g id="link_b35f48e3c6ce7ce0a270b6dbdf087327_587516af1efac0b9293f31639c6c31f3"><path codeLine="64" d="M1311.83,93.94 C1319.14,80.41 1329.08,64.3625 1341.4938,49.6163 C1347.7006,42.2431 1354.5259,35.1953 1361.9502,28.9502 C1365.6623,25.8276 1369.5241,22.9057 1373.5332,20.2441 C1374.5355,19.5787 1375.547,18.9296 1376.5676,18.2976 C1376.8228,18.1397 1377.0785,17.9828 1377.3348,17.8269 C1377.463,17.749 1377.5913,17.6714 1377.7197,17.594 " fill="none" id="b35f48e3c6ce7ce0a270b6dbdf087327-587516af1efac0b9293f31639c6c31f3" style="stroke:#181818;stroke-width:1.0;"/></g><!--SRC=[ZLPjQnj74Fv-l-BGbxG2sVl-OX93QDAG3ss3tL1A6ipipenxn3gvqYbkAVdltJj9hkoch2KXmMdccPTdvjc5cvlLtRBxi-klctw5rCxcSrwl-c4nTBIUpt_hdp_lQRXRhJ-TdyzQsBGOcRn9w6MsB8anQ0piCYFwH6plOG2NNVyr12MLLgoY1ri-u8qEqO0W0q58pleUOTiZSTSJVWt5aZLQMPTD492jzwW5UyTHAa79cptAk_LgISFljDrCNcHO2AT32Y05kHWDEG-iE6Y5LkRsxwRDg-NjggT-Q9D8Jcb70PA9KOaI2wLWhIDB20xQ3yryVdiVOJvlccu9rtJMZWzF__sdMTDcWFLmrcxx6zfi5fjXTNjBs3GVcs- -RMTHH37bLzfeq6ZZj5KkaS7a4cglefLOkXEQ0j8nvA6TdTAGZq9CxYbePpdQmagfXfcbGAyDIWbiZH37xezSdICmJjfIcWqsAfHM4sMLR4WCA9il-uw-MGD33_jXo8AimcAil2aXXP79X9Xz9X203zkPmIaBv4Afou0D71EKKCpQA66jdzfvlOC_wkN-oUd-ztzxIVtdhepkieGwQzzyVtNv-hlt5sz__lNgvQiVtlvuzVxozSMBQIXhbkzUNbx-yjF5gnU7Y0UMoclVAyJW71CPAZrEM3OY6-a5I8YGOBAMof-8yfPdGOGTkwMt0Io1ZJ8w6NtGFc5YIeGaDON_-0cnYELhDxesoUmvPscipjudnKA789HtDcP7ZqVZqBR2y-TkqwtwikEd20DiLjjrfXthI45n0ZGvKab397Iec9m3pIG0xbb_LHmp3BlL2zvA1-FsGnOfggXPIwTB5bbBrezOvx9iDlaHdXrOEIuz6UqWQhGO9jR7l71rVSJw_idf_dVauCl3NL7E8vNoaxD5EJmggGEHrSOeLpApa_M-yvXAGGP5IXR0SMQG0K5boHwYzmVRVQkbKuLF9KJGKGLYJSg8GdbWLQQTZzVevF4UAJ28YNBoPTYBG0KNjCKY6Xv3ePwFV4VFgx6-oH6aCI67PB5iCI3e6AZiBh54hRpF3u9U7orXsL8Nn-4O1KDRyZ4eOBB2OUcwYKrLnXQug2jFpM12gN9IKwWTIgM7xLaxMwzczS9EJl3avBmgYoFUTaEpfYQ2KtOregRixfwUNJNe8RlguRNOBiwBoYPdiWNs6eJAL2Z8NcKdJSwOmzGykEbWS_RXsJXy2JRqxEDJqMk7zp7wyg_D7pTFXwwTwCVGs_vJlxhhH_3ggJ9oLbNUci64KbEHCSCXtpunfwgWrmmcb9fMtUTKa_fTJXKjEMnUjS3zR5U37cQxUfEOHgHs-Nmm8jqu7K_3hUtC_PMqmqzVkumcRTa4qkK0f08iGFco_9YGHV1559gQGRkedgh_0000]--></g></svg>