<svg xmlns="http://www.w3.org/2000/svg" xmlns:xlink="http://www.w3.org/1999/xlink" contentStyleType="text/css" height="1005px" preserveAspectRatio="none" style="width:1593px;height:1005px;background:#FFFFFF;" version="1.1" viewBox="0 0 1593 1005" width="1593px" zoomAndPan="magnify"><defs/><g><!--cluster e4f00638b8a10e6994e67af2f832d51c--><g id="cluster_e4f00638b8a10e6994e67af2f832d51c"><polygon fill="none" points="16,304.78,26,294.78,375,294.78,375,879.15,365,889.15,16,889.15,16,304.78" style="stroke:#181818;stroke-width:1.0;"/><line style="stroke:#181818;stroke-width:1.0;" x1="365" x2="375" y1="304.78" y2="294.78"/><line style="stroke:#181818;stroke-width:1.0;" x1="16" x2="365" y1="304.78" y2="304.78"/><line style="stroke:#181818;stroke-width:1.0;" x1="365" x2="365" y1="304.78" y2="889.15"/><text fill="#000000" font-family="sans-serif" font-size="14" font-weight="bold" lengthAdjust="spacing" textLength="96" x="143.5" y="320.7751">Prometheus</text></g><!--cluster d9c0e52dd15274d51041b489c7cea0ad--><g id="cluster_d9c0e52dd15274d51041b489c7cea0ad"><polygon fill="none" points="566,272.18,576,262.18,1067,262.18,1067,879.15,1057,889.15,566,889.15,566,272.18" style="stroke:#181818;stroke-width:1.0;"/><line style="stroke:#181818;stroke-width:1.0;" x1="1057" x2="1067" y1="272.18" y2="262.18"/><line style="stroke:#181818;stroke-width:1.0;" x1="566" x2="1057" y1="272.18" y2="272.18"/><line style="stroke:#181818;stroke-width:1.0;" x1="1057" x2="1057" y1="272.18" y2="889.15"/><text fill="#000000" font-family="sans-serif" font-size="14" font-weight="bold" lengthAdjust="spacing" textLength="62" x="781.5" y="288.1751">Grafana</text></g><!--cluster 587516af1efac0b9293f31639c6c31f3--><g id="cluster_587516af1efac0b9293f31639c6c31f3"><polygon fill="none" points="1299,16,1309,6,1576,6,1576,187.18,1566,197.18,1299,197.18,1299,16" style="stroke:#181818;stroke-width:1.0;"/><line style="stroke:#181818;stroke-width:1.0;" x1="1566" x2="1576" y1="16" y2="6"/><line style="stroke:#181818;stroke-width:1.0;" x1="1299" x2="1566" y1="16" y2="16"/><line style="stroke:#181818;stroke-width:1.0;" x1="1566" x2="1566" y1="16" y2="197.18"/><text fill="#000000" font-family="sans-serif" font-size="14" font-weight="bold" lengthAdjust="spacing" textLength="65" x="1401" y="31.9951">Datadog</text></g><!--entity b0b6236e8ab49920c48d10f339f1a86a--><g id="elem_b0b6236e8ab49920c48d10f339f1a86a"><rect fill="#F1F1F1" height="111.4844" rx="2.5" ry="2.5" style="stroke:#181818;stroke-width:0.5;" width="217" x="114.5" y="366.78"/><rect fill="#F1F1F1" height="10" style="stroke:#181818;stroke-width:0.5;" width="15" x="311.5" y="371.78"/><rect fill="#F1F1F1" height="2" style="stroke:#181818;stroke-width:0.5;" width="4" x="309.5" y="373.78"/><rect fill="#F1F1F1" height="2" style="stroke:#181818;stroke-width:0.5;" width="4" x="309.5" y="377.78"/><text fill="#000000" font-family="sans-serif" font-size="14" font-weight="bold" lengthAdjust="spacing" textLength="96" x="129.5" y="399.7751">prometheus</text><text fill="#000000" font-family="sans-serif" font-size="14" lengthAdjust="spacing" textLength="4" x="129.5" y="416.072">&#160;</text><text fill="#000000" font-family="sans-serif" font-size="14" lengthAdjust="spacing" textLength="177" x="129.5" y="432.3689">image: prom/prometheus</text><text fill="#000000" font-family="sans-serif" font-size="14" lengthAdjust="spacing" textLength="163" x="129.5" y="448.6657">restart: unless-stopped</text><text fill="#000000" font-family="sans-serif" font-size="14" lengthAdjust="spacing" textLength="4" x="129.5" y="464.9626">&#160;</text></g><!--entity cfd4d43463526be4db6bd372951d8018--><g id="elem_cfd4d43463526be4db6bd372951d8018"><ellipse cx="308" cy="600.86" fill="#F1F1F1" rx="8" ry="8" style="stroke:#181818;stroke-width:0.5;"/><text fill="#000000" font-family="sans-serif" font-size="14" lengthAdjust="spacing" textLength="36" x="290" y="630.8551">9090</text></g><!--entity b8365f95fd8d51fff10d734d11af5400--><g id="elem_b8365f95fd8d51fff10d734d11af5400"><rect fill="#F1F1F1" height="39.2969" rx="2.5" ry="2.5" style="stroke:#181818;stroke-width:0.5;" width="147" x="195.5" y="825.86"/><polygon fill="#F1F1F1" points="325.5,830.86,325.5,844.86,337.5,844.86,337.5,836.86,331.5,830.86,325.5,830.86" style="stroke:#181818;stroke-width:0.5;"/><line style="stroke:#181818;stroke-width:0.5;" x1="331.5" x2="331.5" y1="830.86" y2="836.86"/><line style="stroke:#181818;stroke-width:0.5;" x1="337.5" x2="331.5" y1="836.86" y2="836.86"/><text fill="#000000" font-family="sans-serif" font-size="14" lengthAdjust="spacing" textLength="117" x="205.5" y="851.8551">/etc/prometheus</text></g><!--entity 66ea46159f158592d153eec2b58bfad1--><g id="elem_66ea46159f158592d153eec2b58bfad1"><rect fill="#F1F1F1" height="39.2969" rx="2.5" ry="2.5" style="stroke:#181818;stroke-width:0.5;" width="120" x="40" y="825.86"/><polygon fill="#F1F1F1" points="143,830.86,143,844.86,155,844.86,155,836.86,149,830.86,143,830.86" style="stroke:#181818;stroke-width:0.5;"/><line style="stroke:#181818;stroke-width:0.5;" x1="149" x2="149" y1="830.86" y2="836.86"/><line style="stroke:#181818;stroke-width:0.5;" x1="155" x2="149" y1="836.86" y2="836.86"/><text fill="#000000" font-family="sans-serif" font-size="14" lengthAdjust="spacing" textLength="90" x="50" y="851.8551">/prometheus</text></g><!--entity ca625ae68e4d4a58f9ba859ff3420557--><g id="elem_ca625ae68e4d4a58f9ba859ff3420557"><rect fill="#F1F1F1" height="176.6719" rx="2.5" ry="2.5" style="stroke:#181818;stroke-width:0.5;" width="434" x="590" y="334.18"/><rect fill="#F1F1F1" height="10" style="stroke:#181818;stroke-width:0.5;" width="15" x="1004" y="339.18"/><rect fill="#F1F1F1" height="2" style="stroke:#181818;stroke-width:0.5;" width="4" x="1002" y="341.18"/><rect fill="#F1F1F1" height="2" style="stroke:#181818;stroke-width:0.5;" width="4" x="1002" y="345.18"/><text fill="#000000" font-family="sans-serif" font-size="14" font-weight="bold" lengthAdjust="spacing" textLength="60" x="605" y="367.1751">grafana</text><text fill="#000000" font-family="sans-serif" font-size="14" lengthAdjust="spacing" textLength="4" x="605" y="383.472">&#160;</text><text fill="#000000" font-family="sans-serif" font-size="14" lengthAdjust="spacing" textLength="158" x="605" y="399.7689">image: grafana/grafana</text><text fill="#000000" font-family="sans-serif" font-size="14" lengthAdjust="spacing" textLength="131" x="605" y="416.0657">restart: ifCapitalism</text><text fill="#000000" font-family="sans-serif" font-size="14" lengthAdjust="spacing" textLength="4" x="605" y="432.3626">&#160;</text><text fill="#000000" font-family="sans-serif" font-size="14" lengthAdjust="spacing" textLength="342" x="605" y="448.6595">environment: GF_SECURITY_ADMIN_USER=admin</text><text fill="#000000" font-family="sans-serif" font-size="14" lengthAdjust="spacing" textLength="394" x="605" y="464.9564">environment: GF_SECURITY_ADMIN_PASSWORD=grafana</text><text fill="#000000" font-family="sans-serif" font-size="14" lengthAdjust="spacing" textLength="140" x="605" y="481.2532">text: propertyIsTheft</text><text fill="#000000" font-family="sans-serif" font-size="14" lengthAdjust="spacing" textLength="4" x="605" y="497.5501">&#160;</text></g><!--entity 9f18a5ea59196197837bdbfebede13e8--><g id="elem_9f18a5ea59196197837bdbfebede13e8"><ellipse cx="934" cy="600.86" fill="#F1F1F1" rx="8" ry="8" style="stroke:#181818;stroke-width:0.5;"/><text fill="#000000" font-family="sans-serif" font-size="14" lengthAdjust="spacing" textLength="107" x="880.5" y="630.8551">127.0.0.1:8080</text></g><!--entity e5b1c7fcc1453c77b2f0388027659c6e--><g id="elem_e5b1c7fcc1453c77b2f0388027659c6e"><ellipse cx="681" cy="600.86" fill="#F1F1F1" rx="8" ry="8" style="stroke:#181818;stroke-width:0.5;"/><text fill="#000000" font-family="sans-serif" font-size="14" lengthAdjust="spacing" textLength="148" x="607" y="630.8551">127.0.0.1:8000-9000</text></g><!--entity de82fbad4c9eebe0bd6d2fe66a3fe0aa--><g id="elem_de82fbad4c9eebe0bd6d2fe66a3fe0aa"><rect fill="#F1F1F1" height="39.2969" rx="2.5" ry="2.5" style="stroke:#181818;stroke-width:0.5;" width="292" x="661" y="825.86"/><polygon fill="#F1F1F1" points="936,830.86,936,844.86,948,844.86,948,836.86,942,830.86,936,830.86" style="stroke:#181818;stroke-width:0.5;"/><line style="stroke:#181818;stroke-width:0.5;" x1="942" x2="942" y1="830.86" y2="836.86"/><line style="stroke:#181818;stroke-width:0.5;" x1="948" x2="942" y1="836.86" y2="836.86"/><text fill="#000000" font-family="sans-serif" font-size="14" lengthAdjust="spacing" textLength="262" x="671" y="851.8551">/etc/grafana/provisioning/datasources</text></g><!--entity cfb8a5b7ebe0f6a517a5ae436a93d5d8--><g id="elem_cfb8a5b7ebe0f6a517a5ae436a93d5d8"><rect fill="#F1F1F1" height="95.1875" rx="2.5" ry="2.5" style="stroke:#181818;stroke-width:0.5;" width="210" x="1323" y="78"/><rect fill="#F1F1F1" height="10" style="stroke:#181818;stroke-width:0.5;" width="15" x="1513" y="83"/><rect fill="#F1F1F1" height="2" style="stroke:#181818;stroke-width:0.5;" width="4" x="1511" y="85"/><rect fill="#F1F1F1" height="2" style="stroke:#181818;stroke-width:0.5;" width="4" x="1511" y="89"/><text fill="#000000" font-family="sans-serif" font-size="14" font-weight="bold" lengthAdjust="spacing" textLength="64" x="1338" y="110.9951">datadog</text><text fill="#000000" font-family="sans-serif" font-size="14" lengthAdjust="spacing" textLength="4" x="1338" y="127.292">&#160;</text><text fill="#000000" font-family="sans-serif" font-size="14" lengthAdjust="spacing" textLength="170" x="1338" y="143.5889">image: datadog/datadog</text><text fill="#000000" font-family="sans-serif" font-size="14" lengthAdjust="spacing" textLength="4" x="1338" y="159.8857">&#160;</text></g><!--entity d9fe74bd71c5f1efd83d8f6cfdd7bef5--><g id="elem_d9fe74bd71c5f1efd83d8f6cfdd7bef5"><polygon fill="#F1F1F1" points="1002,104.29,1012,94.29,1116,94.29,1116,146.8838,1106,156.8838,1002,156.8838,1002,104.29" style="stroke:#181818;stroke-width:0.5;"/><line style="stroke:#181818;stroke-width:0.5;" x1="1106" x2="1116" y1="104.29" y2="94.29"/><line style="stroke:#181818;stroke-width:0.5;" x1="1002" x2="1106" y1="104.29" y2="104.29"/><line style="stroke:#181818;stroke-width:0.5;" x1="1106" x2="1106" y1="104.29" y2="156.8838"/><text fill="#000000" font-family="sans-serif" font-size="14" font-weight="bold" lengthAdjust="spacing" textLength="72" x="1017" y="127.2851">front-tier</text><text fill="#000000" font-family="sans-serif" font-size="14" lengthAdjust="spacing" textLength="74" x="1017" y="143.582">&#171;network&#187;</text></g><!--entity 21232f297a57a5a743894a0e4a801fc3--><g id="elem_21232f297a57a5a743894a0e4a801fc3"><polygon fill="#F1F1F1" points="362,104.29,372,94.29,476,94.29,476,146.8838,466,156.8838,362,156.8838,362,104.29" style="stroke:#181818;stroke-width:0.5;"/><line style="stroke:#181818;stroke-width:0.5;" x1="466" x2="476" y1="104.29" y2="94.29"/><line style="stroke:#181818;stroke-width:0.5;" x1="362" x2="466" y1="104.29" y2="104.29"/><line style="stroke:#181818;stroke-width:0.5;" x1="466" x2="466" y1="104.29" y2="156.8838"/><text fill="#000000" font-family="sans-serif" font-size="14" font-weight="bold" lengthAdjust="spacing" textLength="47" x="377" y="127.2851">admin</text><text fill="#000000" font-family="sans-serif" font-size="14" lengthAdjust="spacing" textLength="74" x="377" y="143.582">&#171;network&#187;</text></g><!--entity 5e543256c480ac577d30f76f9120eb74--><g id="elem_5e543256c480ac577d30f76f9120eb74"><polygon fill="#F1F1F1" points="207,104.29,217,94.29,327,94.29,327,146.8838,317,156.8838,207,156.8838,207,104.29" style="stroke:#181818;stroke-width:0.5;"/><line style="stroke:#181818;stroke-width:0.5;" x1="317" x2="327" y1="104.29" y2="94.29"/><line style="stroke:#181818;stroke-width:0.5;" x1="207" x2="317" y1="104.29" y2="104.29"/><line style="stroke:#181818;stroke-width:0.5;" x1="317" x2="317" y1="104.29" y2="156.8838"/><text fill="#000000" font-family="sans-serif" font-size="14" font-weight="bold" lengthAdjust="spacing" textLength="80" x="222" y="127.2851">undefined</text><text fill="#000000" font-family="sans-serif" font-size="14" lengthAdjust="spacing" textLength="74" x="222" y="143.582">&#171;network&#187;</text></g><!--entity 267de027b65a807d2138ee534426efa5--><g id="elem_267de027b65a807d2138ee534426efa5"><ellipse cx="426" cy="735.86" fill="#F1F1F1" rx="8" ry="8" style="stroke:#181818;stroke-width:0.5;"/><text fill="#000000" font-family="sans-serif" font-size="14" lengthAdjust="spacing" textLength="36" x="408" y="765.8551">9090</text></g><!--entity dba3f4d0bb5aa6fcfa18da2c1f7a9775--><g id="elem_dba3f4d0bb5aa6fcfa18da2c1f7a9775"><ellipse cx="1118" cy="735.86" fill="#F1F1F1" rx="8" ry="8" style="stroke:#181818;stroke-width:0.5;"/><text fill="#000000" font-family="sans-serif" font-size="14" lengthAdjust="spacing" textLength="18" x="1109" y="765.8551">80</text></g><!--entity 1624c420083928ef3e240dd88f2e52f0--><g id="elem_1624c420083928ef3e240dd88f2e52f0"><ellipse cx="515" cy="735.86" fill="#F1F1F1" rx="8" ry="8" style="stroke:#181818;stroke-width:0.5;"/><text fill="#000000" font-family="sans-serif" font-size="14" lengthAdjust="spacing" textLength="36" x="497" y="765.8551">8000</text></g><!--entity 2a4ddbecb762532586835d0f37d85eaf--><g id="elem_2a4ddbecb762532586835d0f37d85eaf"><rect fill="#F1F1F1" height="39.2969" rx="2.5" ry="2.5" style="stroke:#181818;stroke-width:0.5;" width="124" x="207" y="960.15"/><polygon fill="#F1F1F1" points="314,965.15,314,979.15,326,979.15,326,971.15,320,965.15,314,965.15" style="stroke:#181818;stroke-width:0.5;"/><line style="stroke:#181818;stroke-width:0.5;" x1="320" x2="320" y1="965.15" y2="971.15"/><line style="stroke:#181818;stroke-width:0.5;" x1="326" x2="320" y1="971.15" y2="971.15"/><text fill="#000000" font-family="sans-serif" font-size="14" lengthAdjust="spacing" textLength="94" x="217" y="986.1451">./prometheus</text></g><!--entity a1448c8b5db83ada398e734ef1d3277c--><g id="elem_a1448c8b5db83ada398e734ef1d3277c"><rect fill="#F1F1F1" height="39.2969" rx="2.5" ry="2.5" style="stroke:#181818;stroke-width:0.5;" width="103" x="48.5" y="960.15"/><polygon fill="#F1F1F1" points="134.5,965.15,134.5,979.15,146.5,979.15,146.5,971.15,140.5,965.15,134.5,965.15" style="stroke:#181818;stroke-width:0.5;"/><line style="stroke:#181818;stroke-width:0.5;" x1="140.5" x2="140.5" y1="965.15" y2="971.15"/><line style="stroke:#181818;stroke-width:0.5;" x1="146.5" x2="140.5" y1="971.15" y2="971.15"/><text fill="#000000" font-family="sans-serif" font-size="14" lengthAdjust="spacing" textLength="73" x="58.5" y="986.1451">prom_data</text></g><!--entity eec695b1c6be435e7982afe506db7e49--><g id="elem_eec695b1c6be435e7982afe506db7e49"><rect fill="#F1F1F1" height="39.2969" rx="2.5" ry="2.5" style="stroke:#181818;stroke-width:0.5;" width="90" x="762" y="960.15"/><polygon fill="#F1F1F1" points="835,965.15,835,979.15,847,979.15,847,971.15,841,965.15,835,965.15" style="stroke:#181818;stroke-width:0.5;"/><line style="stroke:#181818;stroke-width:0.5;" x1="841" x2="841" y1="965.15" y2="971.15"/><line style="stroke:#181818;stroke-width:0.5;" x1="847" x2="841" y1="971.15" y2="971.15"/><text fill="#000000" font-family="sans-serif" font-size="14" lengthAdjust="spacing" textLength="60" x="772" y="986.1451">./grafana</text></g><!--class cab64c5af73a02ce213c72c614ccdc8f--><g id="elem_cab64c5af73a02ce213c72c614ccdc8f"><rect fill="#F1F1F1" height="48" id="cab64c5af73a02ce213c72c614ccdc8f" rx="2.5" ry="2.5" style="stroke:#181818;stroke-width:0.5;" width="299" x="615.5" y="101.59"/><ellipse cx="630.5" cy="117.59" fill="#ADD1B2" rx="11" ry="11" style="stroke:#181818;stroke-width:1.0;"/><path d="M633.4688,123.2306 Q632.8906,123.5275 632.25,123.6681 Q631.6094,123.8244 630.9063,123.8244 Q628.4063,123.8244 627.0781,122.1838 Q625.7656,120.5275 625.7656,117.4025 Q625.7656,114.2775 627.0781,112.6213 Q628.4063,110.965 630.9063,110.965 Q631.6094,110.965 632.25,111.1213 Q632.9063,111.2775 633.4688,111.5744 L633.4688,114.2931 Q632.8438,113.715 632.25,113.4494 Q631.6563,113.1681 631.0313,113.1681 Q629.6875,113.1681 629,114.2463 Q628.3125,115.3088 628.3125,117.4025 Q628.3125,119.4963 629,120.5744 Q629.6875,121.6369 631.0313,121.6369 Q631.6563,121.6369 632.25,121.3713 Q632.8438,121.09 633.4688,120.5119 L633.4688,123.2306 Z " fill="#000000"/><text fill="#000000" font-family="sans-serif" font-size="14" lengthAdjust="spacing" textLength="267" x="644.5" y="122.4367">cab64c5af73a02ce213c72c614ccdc8f</text><line style="stroke:#181818;stroke-width:0.5;" x1="616.5" x2="913.5" y1="133.59" y2="133.59"/><line style="stroke:#181818;stroke-width:0.5;" x1="616.5" x2="913.5" y1="141.59" y2="141.59"/></g><!--entity c1c33861990afdc12510b7acefc079aa--><g id="elem_c1c33861990afdc12510b7acefc079aa"><polygon fill="#F1F1F1" points="1150.5,104.29,1160.5,94.29,1275.5,94.29,1275.5,146.8838,1265.5,156.8838,1150.5,156.8838,1150.5,104.29" style="stroke:#181818;stroke-width:0.5;"/><line style="stroke:#181818;stroke-width:0.5;" x1="1265.5" x2="1275.5" y1="104.29" y2="94.29"/><line style="stroke:#181818;stroke-width:0.5;" x1="1150.5" x2="1265.5" y1="104.29" y2="104.29"/><line style="stroke:#181818;stroke-width:0.5;" x1="1265.5" x2="1265.5" y1="104.29" y2="156.8838"/><text fill="#000000" font-family="sans-serif" font-size="14" font-weight="bold" lengthAdjust="spacing" textLength="85" x="1165.5" y="127.2851">MyElement</text><text fill="#000000" font-family="sans-serif" font-size="14" lengthAdjust="spacing" textLength="74" x="1165.5" y="143.582">&#171;network&#187;</text></g><!--link b0b6236e8ab49920c48d10f339f1a86a to cfd4d43463526be4db6bd372951d8018--><g id="link_b0b6236e8ab49920c48d10f339f1a86a_cfd4d43463526be4db6bd372951d8018"><path codeLine="47" d="M249.43,478.35 C269.31,519.6 294.7,572.26 304.19,591.96 " fill="none" id="b0b6236e8ab49920c48d10f339f1a86a-cfd4d43463526be4db6bd372951d8018" style="stroke:#181818;stroke-width:1.0;"/></g><!--link cfd4d43463526be4db6bd372951d8018 to 267de027b65a807d2138ee534426efa5--><g id="link_cfd4d43463526be4db6bd372951d8018_267de027b65a807d2138ee534426efa5"><path codeLine="48" d="M315.03,609.78 C336.07,633.49 398.36,703.71 419.16,727.14 " fill="none" id="cfd4d43463526be4db6bd372951d8018-267de027b65a807d2138ee534426efa5" style="stroke:#181818;stroke-width:1.0;"/></g><!--link b8365f95fd8d51fff10d734d11af5400 to 2a4ddbecb762532586835d0f37d85eaf--><g id="link_b8365f95fd8d51fff10d734d11af5400_2a4ddbecb762532586835d0f37d85eaf"><path codeLine="49" d="M269,865.46 C269,890.61 269,934.75 269,959.88 " fill="none" id="b8365f95fd8d51fff10d734d11af5400-2a4ddbecb762532586835d0f37d85eaf" style="stroke:#181818;stroke-width:1.0;"/><text fill="#000000" font-family="sans-serif" font-size="13" lengthAdjust="spacing" textLength="13" x="270" y="926.2169">ro</text></g><!--link b0b6236e8ab49920c48d10f339f1a86a to b8365f95fd8d51fff10d734d11af5400--><g id="link_b0b6236e8ab49920c48d10f339f1a86a_b8365f95fd8d51fff10d734d11af5400"><path codeLine="50" d="M229.01,478.56 C239.41,573.72 259.6284,758.7155 266.2684,819.4955 " fill="none" id="b0b6236e8ab49920c48d10f339f1a86a-to-b8365f95fd8d51fff10d734d11af5400" style="stroke:#181818;stroke-width:1.0;stroke-dasharray:7.0,7.0;"/><polygon fill="#181818" points="266.92,825.46,269.9189,816.0788,266.377,820.4896,261.9663,816.9476,266.92,825.46" style="stroke:#181818;stroke-width:1.0;"/><text fill="#000000" font-family="sans-serif" font-size="13" lengthAdjust="spacing" textLength="23" x="252" y="672.9269">use</text></g><!--link 66ea46159f158592d153eec2b58bfad1 to a1448c8b5db83ada398e734ef1d3277c--><g id="link_66ea46159f158592d153eec2b58bfad1_a1448c8b5db83ada398e734ef1d3277c"><path codeLine="51" d="M100,865.46 C100,890.61 100,934.75 100,959.88 " fill="none" id="66ea46159f158592d153eec2b58bfad1-a1448c8b5db83ada398e734ef1d3277c" style="stroke:#181818;stroke-width:1.0;"/><text fill="#000000" font-family="sans-serif" font-size="13" lengthAdjust="spacing" textLength="14" x="101" y="926.2169">rw</text></g><!--link b0b6236e8ab49920c48d10f339f1a86a to 66ea46159f158592d153eec2b58bfad1--><g id="link_b0b6236e8ab49920c48d10f339f1a86a_66ea46159f158592d153eec2b58bfad1"><path codeLine="52" d="M206.92,478.56 C179.11,573.72 125.0028,758.9208 107.2428,819.7008 " fill="none" id="b0b6236e8ab49920c48d10f339f1a86a-to-66ea46159f158592d153eec2b58bfad1" style="stroke:#181818;stroke-width:1.0;stroke-dasharray:7.0,7.0;"/><polygon fill="#181818" points="105.56,825.46,111.9237,817.9431,106.9624,820.6607,104.2448,815.6994,105.56,825.46" style="stroke:#181818;stroke-width:1.0;"/><text fill="#000000" font-family="sans-serif" font-size="13" lengthAdjust="spacing" textLength="23" x="155" y="672.9269">use</text></g><!--reverse link cab64c5af73a02ce213c72c614ccdc8f to e4f00638b8a10e6994e67af2f832d51c--><g id="link_cab64c5af73a02ce213c72c614ccdc8f_e4f00638b8a10e6994e67af2f832d51c"><path codeLine="53" d="M718.8472,152.953 C679.3972,175.963 623.75,209.83 574,246.18 C526.09,281.195 475.195,324.2175 435.86,358.8825 C416.1925,376.215 399.415,391.4581 387.3456,402.5663 C384.3283,405.3433 381.6052,407.8619 379.2048,410.0901 C378.0046,411.2042 376.885,412.2457 375.8497,413.2106 C375.5909,413.4518 375.3373,413.6882 375.089,413.9198 " fill="none" id="cab64c5af73a02ce213c72c614ccdc8f-backto-e4f00638b8a10e6994e67af2f832d51c" style="stroke:#181818;stroke-width:1.0;"/><polygon fill="#181818" points="724.03,149.93,714.2405,151.0093,719.711,152.4492,718.2711,157.9197,724.03,149.93" style="stroke:#181818;stroke-width:1.0;"/><text fill="#000000" font-family="sans-serif" font-size="13" lengthAdjust="spacing" textLength="109" x="610" y="234.2469">alias:['database']</text></g><!--reverse link 21232f297a57a5a743894a0e4a801fc3 to e4f00638b8a10e6994e67af2f832d51c--><g id="link_21232f297a57a5a743894a0e4a801fc3_e4f00638b8a10e6994e67af2f832d51c"><path codeLine="54" d="M412.5382,163.2289 C405.9832,200.4089 395.6375,259.0825 385.7625,315.0863 C383.2938,329.0872 380.9195,342.552 378.739,354.9183 C377.6487,361.1015 376.6069,367.0101 375.6258,372.5739 C375.5032,373.2693 375.3815,373.9594 375.2608,374.644 C375.2004,374.9862 375.1403,375.3271 375.0805,375.6666 " fill="none" id="21232f297a57a5a743894a0e4a801fc3-backto-e4f00638b8a10e6994e67af2f832d51c" style="stroke:#181818;stroke-width:1.0;"/><polygon fill="#181818" points="413.58,157.32,408.0781,165.4888,412.7119,162.2441,415.9566,166.8778,413.58,157.32" style="stroke:#181818;stroke-width:1.0;"/><text fill="#000000" font-family="sans-serif" font-size="13" lengthAdjust="spacing" textLength="87" x="404" y="234.2469">alias:['mysql']</text></g><!--reverse link 5e543256c480ac577d30f76f9120eb74 to e4f00638b8a10e6994e67af2f832d51c--><g id="link_5e543256c480ac577d30f76f9120eb74_e4f00638b8a10e6994e67af2f832d51c"><path codeLine="55" d="M262.7402,163.2309 C261.3402,188.6609 264.4,217.83 286,238.18 C297.88,249.38 347.83,234.28 359,246.18 C385.275,274.18 387.6225,317.0925 383.2313,353.455 C382.1334,362.5456 380.6145,371.2269 378.9429,379.1634 C378.1071,383.1317 377.2331,386.9137 376.3546,390.4677 C375.9154,392.2447 375.475,393.9647 375.0376,395.6224 " fill="none" id="5e543256c480ac577d30f76f9120eb74-backto-e4f00638b8a10e6994e67af2f832d51c" style="stroke:#181818;stroke-width:1.0;"/><polygon fill="#181818" points="263.07,157.24,258.5813,166.0065,262.7952,162.2324,266.5692,166.4463,263.07,157.24" style="stroke:#181818;stroke-width:1.0;"/><text fill="#000000" font-family="sans-serif" font-size="13" lengthAdjust="spacing" textLength="105" x="287" y="234.2469">alias:['unknown']</text></g><!--link ca625ae68e4d4a58f9ba859ff3420557 to 9f18a5ea59196197837bdbfebede13e8--><g id="link_ca625ae68e4d4a58f9ba859ff3420557_9f18a5ea59196197837bdbfebede13e8"><path codeLine="56" d="M870.13,511.17 C894.03,544.36 918.01,577.65 928.5,592.22 " fill="none" id="ca625ae68e4d4a58f9ba859ff3420557-9f18a5ea59196197837bdbfebede13e8" style="stroke:#181818;stroke-width:1.0;"/></g><!--link 9f18a5ea59196197837bdbfebede13e8 to dba3f4d0bb5aa6fcfa18da2c1f7a9775--><g id="link_9f18a5ea59196197837bdbfebede13e8_dba3f4d0bb5aa6fcfa18da2c1f7a9775"><path codeLine="57" d="M942.87,608.27 C974.03,630.79 1078.2,706.09 1109.21,728.51 " fill="none" id="9f18a5ea59196197837bdbfebede13e8-dba3f4d0bb5aa6fcfa18da2c1f7a9775" style="stroke:#181818;stroke-width:1.0;"/><text fill="#000000" font-family="sans-serif" font-size="13" lengthAdjust="spacing" textLength="20" x="1038" y="672.9269">tcp</text></g><!--link ca625ae68e4d4a58f9ba859ff3420557 to e5b1c7fcc1453c77b2f0388027659c6e--><g id="link_ca625ae68e4d4a58f9ba859ff3420557_e5b1c7fcc1453c77b2f0388027659c6e"><path codeLine="58" d="M744.37,511.17 C720.65,544.36 696.87,577.65 686.45,592.22 " fill="none" id="ca625ae68e4d4a58f9ba859ff3420557-e5b1c7fcc1453c77b2f0388027659c6e" style="stroke:#181818;stroke-width:1.0;"/></g><!--link e5b1c7fcc1453c77b2f0388027659c6e to 1624c420083928ef3e240dd88f2e52f0--><g id="link_e5b1c7fcc1453c77b2f0388027659c6e_1624c420083928ef3e240dd88f2e52f0"><path codeLine="59" d="M672.08,609.01 C643.25,632.1 552.85,704.53 523.97,727.67 " fill="none" id="e5b1c7fcc1453c77b2f0388027659c6e-1624c420083928ef3e240dd88f2e52f0" style="stroke:#181818;stroke-width:1.0;"/><text fill="#000000" font-family="sans-serif" font-size="13" lengthAdjust="spacing" textLength="20" x="608" y="672.9269">tcp</text></g><!--link de82fbad4c9eebe0bd6d2fe66a3fe0aa to eec695b1c6be435e7982afe506db7e49--><g id="link_de82fbad4c9eebe0bd6d2fe66a3fe0aa_eec695b1c6be435e7982afe506db7e49"><path codeLine="60" d="M807,865.46 C807,890.61 807,934.75 807,959.88 " fill="none" id="de82fbad4c9eebe0bd6d2fe66a3fe0aa-eec695b1c6be435e7982afe506db7e49" style="stroke:#181818;stroke-width:1.0;"/><text fill="#000000" font-family="sans-serif" font-size="13" lengthAdjust="spacing" textLength="13" x="808" y="926.2169">ro</text></g><!--link ca625ae68e4d4a58f9ba859ff3420557 to de82fbad4c9eebe0bd6d2fe66a3fe0aa--><g id="link_ca625ae68e4d4a58f9ba859ff3420557_de82fbad4c9eebe0bd6d2fe66a3fe0aa"><path codeLine="61" d="M807,511.26 C807,612.23 807,765.12 807,819.51 " fill="none" id="ca625ae68e4d4a58f9ba859ff3420557-to-de82fbad4c9eebe0bd6d2fe66a3fe0aa" style="stroke:#181818;stroke-width:1.0;stroke-dasharray:7.0,7.0;"/><polygon fill="#181818" points="807,825.51,811,816.51,807,820.51,803,816.51,807,825.51" style="stroke:#181818;stroke-width:1.0;"/><text fill="#000000" font-family="sans-serif" font-size="13" lengthAdjust="spacing" textLength="23" x="808" y="672.9269">use</text></g><!--reverse link d9fe74bd71c5f1efd83d8f6cfdd7bef5 to d9c0e52dd15274d51041b489c7cea0ad--><g id="link_d9fe74bd71c5f1efd83d8f6cfdd7bef5_d9c0e52dd15274d51041b489c7cea0ad"><path codeLine="62" d="M1059,163.32 C1059,181.91 1059,201.3506 1059,229.1442 C1059,236.0926 1059,243.1881 1059,250.3603 C1059,253.9464 1059,257.5518 1059,261.1675 " fill="none" id="d9fe74bd71c5f1efd83d8f6cfdd7bef5-backto-d9c0e52dd15274d51041b489c7cea0ad" style="stroke:#181818;stroke-width:1.0;"/><polygon fill="#181818" points="1059,157.32,1055,166.32,1059,162.32,1063,166.32,1059,157.32" style="stroke:#181818;stroke-width:1.0;"/><text fill="#000000" font-family="sans-serif" font-size="13" lengthAdjust="spacing" textLength="60" x="1060" y="234.2469">alias:['ui']</text></g><!--reverse link cab64c5af73a02ce213c72c614ccdc8f to d9c0e52dd15274d51041b489c7cea0ad--><g id="link_cab64c5af73a02ce213c72c614ccdc8f_d9c0e52dd15274d51041b489c7cea0ad"><path codeLine="63" d="M833.3762,152.1879 C910.3162,181.5279 1026.6,227.97 1040,246.18 C1042.8575,250.065 1045.4353,254.1357 1047.757,258.3544 C1048.3375,259.4091 1048.9019,260.4731 1049.4507,261.5457 " fill="none" id="cab64c5af73a02ce213c72c614ccdc8f-backto-d9c0e52dd15274d51041b489c7cea0ad" style="stroke:#181818;stroke-width:1.0;"/><polygon fill="#181818" points="827.77,150.05,834.7541,156.9942,832.4418,151.8315,837.6045,149.5193,827.77,150.05" style="stroke:#181818;stroke-width:1.0;"/></g><!--link c1c33861990afdc12510b7acefc079aa to 587516af1efac0b9293f31639c6c31f3--><g id="link_c1c33861990afdc12510b7acefc079aa_587516af1efac0b9293f31639c6c31f3"><path codeLine="65" d="M1229.12,93.89 C1236.99,80.34 1247.6125,64.2775 1260.6912,49.535 C1267.2306,42.1638 1274.3841,35.1225 1282.1145,28.8903 C1285.9798,25.7742 1289.9893,22.8604 1294.1384,20.2087 C1295.1757,19.5458 1296.2217,18.8993 1297.2763,18.27 C1297.8037,17.9554 1298.3332,17.6452 1298.8648,17.3393 " fill="none" id="c1c33861990afdc12510b7acefc079aa-587516af1efac0b9293f31639c6c31f3" style="stroke:#181818;stroke-width:1.0;"/></g><!--SRC=[ZLPjQnj74Fv-l-BGbxG2oVl-OX93IDAG3sc3dL1A6ipipgnpnBfJTQSufkI_T-yaER8RM2EXWzFCCs_FFBjmVTtTh9flJNjLjHrIFPlFqwPhXyNGq6O-_xjz-hIbuQRRV3axczNGr-WJMHNGygWJfuHEeaic9aGRAEax6C1Lq_uCGN0XHHBUWivVi4ewhu2H0iTuYl8EOTiYfQOb_1cA9gsaq2Ogno1gQr6oP4toN30ALkrHtcsw5GsVQTjFNgGIOqQwu80pCjuhCXQII4uAr3pM_rPrx5RhhgLsg0CBHaX33eBoNh0S2pbBKlh4mHceFrRp-VekmdnULSqAhkYq7b-U_FYdsb0_m6OuhRVjDVNzeX-wzPgmgZvLl_nQppppRCeljr6Xaif8BKmWXS44b5PupJ5tnrKPf4aGXtfsGaCy2Z6v1oUDJbxdgUHgKagSePKAEOUa5MF7xWzSZI5GXkjScdRQ2-HQ4aKHj0i9a5VVznrzlO44BUp941bfWTbOM9L3CiM3SZxQIC00xxSpWX4QoBXSbmBjaW-GGwKabM1QswcTLpluerxktvpidpzwsQGNi6u6k6xwLLLH-xN9p5tbIAVrwzykBrwz-73-vlrVbyzVldtp- -M7YrVdpoPEbYpVFR-u-FEFyvVF3W47-ZPC8rtJPhXzqx__J6auZ8uBksJvmqyTSxiXvXOwq0JQSs-ujqxQW25H82GkoVtFZx65ppyxXkh0eqqnSgLbj3Q8nAHpJ5YZVJJqa067xkJqlZPzqxLvbKyG1kYxxIRIRhX8JgG0gAAdd0OBQ50aCWPa8WPmDzoNsH6xgzs6EQkvWN798RBWXPT9SYDp5b7o91yCD-MTqi6EyCc0vkDkav86l4IDRXekxk2FXhj_Sx9_ZbtzVdybXB58kVnWT1O8Yu9BHwIbKiBapFHalUyyXboGGXQ21Z0f9k0EGKIUB7Xh3xRxLdCZLCpKOqvwuIX94eeXEfT49dKwtfRbmtKHe103nM0pfxCEEUEangmD5bqUVJho7Jqln_ecH-1AkUY2nhoiW22zexoYb3XAOMsy5_JgQDVoCXe_acFK1Qd9UYSWaMO6SzULhufgjS15MM1A1XDASIOb8TgX57fOdzQpJJSh5xPSud9vLbI_4M_RqwmgQTsKNMbGKtOtZy-k6FIGNV6CMcmNPrbCWr5HGx8Ic8YKHn2jY8Qh636wgNbP6Q4__VXa95-0dfvyUYnwwOm-Hb_TzlzSFnwwT70VGs_RBsrtquxWnSDZd5bHUKi64qf9HSOCXxX-P4v5GIyPJ2WbhRhBgIJrkvmAMdBOl6A1UsuNWnwuNRmmJ1GftJ7lKQGPsV4utDBEtDqytzw-kgRnVl2pcsVaKKgNsUCP98nSv6Z1GgGKcVNvC2qPr8lYsVeV]--></g></svg>