<svg xmlns="http://www.w3.org/2000/svg" xmlns:xlink="http://www.w3.org/1999/xlink" contentStyleType="text/css" height="842px" preserveAspectRatio="none" style="width:1527px;height:842px;background:#FFFFFF;" version="1.1" viewBox="0 0 1527 842" width="1527px" zoomAndPan="magnify"><defs/><g><!--cluster e4f00638b8a10e6994e67af2f832d51c--><g id="cluster_e4f00638b8a10e6994e67af2f832d51c"><polygon fill="none" points="1025,174.04,1035,164.04,1384,164.04,1384,716.26,1374,726.26,1025,726.26,1025,174.04" style="stroke:#181818;stroke-width:1.0;"/><line style="stroke:#181818;stroke-width:1.0;" x1="1374" x2="1384" y1="174.04" y2="164.04"/><line style="stroke:#181818;stroke-width:1.0;" x1="1025" x2="1374" y1="174.04" y2="174.04"/><line style="stroke:#181818;stroke-width:1.0;" x1="1374" x2="1374" y1="174.04" y2="726.26"/><text fill="#000000" font-family="sans-serif" font-size="14" font-weight="bold" lengthAdjust="spacing" textLength="96" x="1152.5" y="190.0351">Prometheus</text></g><!--cluster d9c0e52dd15274d51041b489c7cea0ad--><g id="cluster_d9c0e52dd15274d51041b489c7cea0ad"><polygon fill="none" points="333,149.59,343,139.59,834,139.59,834,716.26,824,726.26,333,726.26,333,149.59" style="stroke:#181818;stroke-width:1.0;"/><line style="stroke:#181818;stroke-width:1.0;" x1="824" x2="834" y1="149.59" y2="139.59"/><line style="stroke:#181818;stroke-width:1.0;" x1="333" x2="824" y1="149.59" y2="149.59"/><line style="stroke:#181818;stroke-width:1.0;" x1="824" x2="824" y1="149.59" y2="726.26"/><text fill="#000000" font-family="sans-serif" font-size="14" font-weight="bold" lengthAdjust="spacing" textLength="62" x="548.5" y="165.5851">Grafana</text></g><!--cluster 587516af1efac0b9293f31639c6c31f3--><g id="cluster_587516af1efac0b9293f31639c6c31f3"><polygon fill="none" points="16,182.18,26,172.18,293,172.18,293,329.37,283,339.37,16,339.37,16,182.18" style="stroke:#181818;stroke-width:1.0;"/><line style="stroke:#181818;stroke-width:1.0;" x1="283" x2="293" y1="182.18" y2="172.18"/><line style="stroke:#181818;stroke-width:1.0;" x1="16" x2="283" y1="182.18" y2="182.18"/><line style="stroke:#181818;stroke-width:1.0;" x1="283" x2="283" y1="182.18" y2="339.37"/><text fill="#000000" font-family="sans-serif" font-size="14" font-weight="bold" lengthAdjust="spacing" textLength="65" x="118" y="198.1751">Datadog</text></g><!--entity b0b6236e8ab49920c48d10f339f1a86a--><g id="elem_b0b6236e8ab49920c48d10f339f1a86a"><rect fill="#F1F1F1" height="111.4844" rx="2.5" ry="2.5" style="stroke:#181818;stroke-width:0.5;" width="217" x="1123.5" y="212.04"/><rect fill="#F1F1F1" height="10" style="stroke:#181818;stroke-width:0.5;" width="15" x="1320.5" y="217.04"/><rect fill="#F1F1F1" height="2" style="stroke:#181818;stroke-width:0.5;" width="4" x="1318.5" y="219.04"/><rect fill="#F1F1F1" height="2" style="stroke:#181818;stroke-width:0.5;" width="4" x="1318.5" y="223.04"/><text fill="#000000" font-family="sans-serif" font-size="14" font-weight="bold" lengthAdjust="spacing" textLength="96" x="1138.5" y="245.0351">prometheus</text><text fill="#000000" font-family="sans-serif" font-size="14" lengthAdjust="spacing" textLength="4" x="1138.5" y="261.332">&#160;</text><text fill="#000000" font-family="sans-serif" font-size="14" lengthAdjust="spacing" textLength="177" x="1138.5" y="277.6289">image: prom/prometheus</text><text fill="#000000" font-family="sans-serif" font-size="14" lengthAdjust="spacing" textLength="163" x="1138.5" y="293.9257">restart: unless-stopped</text><text fill="#000000" font-family="sans-serif" font-size="14" lengthAdjust="spacing" textLength="4" x="1138.5" y="310.2226">&#160;</text></g><!--entity cfd4d43463526be4db6bd372951d8018--><g id="elem_cfd4d43463526be4db6bd372951d8018"><ellipse cx="1317" cy="437.97" fill="#F1F1F1" rx="8" ry="8" style="stroke:#181818;stroke-width:0.5;"/><text fill="#000000" font-family="sans-serif" font-size="14" lengthAdjust="spacing" textLength="36" x="1299" y="467.9651">9090</text></g><!--entity b8365f95fd8d51fff10d734d11af5400--><g id="elem_b8365f95fd8d51fff10d734d11af5400"><rect fill="#F1F1F1" height="39.2969" rx="2.5" ry="2.5" style="stroke:#181818;stroke-width:0.5;" width="147" x="1049.5" y="662.97"/><polygon fill="#F1F1F1" points="1179.5,667.97,1179.5,681.97,1191.5,681.97,1191.5,673.97,1185.5,667.97,1179.5,667.97" style="stroke:#181818;stroke-width:0.5;"/><line style="stroke:#181818;stroke-width:0.5;" x1="1185.5" x2="1185.5" y1="667.97" y2="673.97"/><line style="stroke:#181818;stroke-width:0.5;" x1="1191.5" x2="1185.5" y1="673.97" y2="673.97"/><text fill="#000000" font-family="sans-serif" font-size="14" lengthAdjust="spacing" textLength="117" x="1059.5" y="688.9651">/etc/prometheus</text></g><!--entity 66ea46159f158592d153eec2b58bfad1--><g id="elem_66ea46159f158592d153eec2b58bfad1"><rect fill="#F1F1F1" height="39.2969" rx="2.5" ry="2.5" style="stroke:#181818;stroke-width:0.5;" width="120" x="1232" y="662.97"/><polygon fill="#F1F1F1" points="1335,667.97,1335,681.97,1347,681.97,1347,673.97,1341,667.97,1335,667.97" style="stroke:#181818;stroke-width:0.5;"/><line style="stroke:#181818;stroke-width:0.5;" x1="1341" x2="1341" y1="667.97" y2="673.97"/><line style="stroke:#181818;stroke-width:0.5;" x1="1347" x2="1341" y1="673.97" y2="673.97"/><text fill="#000000" font-family="sans-serif" font-size="14" lengthAdjust="spacing" textLength="90" x="1242" y="688.9651">/prometheus</text></g><!--entity ca625ae68e4d4a58f9ba859ff3420557--><g id="elem_ca625ae68e4d4a58f9ba859ff3420557"><rect fill="#F1F1F1" height="160.375" rx="2.5" ry="2.5" style="stroke:#181818;stroke-width:0.5;" width="434" x="357" y="187.59"/><rect fill="#F1F1F1" height="10" style="stroke:#181818;stroke-width:0.5;" width="15" x="771" y="192.59"/><rect fill="#F1F1F1" height="2" style="stroke:#181818;stroke-width:0.5;" width="4" x="769" y="194.59"/><rect fill="#F1F1F1" height="2" style="stroke:#181818;stroke-width:0.5;" width="4" x="769" y="198.59"/><text fill="#000000" font-family="sans-serif" font-size="14" font-weight="bold" lengthAdjust="spacing" textLength="60" x="372" y="220.5851">grafana</text><text fill="#000000" font-family="sans-serif" font-size="14" lengthAdjust="spacing" textLength="4" x="372" y="236.882">&#160;</text><text fill="#000000" font-family="sans-serif" font-size="14" lengthAdjust="spacing" textLength="158" x="372" y="253.1789">image: grafana/grafana</text><text fill="#000000" font-family="sans-serif" font-size="14" lengthAdjust="spacing" textLength="163" x="372" y="269.4757">restart: unless-stopped</text><text fill="#000000" font-family="sans-serif" font-size="14" lengthAdjust="spacing" textLength="342" x="372" y="285.7726">environment: GF_SECURITY_ADMIN_USER=admin</text><text fill="#000000" font-family="sans-serif" font-size="14" lengthAdjust="spacing" textLength="394" x="372" y="302.0695">environment: GF_SECURITY_ADMIN_PASSWORD=grafana</text><text fill="#000000" font-family="sans-serif" font-size="14" lengthAdjust="spacing" textLength="71" x="372" y="318.3664">hey: there</text><text fill="#000000" font-family="sans-serif" font-size="14" lengthAdjust="spacing" textLength="4" x="372" y="334.6632">&#160;</text></g><!--entity 9f18a5ea59196197837bdbfebede13e8--><g id="elem_9f18a5ea59196197837bdbfebede13e8"><ellipse cx="523" cy="437.97" fill="#F1F1F1" rx="8" ry="8" style="stroke:#181818;stroke-width:0.5;"/><text fill="#000000" font-family="sans-serif" font-size="14" lengthAdjust="spacing" textLength="107" x="469.5" y="467.9651">127.0.0.1:8080</text></g><!--entity e5b1c7fcc1453c77b2f0388027659c6e--><g id="elem_e5b1c7fcc1453c77b2f0388027659c6e"><ellipse cx="705" cy="437.97" fill="#F1F1F1" rx="8" ry="8" style="stroke:#181818;stroke-width:0.5;"/><text fill="#000000" font-family="sans-serif" font-size="14" lengthAdjust="spacing" textLength="157" x="626.5" y="467.9651">127.0.0.1:8000-10000</text></g><!--entity de82fbad4c9eebe0bd6d2fe66a3fe0aa--><g id="elem_de82fbad4c9eebe0bd6d2fe66a3fe0aa"><rect fill="#F1F1F1" height="39.2969" rx="2.5" ry="2.5" style="stroke:#181818;stroke-width:0.5;" width="292" x="357" y="662.97"/><polygon fill="#F1F1F1" points="632,667.97,632,681.97,644,681.97,644,673.97,638,667.97,632,667.97" style="stroke:#181818;stroke-width:0.5;"/><line style="stroke:#181818;stroke-width:0.5;" x1="638" x2="638" y1="667.97" y2="673.97"/><line style="stroke:#181818;stroke-width:0.5;" x1="644" x2="638" y1="673.97" y2="673.97"/><text fill="#000000" font-family="sans-serif" font-size="14" lengthAdjust="spacing" textLength="262" x="367" y="688.9651">/etc/grafana/provisioning/datasources</text></g><!--entity cfb8a5b7ebe0f6a517a5ae436a93d5d8--><g id="elem_cfb8a5b7ebe0f6a517a5ae436a93d5d8"><rect fill="#F1F1F1" height="95.1875" rx="2.5" ry="2.5" style="stroke:#181818;stroke-width:0.5;" width="210" x="40" y="220.18"/><rect fill="#F1F1F1" height="10" style="stroke:#181818;stroke-width:0.5;" width="15" x="230" y="225.18"/><rect fill="#F1F1F1" height="2" style="stroke:#181818;stroke-width:0.5;" width="4" x="228" y="227.18"/><rect fill="#F1F1F1" height="2" style="stroke:#181818;stroke-width:0.5;" width="4" x="228" y="231.18"/><text fill="#000000" font-family="sans-serif" font-size="14" font-weight="bold" lengthAdjust="spacing" textLength="64" x="55" y="253.1751">datadog</text><text fill="#000000" font-family="sans-serif" font-size="14" lengthAdjust="spacing" textLength="4" x="55" y="269.472">&#160;</text><text fill="#000000" font-family="sans-serif" font-size="14" lengthAdjust="spacing" textLength="170" x="55" y="285.7689">image: datadog/datadog</text><text fill="#000000" font-family="sans-serif" font-size="14" lengthAdjust="spacing" textLength="4" x="55" y="302.0657">&#160;</text></g><!--entity d9fe74bd71c5f1efd83d8f6cfdd7bef5--><g id="elem_d9fe74bd71c5f1efd83d8f6cfdd7bef5"><polygon fill="#F1F1F1" points="769,16,779,6,883,6,883,58.5938,873,68.5938,769,68.5938,769,16" style="stroke:#181818;stroke-width:0.5;"/><line style="stroke:#181818;stroke-width:0.5;" x1="873" x2="883" y1="16" y2="6"/><line style="stroke:#181818;stroke-width:0.5;" x1="769" x2="873" y1="16" y2="16"/><line style="stroke:#181818;stroke-width:0.5;" x1="873" x2="873" y1="16" y2="68.5938"/><text fill="#000000" font-family="sans-serif" font-size="14" font-weight="bold" lengthAdjust="spacing" textLength="72" x="784" y="38.9951">front-tier</text><text fill="#000000" font-family="sans-serif" font-size="14" lengthAdjust="spacing" textLength="74" x="784" y="55.292">&#171;network&#187;</text></g><!--entity 21232f297a57a5a743894a0e4a801fc3--><g id="elem_21232f297a57a5a743894a0e4a801fc3"><polygon fill="#F1F1F1" points="1395,16,1405,6,1509,6,1509,58.5938,1499,68.5938,1395,68.5938,1395,16" style="stroke:#181818;stroke-width:0.5;"/><line style="stroke:#181818;stroke-width:0.5;" x1="1499" x2="1509" y1="16" y2="6"/><line style="stroke:#181818;stroke-width:0.5;" x1="1395" x2="1499" y1="16" y2="16"/><line style="stroke:#181818;stroke-width:0.5;" x1="1499" x2="1499" y1="16" y2="68.5938"/><text fill="#000000" font-family="sans-serif" font-size="14" font-weight="bold" lengthAdjust="spacing" textLength="47" x="1410" y="38.9951">admin</text><text fill="#000000" font-family="sans-serif" font-size="14" lengthAdjust="spacing" textLength="74" x="1410" y="55.292">&#171;network&#187;</text></g><!--entity 5e543256c480ac577d30f76f9120eb74--><g id="elem_5e543256c480ac577d30f76f9120eb74"><polygon fill="#F1F1F1" points="1240,16,1250,6,1360,6,1360,58.5938,1350,68.5938,1240,68.5938,1240,16" style="stroke:#181818;stroke-width:0.5;"/><line style="stroke:#181818;stroke-width:0.5;" x1="1350" x2="1360" y1="16" y2="6"/><line style="stroke:#181818;stroke-width:0.5;" x1="1240" x2="1350" y1="16" y2="16"/><line style="stroke:#181818;stroke-width:0.5;" x1="1350" x2="1350" y1="16" y2="68.5938"/><text fill="#000000" font-family="sans-serif" font-size="14" font-weight="bold" lengthAdjust="spacing" textLength="80" x="1255" y="38.9951">undefined</text><text fill="#000000" font-family="sans-serif" font-size="14" lengthAdjust="spacing" textLength="74" x="1255" y="55.292">&#171;network&#187;</text></g><!--entity 267de027b65a807d2138ee534426efa5--><g id="elem_267de027b65a807d2138ee534426efa5"><ellipse cx="1435" cy="572.97" fill="#F1F1F1" rx="8" ry="8" style="stroke:#181818;stroke-width:0.5;"/><text fill="#000000" font-family="sans-serif" font-size="14" lengthAdjust="spacing" textLength="36" x="1417" y="602.9651">9090</text></g><!--entity dba3f4d0bb5aa6fcfa18da2c1f7a9775--><g id="elem_dba3f4d0bb5aa6fcfa18da2c1f7a9775"><ellipse cx="885" cy="572.97" fill="#F1F1F1" rx="8" ry="8" style="stroke:#181818;stroke-width:0.5;"/><text fill="#000000" font-family="sans-serif" font-size="14" lengthAdjust="spacing" textLength="18" x="876" y="602.9651">80</text></g><!--entity 1624c420083928ef3e240dd88f2e52f0--><g id="elem_1624c420083928ef3e240dd88f2e52f0"><ellipse cx="974" cy="572.97" fill="#F1F1F1" rx="8" ry="8" style="stroke:#181818;stroke-width:0.5;"/><text fill="#000000" font-family="sans-serif" font-size="14" lengthAdjust="spacing" textLength="36" x="956" y="602.9651">8000</text></g><!--entity 2a4ddbecb762532586835d0f37d85eaf--><g id="elem_2a4ddbecb762532586835d0f37d85eaf"><rect fill="#F1F1F1" height="39.2969" rx="2.5" ry="2.5" style="stroke:#181818;stroke-width:0.5;" width="124" x="1061" y="797.26"/><polygon fill="#F1F1F1" points="1168,802.26,1168,816.26,1180,816.26,1180,808.26,1174,802.26,1168,802.26" style="stroke:#181818;stroke-width:0.5;"/><line style="stroke:#181818;stroke-width:0.5;" x1="1174" x2="1174" y1="802.26" y2="808.26"/><line style="stroke:#181818;stroke-width:0.5;" x1="1180" x2="1174" y1="808.26" y2="808.26"/><text fill="#000000" font-family="sans-serif" font-size="14" lengthAdjust="spacing" textLength="94" x="1071" y="823.2551">./prometheus</text></g><!--entity a1448c8b5db83ada398e734ef1d3277c--><g id="elem_a1448c8b5db83ada398e734ef1d3277c"><rect fill="#F1F1F1" height="39.2969" rx="2.5" ry="2.5" style="stroke:#181818;stroke-width:0.5;" width="103" x="1240.5" y="797.26"/><polygon fill="#F1F1F1" points="1326.5,802.26,1326.5,816.26,1338.5,816.26,1338.5,808.26,1332.5,802.26,1326.5,802.26" style="stroke:#181818;stroke-width:0.5;"/><line style="stroke:#181818;stroke-width:0.5;" x1="1332.5" x2="1332.5" y1="802.26" y2="808.26"/><line style="stroke:#181818;stroke-width:0.5;" x1="1338.5" x2="1332.5" y1="808.26" y2="808.26"/><text fill="#000000" font-family="sans-serif" font-size="14" lengthAdjust="spacing" textLength="73" x="1250.5" y="823.2551">prom_data</text></g><!--entity eec695b1c6be435e7982afe506db7e49--><g id="elem_eec695b1c6be435e7982afe506db7e49"><rect fill="#F1F1F1" height="39.2969" rx="2.5" ry="2.5" style="stroke:#181818;stroke-width:0.5;" width="90" x="458" y="797.26"/><polygon fill="#F1F1F1" points="531,802.26,531,816.26,543,816.26,543,808.26,537,802.26,531,802.26" style="stroke:#181818;stroke-width:0.5;"/><line style="stroke:#181818;stroke-width:0.5;" x1="537" x2="537" y1="802.26" y2="808.26"/><line style="stroke:#181818;stroke-width:0.5;" x1="543" x2="537" y1="808.26" y2="808.26"/><text fill="#000000" font-family="sans-serif" font-size="14" lengthAdjust="spacing" textLength="60" x="468" y="823.2551">./grafana</text></g><!--entity f6abdaeca096208ed02aec4990d6ee0c--><g id="elem_f6abdaeca096208ed02aec4990d6ee0c"><ellipse cx="285" cy="37.29" fill="#F1F1F1" rx="8" ry="8" style="stroke:#181818;stroke-width:0.5;"/><text fill="#000000" font-family="sans-serif" font-size="14" lengthAdjust="spacing" textLength="18" x="276" y="67.2851">22</text></g><!--link b0b6236e8ab49920c48d10f339f1a86a to cfd4d43463526be4db6bd372951d8018--><g id="link_b0b6236e8ab49920c48d10f339f1a86a_cfd4d43463526be4db6bd372951d8018"><path codeLine="46" d="M1259.83,323.85 C1279.39,362.55 1303.68,410.61 1313.05,429.16 " fill="none" id="b0b6236e8ab49920c48d10f339f1a86a-cfd4d43463526be4db6bd372951d8018" style="stroke:#181818;stroke-width:1.0;"/></g><!--link cfd4d43463526be4db6bd372951d8018 to 267de027b65a807d2138ee534426efa5--><g id="link_cfd4d43463526be4db6bd372951d8018_267de027b65a807d2138ee534426efa5"><path codeLine="47" d="M1324.03,446.89 C1345.07,470.6 1407.36,540.82 1428.16,564.25 " fill="none" id="cfd4d43463526be4db6bd372951d8018-267de027b65a807d2138ee534426efa5" style="stroke:#181818;stroke-width:1.0;"/></g><!--link b8365f95fd8d51fff10d734d11af5400 to 2a4ddbecb762532586835d0f37d85eaf--><g id="link_b8365f95fd8d51fff10d734d11af5400_2a4ddbecb762532586835d0f37d85eaf"><path codeLine="48" d="M1123,702.57 C1123,727.72 1123,771.86 1123,796.99 " fill="none" id="b8365f95fd8d51fff10d734d11af5400-2a4ddbecb762532586835d0f37d85eaf" style="stroke:#181818;stroke-width:1.0;"/><text fill="#000000" font-family="sans-serif" font-size="13" lengthAdjust="spacing" textLength="13" x="1124" y="763.3269">ro</text></g><!--link b0b6236e8ab49920c48d10f339f1a86a to b8365f95fd8d51fff10d734d11af5400--><g id="link_b0b6236e8ab49920c48d10f339f1a86a_b8365f95fd8d51fff10d734d11af5400"><path codeLine="49" d="M1217.53,323.6 C1192.86,417.04 1145.3314,597.0287 1129.5514,656.8087 " fill="none" id="b0b6236e8ab49920c48d10f339f1a86a-to-b8365f95fd8d51fff10d734d11af5400" style="stroke:#181818;stroke-width:1.0;stroke-dasharray:7.0,7.0;"/><polygon fill="#181818" points="1128.02,662.61,1134.1846,654.929,1129.2961,657.7756,1126.4495,652.8872,1128.02,662.61" style="stroke:#181818;stroke-width:1.0;"/><text fill="#000000" font-family="sans-serif" font-size="13" lengthAdjust="spacing" textLength="23" x="1172" y="510.0369">use</text></g><!--link 66ea46159f158592d153eec2b58bfad1 to a1448c8b5db83ada398e734ef1d3277c--><g id="link_66ea46159f158592d153eec2b58bfad1_a1448c8b5db83ada398e734ef1d3277c"><path codeLine="50" d="M1292,702.57 C1292,727.72 1292,771.86 1292,796.99 " fill="none" id="66ea46159f158592d153eec2b58bfad1-a1448c8b5db83ada398e734ef1d3277c" style="stroke:#181818;stroke-width:1.0;"/><text fill="#000000" font-family="sans-serif" font-size="13" lengthAdjust="spacing" textLength="14" x="1293" y="763.3269">rw</text></g><!--link b0b6236e8ab49920c48d10f339f1a86a to 66ea46159f158592d153eec2b58bfad1--><g id="link_b0b6236e8ab49920c48d10f339f1a86a_66ea46159f158592d153eec2b58bfad1"><path codeLine="51" d="M1239.97,323.6 C1253.55,417.04 1279.6869,596.8924 1288.3769,656.6724 " fill="none" id="b0b6236e8ab49920c48d10f339f1a86a-to-66ea46159f158592d153eec2b58bfad1" style="stroke:#181818;stroke-width:1.0;stroke-dasharray:7.0,7.0;"/><polygon fill="#181818" points="1289.24,662.61,1291.9037,653.1282,1288.5207,657.662,1283.9869,654.279,1289.24,662.61" style="stroke:#181818;stroke-width:1.0;"/><text fill="#000000" font-family="sans-serif" font-size="13" lengthAdjust="spacing" textLength="23" x="1268" y="510.0369">use</text></g><!--reverse link 21232f297a57a5a743894a0e4a801fc3 to e4f00638b8a10e6994e67af2f832d51c--><g id="link_21232f297a57a5a743894a0e4a801fc3_e4f00638b8a10e6994e67af2f832d51c"><path codeLine="52" d="M1440.0163,74.3333 C1429.8413,104.9233 1415.61,147.7075 1401.8563,189.0537 C1394.9794,209.7269 1388.6953,228.6172 1384.0442,242.5973 " fill="none" id="21232f297a57a5a743894a0e4a801fc3-backto-e4f00638b8a10e6994e67af2f832d51c" style="stroke:#181818;stroke-width:1.0;"/><polygon fill="#181818" points="1441.91,68.64,1435.2739,75.9175,1440.3319,73.3844,1442.8649,78.4425,1441.91,68.64" style="stroke:#181818;stroke-width:1.0;"/><text fill="#000000" font-family="sans-serif" font-size="13" lengthAdjust="spacing" textLength="87" x="1432" y="111.6569">alias:['mysql']</text></g><!--reverse link 5e543256c480ac577d30f76f9120eb74 to e4f00638b8a10e6994e67af2f832d51c--><g id="link_5e543256c480ac577d30f76f9120eb74_e4f00638b8a10e6994e67af2f832d51c"><path codeLine="53" d="M1296.7425,74.93 C1296.8025,90.95 1299.92,103.66 1312,115.59 C1329.89,133.26 1351,105.06 1368,123.59 C1389.21,146.705 1391.48,181.7525 1388.3162,211.3875 C1387.5253,218.7962 1386.3948,225.8667 1385.1356,232.3279 C1384.8209,233.9432 1384.498,235.5204 1384.1705,237.0553 C1384.1295,237.2472 1384.0885,237.4384 1384.0474,237.6289 " fill="none" id="5e543256c480ac577d30f76f9120eb74-backto-e4f00638b8a10e6994e67af2f832d51c" style="stroke:#181818;stroke-width:1.0;"/><polygon fill="#181818" points="1296.72,68.93,1292.7537,77.9449,1296.7387,73.93,1300.7537,77.915,1296.72,68.93" style="stroke:#181818;stroke-width:1.0;"/><text fill="#000000" font-family="sans-serif" font-size="13" lengthAdjust="spacing" textLength="105" x="1313" y="111.6569">alias:['unknown']</text></g><!--link ca625ae68e4d4a58f9ba859ff3420557 to 9f18a5ea59196197837bdbfebede13e8--><g id="link_ca625ae68e4d4a58f9ba859ff3420557_9f18a5ea59196197837bdbfebede13e8"><path codeLine="54" d="M549.84,348.44 C539.96,381.04 529.8,414.54 525.34,429.25 " fill="none" id="ca625ae68e4d4a58f9ba859ff3420557-9f18a5ea59196197837bdbfebede13e8" style="stroke:#181818;stroke-width:1.0;"/></g><!--link 9f18a5ea59196197837bdbfebede13e8 to dba3f4d0bb5aa6fcfa18da2c1f7a9775--><g id="link_9f18a5ea59196197837bdbfebede13e8_dba3f4d0bb5aa6fcfa18da2c1f7a9775"><path codeLine="55" d="M531.95,442.25 C581.92,460.61 826.04,550.3 876.04,568.67 " fill="none" id="9f18a5ea59196197837bdbfebede13e8-dba3f4d0bb5aa6fcfa18da2c1f7a9775" style="stroke:#181818;stroke-width:1.0;"/><text fill="#000000" font-family="sans-serif" font-size="13" lengthAdjust="spacing" textLength="20" x="726" y="510.0369">tcp</text></g><!--link ca625ae68e4d4a58f9ba859ff3420557 to e5b1c7fcc1453c77b2f0388027659c6e--><g id="link_ca625ae68e4d4a58f9ba859ff3420557_e5b1c7fcc1453c77b2f0388027659c6e"><path codeLine="56" d="M636.05,348.44 C661.44,381.04 687.53,414.54 698.99,429.25 " fill="none" id="ca625ae68e4d4a58f9ba859ff3420557-e5b1c7fcc1453c77b2f0388027659c6e" style="stroke:#181818;stroke-width:1.0;"/></g><!--link e5b1c7fcc1453c77b2f0388027659c6e to 1624c420083928ef3e240dd88f2e52f0--><g id="link_e5b1c7fcc1453c77b2f0388027659c6e_1624c420083928ef3e240dd88f2e52f0"><path codeLine="57" d="M713.8,439.46 C744.24,441.54 846.97,451.73 915,496.97 C941.76,514.76 961.85,548.66 970,564.03 " fill="none" id="e5b1c7fcc1453c77b2f0388027659c6e-1624c420083928ef3e240dd88f2e52f0" style="stroke:#181818;stroke-width:1.0;"/><text fill="#000000" font-family="sans-serif" font-size="13" lengthAdjust="spacing" textLength="20" x="935" y="510.0369">tcp</text></g><!--link de82fbad4c9eebe0bd6d2fe66a3fe0aa to eec695b1c6be435e7982afe506db7e49--><g id="link_de82fbad4c9eebe0bd6d2fe66a3fe0aa_eec695b1c6be435e7982afe506db7e49"><path codeLine="58" d="M503,702.57 C503,727.72 503,771.86 503,796.99 " fill="none" id="de82fbad4c9eebe0bd6d2fe66a3fe0aa-eec695b1c6be435e7982afe506db7e49" style="stroke:#181818;stroke-width:1.0;"/><text fill="#000000" font-family="sans-serif" font-size="13" lengthAdjust="spacing" textLength="13" x="504" y="763.3269">ro</text></g><!--link ca625ae68e4d4a58f9ba859ff3420557 to de82fbad4c9eebe0bd6d2fe66a3fe0aa--><g id="link_ca625ae68e4d4a58f9ba859ff3420557_de82fbad4c9eebe0bd6d2fe66a3fe0aa"><path codeLine="59" d="M482.63,348.32 C467.26,366.56 453.53,387.09 445,408.97 C409.47,500.04 463.1815,611.9088 488.6615,657.2688 " fill="none" id="ca625ae68e4d4a58f9ba859ff3420557-to-de82fbad4c9eebe0bd6d2fe66a3fe0aa" style="stroke:#181818;stroke-width:1.0;stroke-dasharray:7.0,7.0;"/><polygon fill="#181818" points="491.6,662.5,490.6797,652.6942,489.1512,658.1407,483.7048,656.6122,491.6,662.5" style="stroke:#181818;stroke-width:1.0;"/><text fill="#000000" font-family="sans-serif" font-size="13" lengthAdjust="spacing" textLength="23" x="437" y="510.0369">use</text></g><!--reverse link d9fe74bd71c5f1efd83d8f6cfdd7bef5 to d9c0e52dd15274d51041b489c7cea0ad--><g id="link_d9fe74bd71c5f1efd83d8f6cfdd7bef5_d9c0e52dd15274d51041b489c7cea0ad"><path codeLine="60" d="M826,74.64 C826,89.935 826,103.7019 826,124.8133 C826,127.4522 826,130.1121 826,132.787 C826,134.1244 826,135.4655 826,136.8096 C826,137.4817 826,138.1545 826,138.8279 " fill="none" id="d9fe74bd71c5f1efd83d8f6cfdd7bef5-backto-d9c0e52dd15274d51041b489c7cea0ad" style="stroke:#181818;stroke-width:1.0;"/><polygon fill="#181818" points="826,68.64,822,77.64,826,73.64,830,77.64,826,68.64" style="stroke:#181818;stroke-width:1.0;"/><text fill="#000000" font-family="sans-serif" font-size="13" lengthAdjust="spacing" textLength="60" x="827" y="111.6569">alias:['ui']</text></g><!--reverse link f6abdaeca096208ed02aec4990d6ee0c to 587516af1efac0b9293f31639c6c31f3--><g id="link_f6abdaeca096208ed02aec4990d6ee0c_587516af1efac0b9293f31639c6c31f3"><path codeLine="62" d="M285,52.16 C285,71.935 285,119.6875 285,169.1812 C285,169.9546 285,170.7269 285,171.498 " fill="none" id="f6abdaeca096208ed02aec4990d6ee0c-backto-587516af1efac0b9293f31639c6c31f3" style="stroke:#181818;stroke-width:1.0;"/><polygon fill="#181818" points="285,46.16,281,55.16,285,51.16,289,55.16,285,46.16" style="stroke:#181818;stroke-width:1.0;"/></g><!--SRC=[ZLRRRXj737tVhrZe9Qq0sNE_28c1e4w3FBGDx0P5aGO6PqWwGgnTLvUuGP5_x-nAScKtnHWojF1wU4WUyfmntDpqTyl5Nulkkkbwf7OodVAgxpQppO9Mq-aVtVFd7Mtk-jMdixD92-iM8vCt2RtCbYKn1es1NMP4duZjFGpWSj5z2q59fHMhwC6M7_16XsX0a84W96TzZx3ja7ZH4NuBnP8rMbcNJH2GhVUe1Nl7KIf1oPizojjLlwJDHzgknoWoB8JJ8GMGWboCXfm7LXoqGYjp-tVJvdvvstVKRTeaabFQKO1aObIYv48fMEl84eA3zdqpdTxUPvXEcsQnX6kQjyFBqt__qgnelO7LPjvkknjQhsVhJNzxIzWq7vhllcydKKGnrbTeD6YqSTegbyXWSWcrLz5ABEo4fe0i6FAcdPpI9X-b6CDJqCvoj6KgfHjcbWAzDYWbi3L278S_2dMEm3XfIsissAXGMasKLR8XCQ1ilkuPVRq2XWxsov05MONbiFAcf1H69XDYzfb003waCuDJ5iY5qfS16pWcAAcOjL72MZ_IURs3F-9o_-Pq__nVBgdxl2Yhkoofvkth7wykN_tmxkBDhxzVlJp_wStFL-ykNrsy69UoTlBjoylBttwvE7znoFYHlipRGjMA3WEJof-8yf7p8C9kT8Mu09R0HXcTZ3vedp0n9KAIci9_ueIOoVArYoQRPFQSipHMP- -JOg534Cex6xEZnuC_a5Ac-7cnNlHTKV0fmWRM_NQLQJTJfA0u0PeSgTGX4ZfKJCw1PX80zpCzBu7ON- -45RoL3WPjGnOfggXPIwTB5LbBrezcoaLADla1dXrOEKYQZ7OGDLeCuqnn1tyqq_sRq_rpeFNhGoKevv5A-ydPuWiUbTI1o6fZb2kLsV7qddfCfI638YKBu3Wpo82WicGFqVl3sJtLqYcJoyQ9eACAn9gK4OWXi2gxpCSYENci4WK6CL5ElgnoiP_WWhPOBC5ZABFdezWXycheRmm4QKp88Lai6WK47GCLPH9BrChx_23fzP74YWPT79PZi0DjoSUWWCaAXuLr4vkgISrmLlULse4HfJgJcl_iK2eSjlDsikedzSPEJl3avAngUWFUTasJfcPnOtMrGOtLtJszkchIGtNLgscsdPrLByy13cuMi9w_VxRyilxpvjc7fqBNRjHZw6ttgUllkW6ywke3grLph1qOKMew7ohSvDidrbIrtDg14QNc9lSrrSnuLrD5xGTjL1lSRryrwM7xgZVvk2ArV_uUhCXYs8x1UPKQdQnS3mc1CeZeb0Y4GfNVYdW4EYAHc-hDCzPGW_a7]--></g></svg>