<svg xmlns="http://www.w3.org/2000/svg" style="left: 0px; top: 0px; width: 100%; height: 100%; display: block; min-width: 891px; min-height: 596px;"><g><g/><g><g transform="translate(0.5,0.5)" style="visibility: visible; cursor: move;"><rect x="480" y="10" width="100" height="50" fill="#b5f5ff7f" stroke="#000000" pointer-events="all"/></g><g style="cursor: move;"><g fill="#774400" font-family="Arial,Helvetica" direction="" text-anchor="middle" font-size="11px"><rect fill="none" stroke="none" x="489" y="23" width="81" height="25" stroke-width="1" transform="translate(0.5, 0.5)"/><text x="530" y="33">Front-tier-edited</text><text x="530" y="46">&lt;&lt;network&gt;&gt;</text></g></g><g transform="translate(0.5,0.5)" style="visibility: visible; cursor: move;"><rect x="210" y="10" width="100" height="50" fill="#b5f5ff7f" stroke="#000000" pointer-events="all"/></g><g style="cursor: move;"><g fill="#774400" font-family="Arial,Helvetica" direction="" text-anchor="middle" font-size="11px"><rect fill="none" stroke="none" x="226" y="23" width="67" height="25" stroke-width="1" transform="translate(0.5, 0.5)"/><text x="260" y="33">Admin</text><text x="260" y="46">&lt;&lt;network&gt;&gt;</text></g></g><g transform="translate(0.5,0.5)" style="visibility: visible; cursor: move;"><rect x="20" y="10" width="100" height="50" fill="#b5f5ff7f" stroke="#000000" pointer-events="all"/></g><g style="cursor: move;"><g fill="#774400" font-family="Arial,Helvetica" direction="" text-anchor="middle" font-size="11px"><rect fill="none" stroke="none" x="36" y="23" width="67" height="25" stroke-width="1" transform="translate(0.5, 0.5)"/><text x="70" y="33">Undefined</text><text x="70" y="46">&lt;&lt;network&gt;&gt;</text></g></g><g transform="translate(0.5,0.5)" style="visibility: visible; cursor: move;"><rect x="10" y="250" width="300" height="290" fill="#f1f1f17f" stroke="#000000" pointer-events="all"/></g><g style="cursor: move;"><g fill="#774400" font-family="Arial,Helvetica" direction="" text-anchor="middle" font-size="11px"><rect fill="none" stroke="none" x="129" y="257" width="62" height="12" stroke-width="1" transform="translate(0.5, 0.5)"/><text x="160" y="267">Prometheus</text></g></g><g transform="translate(0.5,0.5)" style="visibility: visible; cursor: move;"><rect x="20" y="275" width="280" height="100" fill="#f0fff07f" stroke="#000000" pointer-events="all"/></g><g style="cursor: move;"><g fill="#774400" font-family="Arial,Helvetica" direction="" text-anchor="middle" font-size="11px"><rect fill="none" stroke="none" x="21" y="287" width="278" height="64" stroke-width="1" transform="translate(0.5, 0.5)"/><text x="160" y="297">Prometheus</text><text x="160" y="323">image: prom/prometheus</text><text x="160" y="336">command: --config.file=/etc/prometheus/prometheus.yml</text><text x="160" y="349">restart: unless-stopped</text></g></g><g transform="translate(0.5,0.5)" style="visibility: visible;"><ellipse cx="260" cy="430" rx="10" ry="10" fill="#ffffd27f" stroke="#000000" pointer-events="all"/></g><g style=""><g fill="#774400" font-family="Arial,Helvetica" direction="" text-anchor="middle" font-size="11px"><rect fill="none" stroke="none" x="246" y="444" width="27" height="12" stroke-width="1" transform="translate(0.5, 0.5)"/><text x="260" y="454.5">9090</text></g></g><g transform="translate(0.5,0.5)" style="visibility: visible;"><rect x="180" y="480" width="90" height="25" fill="#f0f0f07f" stroke="#000000" pointer-events="all"/></g><g style=""><g fill="#774400" font-family="Arial,Helvetica" direction="" text-anchor="middle" font-size="11px"><rect fill="none" stroke="none" x="183" y="487" width="83" height="12" stroke-width="1" transform="translate(0.5, 0.5)"/><text x="225" y="497">/etc/prometheus</text></g></g><g transform="translate(0.5,0.5)" style="visibility: visible;"><rect x="50" y="480" width="77" height="25" fill="#f0f0f07f" stroke="#000000" pointer-events="all"/></g><g style=""><g fill="#774400" font-family="Arial,Helvetica" direction="" text-anchor="middle" font-size="11px"><rect fill="none" stroke="none" x="55" y="487" width="65" height="12" stroke-width="1" transform="translate(0.5, 0.5)"/><text x="88.5" y="497">/prometheus</text></g></g><g transform="translate(0.5,0.5)" style="visibility: visible;"><path d="M 160 375 L 160 386.25 Q 160 397.5 180 397.5 L 240 397.5 Q 260 397.5 260 408.75 L 260 420" fill="none" stroke="white" stroke-miterlimit="10" pointer-events="stroke" visibility="hidden" stroke-width="9"/><path d="M 160 375 L 160 386.25 Q 160 397.5 180 397.5 L 240 397.5 Q 260 397.5 260 408.75 L 260 420" fill="none" stroke="#000000" stroke-miterlimit="10" pointer-events="stroke"/></g><g transform="translate(0.5,0.5)" style="visibility: visible; cursor: move;"><path d="M 160 375 L 160 407.5 Q 160 427.5 180 427.5 L 205 427.5 Q 225 427.5 225 447.5 L 225 471.88" fill="none" stroke="white" stroke-miterlimit="10" pointer-events="stroke" visibility="hidden" stroke-width="9"/><path d="M 160 375 L 160 407.5 Q 160 427.5 180 427.5 L 205 427.5 Q 225 427.5 225 447.5 L 225 471.88" fill="none" stroke="#000000" stroke-miterlimit="10" stroke-dasharray="3 3" pointer-events="stroke"/><path d="M 225 478.88 L 221.5 471.88 L 228.5 471.88 Z" fill="#000000" stroke="#000000" stroke-miterlimit="10" pointer-events="all"/></g><g style="cursor: move;"><g fill="#000000" font-family="Arial,Helvetica" direction="" text-anchor="middle" font-size="11px"><rect fill="#ffffff" stroke="none" x="182" y="422" width="20" height="12" stroke-width="1" transform="translate(0.5, 0.5)"/><text x="192.5" y="432">use</text></g></g><g transform="translate(0.5,0.5)" style="visibility: visible; cursor: move;"><path d="M 160 375 L 160 407.5 Q 160 427.5 140 427.5 L 108.5 427.5 Q 88.5 427.5 88.5 447.5 L 88.5 471.88" fill="none" stroke="white" stroke-miterlimit="10" pointer-events="stroke" visibility="hidden" stroke-width="9"/><path d="M 160 375 L 160 407.5 Q 160 427.5 140 427.5 L 108.5 427.5 Q 88.5 427.5 88.5 447.5 L 88.5 471.88" fill="none" stroke="#000000" stroke-miterlimit="10" stroke-dasharray="3 3" pointer-events="stroke"/><path d="M 88.5 478.88 L 85 471.88 L 92 471.88 Z" fill="#000000" stroke="#000000" stroke-miterlimit="10" pointer-events="all"/></g><g style="cursor: move;"><g fill="#000000" font-family="Arial,Helvetica" direction="" text-anchor="middle" font-size="11px"><rect fill="#ffffff" stroke="none" x="114" y="422" width="20" height="12" stroke-width="1" transform="translate(0.5, 0.5)"/><text x="124.5" y="432">use</text></g></g><g transform="translate(0.5,0.5)" style="visibility: visible; cursor: move;"><rect x="420" y="250" width="340" height="290" fill="#f1f1f17f" stroke="#000000" pointer-events="all"/></g><g style="cursor: move;"><g fill="#774400" font-family="Arial,Helvetica" direction="" text-anchor="middle" font-size="11px"><rect fill="none" stroke="none" x="569" y="257" width="42" height="12" stroke-width="1" transform="translate(0.5, 0.5)"/><text x="590" y="267">Grafana</text></g></g><g transform="translate(0.5,0.5)" style="visibility: visible; cursor: move;"><rect x="430" y="275" width="320" height="100" fill="#f0fff07f" stroke="#000000" pointer-events="all"/></g><g style="cursor: move;"><g fill="#774400" font-family="Arial,Helvetica" direction="" text-anchor="middle" font-size="11px"><rect fill="none" stroke="none" x="439" y="274" width="301" height="90" stroke-width="1" transform="translate(0.5, 0.5)"/><text x="590" y="284">Grafana</text><text x="590" y="310">image: grafana/grafana</text><text x="590" y="323">restart: unless-stopped</text><text x="590" y="336">environment: GF_SECURITY_ADMIN_USER=admin</text><text x="590" y="349">environment: GF_SECURITY_ADMIN_PASSWORD=grafana</text><text x="590" y="362">newProperty: Olá</text></g></g><g transform="translate(0.5,0.5)" style="visibility: visible;"><ellipse cx="500" cy="430" rx="10" ry="10" fill="#ffffd27f" stroke="#000000" pointer-events="all"/></g><g style=""><g fill="#774400" font-family="Arial,Helvetica" direction="" text-anchor="middle" font-size="11px"><rect fill="none" stroke="none" x="462" y="444" width="76" height="12" stroke-width="1" transform="translate(0.5, 0.5)"/><text x="500" y="454.5">127.0.0.1:8080</text></g></g><g transform="translate(0.5,0.5)" style="visibility: visible; cursor: move;"><ellipse cx="690" cy="430" rx="10" ry="10" fill="#ffffd27f" stroke="#000000" pointer-events="all"/></g><g style="cursor: move;"><g fill="#774400" font-family="Arial,Helvetica" direction="" text-anchor="middle" font-size="11px"><rect fill="none" stroke="none" x="638" y="444" width="104" height="12" stroke-width="1" transform="translate(0.5, 0.5)"/><text x="690" y="454.5">127.0.0.1:8000-9000</text></g></g><g transform="translate(0.5,0.5)" style="visibility: visible; cursor: move;"><rect x="480" y="480" width="222" height="25" fill="#f0f0f07f" stroke="#000000" pointer-events="all"/></g><g style="cursor: move;"><g fill="#774400" font-family="Arial,Helvetica" direction="" text-anchor="middle" font-size="11px"><rect fill="none" stroke="none" x="497" y="487" width="187" height="12" stroke-width="1" transform="translate(0.5, 0.5)"/><text x="591" y="497">/etc/grafana/provisioning/datasources</text></g></g><g transform="translate(0.5,0.5)" style="visibility: visible;"><path d="M 590 375 L 590 386.25 Q 590 397.5 570 397.5 L 520 397.5 Q 500 397.5 500 408.75 L 500 420" fill="none" stroke="white" stroke-miterlimit="10" pointer-events="stroke" visibility="hidden" stroke-width="9"/><path d="M 590 375 L 590 386.25 Q 590 397.5 570 397.5 L 520 397.5 Q 500 397.5 500 408.75 L 500 420" fill="none" stroke="#000000" stroke-miterlimit="10" pointer-events="stroke"/></g><g transform="translate(0.5,0.5)" style="visibility: visible; cursor: move;"><path d="M 590 375 L 590 386.25 Q 590 397.5 610 397.5 L 670 397.5 Q 690 397.5 690 408.75 L 690 420" fill="none" stroke="white" stroke-miterlimit="10" pointer-events="stroke" visibility="hidden" stroke-width="9"/><path d="M 590 375 L 590 386.25 Q 590 397.5 610 397.5 L 670 397.5 Q 690 397.5 690 408.75 L 690 420" fill="none" stroke="#000000" stroke-miterlimit="10" pointer-events="stroke"/></g><g transform="translate(0.5,0.5)" style="visibility: visible;"><path d="M 590 375 L 590 407.5 Q 590 427.5 590.5 427.5 L 590.75 427.5 Q 591 427.5 591 447.5 L 591 471.88" fill="none" stroke="white" stroke-miterlimit="10" pointer-events="stroke" visibility="hidden" stroke-width="9"/><path d="M 590 375 L 590 407.5 Q 590 427.5 590.5 427.5 L 590.75 427.5 Q 591 427.5 591 447.5 L 591 471.88" fill="none" stroke="#000000" stroke-miterlimit="10" stroke-dasharray="3 3" pointer-events="stroke"/><path d="M 591 478.88 L 587.5 471.88 L 594.5 471.88 Z" fill="#000000" stroke="#000000" stroke-miterlimit="10" pointer-events="all"/></g><g style=""><g fill="#000000" font-family="Arial,Helvetica" direction="" text-anchor="middle" font-size="11px"><rect fill="#ffffff" stroke="none" x="580" y="422" width="20" height="12" stroke-width="1" transform="translate(0.5, 0.5)"/><text x="590.5" y="432">use</text></g></g><g transform="translate(0.5,0.5)" style="visibility: visible; cursor: move;"><rect x="670" y="50" width="220" height="150" fill="#f1f1f17f" stroke="#000000" pointer-events="all"/></g><g style="cursor: move;"><g fill="#774400" font-family="Arial,Helvetica" direction="" text-anchor="middle" font-size="11px"><rect fill="none" stroke="none" x="758" y="57" width="44" height="12" stroke-width="1" transform="translate(0.5, 0.5)"/><text x="780" y="67">Datadog</text></g></g><g transform="translate(0.5,0.5)" style="visibility: visible; cursor: move;"><rect x="680" y="75" width="200" height="100" fill="#f0fff07f" stroke="#000000" pointer-events="all"/></g><g style="cursor: move;"><g fill="#774400" font-family="Arial,Helvetica" direction="" text-anchor="middle" font-size="11px"><rect fill="none" stroke="none" x="719" y="100" width="121" height="38" stroke-width="1" transform="translate(0.5, 0.5)"/><text x="780" y="110">Datadog</text><text x="780" y="136">image: datadog/datadog</text></g></g><g transform="translate(0.5,0.5)" style="visibility: visible;"><ellipse cx="330" cy="430" rx="10" ry="10" fill="#ffffd27f" stroke="#000000" pointer-events="all"/></g><g style=""><g fill="#774400" font-family="Arial,Helvetica" direction="" text-anchor="middle" font-size="11px"><rect fill="none" stroke="none" x="316" y="444" width="27" height="12" stroke-width="1" transform="translate(0.5, 0.5)"/><text x="330" y="454.5">9090</text></g></g><g transform="translate(0.5,0.5)" style="visibility: visible;"><ellipse cx="390" cy="430" rx="10" ry="10" fill="#ffffd27f" stroke="#000000" pointer-events="all"/></g><g style=""><g fill="#774400" font-family="Arial,Helvetica" direction="" text-anchor="middle" font-size="11px"><rect fill="none" stroke="none" x="382" y="444" width="15" height="12" stroke-width="1" transform="translate(0.5, 0.5)"/><text x="390" y="454.5">80</text></g></g><g transform="translate(0.5,0.5)" style="visibility: visible; cursor: move;"><ellipse cx="810" cy="430" rx="10" ry="10" fill="#ffffd27f" stroke="#000000" pointer-events="all"/></g><g style="cursor: move;"><g fill="#774400" font-family="Arial,Helvetica" direction="" text-anchor="middle" font-size="11px"><rect fill="none" stroke="none" x="796" y="444" width="27" height="12" stroke-width="1" transform="translate(0.5, 0.5)"/><text x="810" y="454.5">8000</text></g></g><g transform="translate(0.5,0.5)" style="visibility: visible; cursor: move;"><rect x="170" y="570" width="84" height="25" fill="#f0f0f07f" stroke="#000000" pointer-events="all"/></g><g style="cursor: move;"><g fill="#774400" font-family="Arial,Helvetica" direction="" text-anchor="middle" font-size="11px"><rect fill="none" stroke="none" x="178" y="577" width="67" height="12" stroke-width="1" transform="translate(0.5, 0.5)"/><text x="212" y="587">./prometheus</text></g></g><g transform="translate(0.5,0.5)" style="visibility: visible;"><rect x="50" y="570" width="63" height="25" fill="#f0f0f07f" stroke="#000000" pointer-events="all"/></g><g style=""><g fill="#774400" font-family="Arial,Helvetica" direction="" text-anchor="middle" font-size="11px"><rect fill="none" stroke="none" x="53" y="577" width="56" height="12" stroke-width="1" transform="translate(0.5, 0.5)"/><text x="81.5" y="587">Prom_data</text></g></g><g transform="translate(0.5,0.5)" style="visibility: visible;"><rect x="560" y="570" width="63" height="25" fill="#f0f0f07f" stroke="#000000" pointer-events="all"/></g><g style=""><g fill="#774400" font-family="Arial,Helvetica" direction="" text-anchor="middle" font-size="11px"><rect fill="none" stroke="none" x="568" y="577" width="46" height="12" stroke-width="1" transform="translate(0.5, 0.5)"/><text x="591.5" y="587">./grafana</text></g></g><g transform="translate(0.5,0.5)" style="visibility: visible;"><path d="M 270 430 L 320 430" fill="none" stroke="white" stroke-miterlimit="10" pointer-events="stroke" visibility="hidden" stroke-width="9"/><path d="M 270 430 L 320 430" fill="none" stroke="#000000" stroke-miterlimit="10" pointer-events="stroke"/></g><g transform="translate(0.5,0.5)" style="visibility: visible;"><path d="M 225 505 L 225 521.25 Q 225 537.5 218.5 537.5 L 215.25 537.5 Q 212 537.5 212 553.75 L 212 570" fill="none" stroke="white" stroke-miterlimit="10" pointer-events="stroke" visibility="hidden" stroke-width="9"/><path d="M 225 505 L 225 521.25 Q 225 537.5 218.5 537.5 L 215.25 537.5 Q 212 537.5 212 553.75 L 212 570" fill="none" stroke="#000000" stroke-miterlimit="10" pointer-events="stroke"/></g><g style=""><g fill="#000000" font-family="Arial,Helvetica" direction="" text-anchor="middle" font-size="11px"><rect fill="#ffffff" stroke="none" x="212" y="532" width="12" height="12" stroke-width="1" transform="translate(0.5, 0.5)"/><text x="218.5" y="542">ro</text></g></g><g transform="translate(0.5,0.5)" style="visibility: visible;"><path d="M 88.5 505 L 88.5 521.25 Q 88.5 537.5 85 537.5 L 83.25 537.5 Q 81.5 537.5 81.5 553.75 L 81.5 570" fill="none" stroke="white" stroke-miterlimit="10" pointer-events="stroke" visibility="hidden" stroke-width="9"/><path d="M 88.5 505 L 88.5 521.25 Q 88.5 537.5 85 537.5 L 83.25 537.5 Q 81.5 537.5 81.5 553.75 L 81.5 570" fill="none" stroke="#000000" stroke-miterlimit="10" pointer-events="stroke"/></g><g style=""><g fill="#000000" font-family="Arial,Helvetica" direction="" text-anchor="middle" font-size="11px"><rect fill="#ffffff" stroke="none" x="78" y="532" width="15" height="12" stroke-width="1" transform="translate(0.5, 0.5)"/><text x="85" y="542">rw</text></g></g><g transform="translate(0.5,0.5)" style="visibility: visible; cursor: move;"><path d="M 160 250 L 160 175 Q 160 155 180 155 L 240 155 Q 260 155 260 135 L 260 68.12" fill="none" stroke="white" stroke-miterlimit="10" pointer-events="stroke" visibility="hidden" stroke-width="9"/><path d="M 160 250 L 160 175 Q 160 155 180 155 L 240 155 Q 260 155 260 135 L 260 68.12" fill="none" stroke="#000000" stroke-miterlimit="10" pointer-events="stroke"/><path d="M 260 61.12 L 263.5 68.12 L 256.5 68.12 Z" fill="#000000" stroke="#000000" stroke-miterlimit="10" pointer-events="all"/></g><g style="cursor: move;"><g fill="#000000" font-family="Arial,Helvetica" direction="" text-anchor="middle" font-size="11px"><rect fill="#ffffff" stroke="none" x="176" y="149" width="67" height="12" stroke-width="1" transform="translate(0.5, 0.5)"/><text x="210" y="159.5">alias:['mysql']</text></g></g><g transform="translate(0.5,0.5)" style="visibility: visible; cursor: move;"><path d="M 160 250 L 160 175 Q 160 155 140 155 L 90 155 Q 70 155 70 135 L 70 68.12" fill="none" stroke="white" stroke-miterlimit="10" pointer-events="stroke" visibility="hidden" stroke-width="9"/><path d="M 160 250 L 160 175 Q 160 155 140 155 L 90 155 Q 70 155 70 135 L 70 68.12" fill="none" stroke="#000000" stroke-miterlimit="10" pointer-events="stroke"/><path d="M 70 61.12 L 73.5 68.12 L 66.5 68.12 Z" fill="#000000" stroke="#000000" stroke-miterlimit="10" pointer-events="all"/></g><g style="cursor: move;"><g fill="#000000" font-family="Arial,Helvetica" direction="" text-anchor="middle" font-size="11px"><rect fill="#ffffff" stroke="none" x="73" y="149" width="83" height="12" stroke-width="1" transform="translate(0.5, 0.5)"/><text x="115" y="159.5">alias:['unknown']</text></g></g><g transform="translate(0.5,0.5)" style="visibility: visible;"><path d="M 490 430 L 400 430" fill="none" stroke="white" stroke-miterlimit="10" pointer-events="stroke" visibility="hidden" stroke-width="9"/><path d="M 490 430 L 400 430" fill="none" stroke="#000000" stroke-miterlimit="10" pointer-events="stroke"/></g><g style=""><g fill="#000000" font-family="Arial,Helvetica" direction="" text-anchor="middle" font-size="11px"><rect fill="#ffffff" stroke="none" x="435" y="424" width="19" height="12" stroke-width="1" transform="translate(0.5, 0.5)"/><text x="445" y="434.5">tcp</text></g></g><g transform="translate(0.5,0.5)" style="visibility: visible;"><path d="M 700 430 L 800 430" fill="none" stroke="white" stroke-miterlimit="10" pointer-events="stroke" visibility="hidden" stroke-width="9"/><path d="M 700 430 L 800 430" fill="none" stroke="#000000" stroke-miterlimit="10" pointer-events="stroke"/></g><g style=""><g fill="#000000" font-family="Arial,Helvetica" direction="" text-anchor="middle" font-size="11px"><rect fill="#ffffff" stroke="none" x="740" y="424" width="19" height="12" stroke-width="1" transform="translate(0.5, 0.5)"/><text x="750" y="434.5">tcp</text></g></g><g transform="translate(0.5,0.5)" style="visibility: visible;"><path d="M 591 505 L 591 521.25 Q 591 537.5 591.25 537.5 L 591.38 537.5 Q 591.5 537.5 591.5 553.75 L 591.5 570" fill="none" stroke="white" stroke-miterlimit="10" pointer-events="stroke" visibility="hidden" stroke-width="9"/><path d="M 591 505 L 591 521.25 Q 591 537.5 591.25 537.5 L 591.38 537.5 Q 591.5 537.5 591.5 553.75 L 591.5 570" fill="none" stroke="#000000" stroke-miterlimit="10" pointer-events="stroke"/></g><g style=""><g fill="#000000" font-family="Arial,Helvetica" direction="" text-anchor="middle" font-size="11px"><rect fill="#ffffff" stroke="none" x="585" y="532" width="12" height="12" stroke-width="1" transform="translate(0.5, 0.5)"/><text x="591.5" y="542">ro</text></g></g><g transform="translate(0.5,0.5)" style="visibility: visible; cursor: move;"><path d="M 590 250 L 590 175 Q 590 155 570 155 L 550 155 Q 530 155 530 135 L 530 68.12" fill="none" stroke="white" stroke-miterlimit="10" pointer-events="stroke" visibility="hidden" stroke-width="9"/><path d="M 590 250 L 590 175 Q 590 155 570 155 L 550 155 Q 530 155 530 135 L 530 68.12" fill="none" stroke="#000000" stroke-miterlimit="10" pointer-events="stroke"/><path d="M 530 61.12 L 533.5 68.12 L 526.5 68.12 Z" fill="#000000" stroke="#000000" stroke-miterlimit="10" pointer-events="all"/></g><g style="cursor: move;"><g fill="#000000" font-family="Arial,Helvetica" direction="" text-anchor="middle" font-size="11px"><rect fill="#ffffff" stroke="none" x="536" y="149" width="47" height="12" stroke-width="1" transform="translate(0.5, 0.5)"/><text x="560" y="159.5">alias:['ui']</text></g></g><g transform="translate(0.5,0.5)" style="visibility: visible; cursor: move;"><rect x="200" y="200" width="100" height="50" fill="#b5f5ff7f" stroke="#000000" pointer-events="all"/></g><g style="cursor: move;"><g fill="#774400" font-family="Arial,Helvetica" direction="" text-anchor="middle" font-size="11px"><rect fill="none" stroke="none" x="216" y="213" width="67" height="25" stroke-width="1" transform="translate(0.5, 0.5)"/><text x="250" y="223">NewElement</text><text x="250" y="236">&lt;&lt;network&gt;&gt;</text></g></g><g transform="translate(0.5,0.5)" style="visibility: visible; cursor: move;"><path d="M 300 225 L 465 225 Q 485 225 485 205 L 485 145 Q 485 125 505 125 L 670 125" fill="none" stroke="white" stroke-miterlimit="10" pointer-events="stroke" visibility="hidden" stroke-width="9"/><path d="M 300 225 L 465 225 Q 485 225 485 205 L 485 145 Q 485 125 505 125 L 670 125" fill="none" stroke="#000000" stroke-miterlimit="10" pointer-events="stroke"/></g><g style="cursor: move;"><g fill="#000000" font-family="Arial,Helvetica" direction="" text-anchor="middle" font-size="11px"><rect fill="#ffffff" stroke="none" x="445" y="169" width="80" height="12" stroke-width="1" transform="translate(0.5, 0.5)"/><text x="485" y="179.5">NewToDataDog</text></g></g></g><g/><g/></g></svg>